<svg width="48" height="45" viewBox="0 0 48 45" fill="none" xmlns="http://www.w3.org/2000/svg">
<g clip-path="url(#clip0_192_537)">
<path d="M21.8602 22.9095V24.5868C15.0839 24.5703 9.73366 22.5239 5.94293 18.5151C-0.414007 11.789 0.0554495 2.04386 0.0723185 1.6413C0.122488 0.752478 0.86081 0.0478516 1.74963 0.0478516C9.11296 0.0478516 14.8825 2.21149 18.9081 6.45539C21.2732 8.9545 22.6989 11.8228 23.5545 14.4728C24.41 11.8228 25.8357 8.9545 28.2008 6.45539C32.2264 2.21159 37.9963 0.0478516 45.3593 0.0478516C46.2481 0.0478516 46.9865 0.752478 47.0366 1.6413C47.0534 2.04378 47.5229 11.7895 41.166 18.5151C37.3752 22.5238 32.0077 24.5703 25.2142 24.5886V23.1128L33.7184 15.0617C34.4062 14.4244 34.423 13.3675 33.7854 12.6965C33.1482 12.0256 32.0913 11.9919 31.4203 12.6295L23.6545 19.976L15.8888 12.6295C15.201 11.9923 14.1444 12.0256 13.5068 12.6965C12.8696 13.3675 12.9029 14.424 13.5738 15.0617L21.8602 22.9095ZM43.4726 34.9641C43.4726 34.9641 38.407 30.4102 32.7627 33.4208C30.1595 30.7255 27.5833 29.5225 25.2148 29.189V24.5864H21.8602V29.2544C17.7608 29.9943 14.7885 32.8656 14.282 33.3822C8.66967 30.4604 3.65449 34.9621 3.65449 34.9621C0.172574 37.6776 0.25644 42.0053 0.366855 43.2884C0.366855 43.2884 0.449224 44.8149 2.00708 44.9908H45.0806C45.8691 44.9908 46.5516 44.4423 46.7193 43.6707C46.7197 43.6711 47.5954 38.1794 43.4725 34.964L43.4726 34.9641Z" fill="#D0C4C5"/>
</g>
<defs>
<clipPath id="clip0_192_537">
<rect width="47.0847" height="45" fill="white"/>
</clipPath>
</defs>
</svg>
