<svg width="33" height="45" viewBox="0 0 33 45" fill="none" xmlns="http://www.w3.org/2000/svg">
<g clip-path="url(#clip0_192_555)">
<path d="M1.01437 22.8887L0.265625 22.2395L5.60786 15.8491C5.75761 15.6495 6.05711 15.5994 6.257 15.7491L9.90148 18.2952L9.35228 19.1439L6.10729 16.8472L1.01437 22.8887Z" fill="#D0C4C5"/>
<path d="M5.06038 44.9555L3.11328 30.6767C3.11328 30.527 3.16308 30.3772 3.26303 30.2275L7.15724 26.583L7.85618 27.3318L4.16159 30.8265L6.05885 44.8556L5.06038 44.9555Z" fill="#D0C4C5"/>
<path d="M11.8973 13.8018L7.75344 8.50978C7.70364 8.40983 7.65349 8.31023 7.65349 8.21028C7.55389 5.36469 6.75501 1.2706 5.45703 1.02089L5.65658 0.0224609C8.10303 0.521861 8.60211 6.41295 8.6523 8.01075L12.6464 13.2028L11.8973 13.8018Z" fill="#D0C4C5"/>
<path d="M3.06213 13.9019C1.41458 13.9019 0.0664062 13.6522 0.0664062 13.6522L0.365907 12.6534C1.06485 12.8031 6.0076 13.4021 8.10448 11.4551C10.6008 9.15832 13.896 7.51113 14.0457 7.46094L14.495 8.35942C14.4452 8.35942 11.1998 9.95722 8.80345 12.2038C7.35578 13.5526 4.95908 13.9019 3.06217 13.9019L3.06213 13.9019Z" fill="#D0C4C5"/>
<path d="M20.0384 13.0028C18.6903 10.6563 18.5907 9.70758 18.5907 8.55938C18.5907 7.41117 16.294 6.66211 16.294 6.66211C16.294 6.66211 13.9972 7.41085 13.9972 8.55938C13.9972 9.70758 13.8973 10.6064 12.5495 13.0028C11.2015 15.3493 7.45703 21.6398 7.45703 28.3799C7.45703 35.1197 10.4528 40.5618 16.294 41.4105C22.1353 40.5618 25.0808 35.1698 25.0808 28.3799C25.0808 21.5903 21.3865 15.3493 20.0384 13.0028Z" fill="#D0C4C5"/>
<path d="M16.2939 41.9099H16.2441C10.5525 41.111 7.00781 35.9189 7.00781 28.38C7.00781 21.6399 10.5527 15.4992 12.0502 12.9031L12.1502 12.7035C13.5481 10.3072 13.5481 9.50826 13.5481 8.55967C13.5481 7.112 15.7449 6.3131 16.1443 6.16333C16.2443 6.11353 16.3439 6.11353 16.4438 6.16333C16.8931 6.31308 19.04 7.112 19.04 8.55967C19.04 9.50835 19.04 10.357 20.438 12.7035L20.5379 12.9031C22.0358 15.4993 25.5803 21.6401 25.5803 28.38C25.5803 35.9187 22.0354 41.1111 16.3441 41.9099H16.2943H16.2939ZM16.2939 7.21153C15.5451 7.51103 14.4965 8.11001 14.4965 8.55961C14.4965 9.80775 14.3966 10.8062 12.9987 13.2527L12.8987 13.4523C11.4511 15.9984 8.0061 21.9395 8.0061 28.43C8.0061 35.5194 11.1014 40.1625 16.2939 40.9613C21.486 40.1126 24.5816 35.4697 24.5816 28.3801C24.5816 21.8896 21.1367 15.9486 19.689 13.4023L19.589 13.2028C18.1911 10.7563 18.0912 9.75783 18.0912 8.50968C18.0912 8.06043 17.0927 7.46142 16.2938 7.2117L16.2939 7.21153Z" fill="#D0C4C5"/>
<path d="M31.5703 22.8885L26.4778 16.8473L23.2328 19.144L22.6836 18.2953L26.3281 15.7492C26.5276 15.5995 26.8275 15.6493 26.9772 15.8492L32.3195 22.2396L31.5703 22.8885Z" fill="#D0C4C5"/>
<path d="M27.5262 44.9555L26.5278 44.8058L28.4251 30.7767L24.7305 27.2819L25.4294 26.5332L29.3236 30.1777C29.4236 30.2776 29.5232 30.4274 29.4734 30.6269L27.5262 44.9555Z" fill="#D0C4C5"/>
<path d="M20.6856 13.8018L19.8867 13.2028L23.8809 8.01075C23.9808 6.46315 24.4301 0.521896 26.8766 0.0224609L27.0761 1.02089C25.7782 1.27059 24.9793 5.36433 24.8793 8.21028C24.8793 8.31023 24.8295 8.40983 24.7794 8.50978L20.6856 13.8018Z" fill="#D0C4C5"/>
<path d="M29.5227 13.9022C27.6254 13.9022 25.2788 13.6027 23.7814 12.2048C21.4349 10.0079 18.1397 8.4105 18.0898 8.3604L18.5391 7.46191C18.6888 7.51171 21.9841 9.1593 24.4803 11.4561C26.5772 13.4032 31.5698 12.8041 32.2189 12.6544L32.2687 12.9539L32.4683 13.603C32.5184 13.6525 31.1703 13.9022 29.5227 13.9022L29.5227 13.9022Z" fill="#D0C4C5"/>
</g>
<defs>
<clipPath id="clip0_192_555">
<rect width="32.4963" height="45" fill="white"/>
</clipPath>
</defs>
</svg>
