<svg width="45" height="45" viewBox="0 0 45 45" fill="none" xmlns="http://www.w3.org/2000/svg">
<g clip-path="url(#clip0_192_616)">
<path d="M12.8086 13.5648L18.1491 18.8927C19.1468 18.1829 20.3037 17.7287 21.5181 17.5704L22.5538 13.4528C22.6248 13.1248 22.8254 12.8395 23.109 12.6611C23.3931 12.4827 23.7374 12.4263 24.0632 12.5044C24.3995 12.5746 24.6916 12.7806 24.8712 13.0734C25.0505 13.3663 25.1014 13.7202 25.0116 14.0515L24.1008 17.6699C25.1152 17.8917 26.0744 18.3162 26.9208 18.9178L32.2614 13.5899C29.5525 11.2833 26.1112 10.0166 22.5538 10.0166C18.9959 10.0166 15.5547 11.2833 12.8458 13.5899L12.8086 13.5648Z" fill="#D0C4C5"/>
<path d="M38.7362 0.0263672H6.2934C4.63897 0.0263672 3.0518 0.683533 1.88207 1.85375C0.711907 3.02359 0.0546875 4.61065 0.0546875 6.26508V38.7079C0.0546875 40.3623 0.711853 41.9495 1.88207 43.1192C3.05191 44.2894 4.63897 44.9466 6.2934 44.9466H38.7362C40.3906 44.9466 41.9778 44.2894 43.1475 43.1192C44.3177 41.9494 44.9749 40.3623 44.9749 38.7079V6.26508C44.9749 4.61065 44.3177 3.02348 43.1475 1.85375C41.9777 0.683586 40.3906 0.0263672 38.7362 0.0263672ZM34.9056 14.4135L27.843 21.4761C27.6087 21.7121 27.2899 21.845 26.9573 21.845C26.6244 21.845 26.3056 21.7121 26.0712 21.4761C25.1158 20.5566 23.8411 20.0427 22.5151 20.0427C21.1891 20.0427 19.9144 20.5566 18.9589 21.4761C18.7245 21.7121 18.4058 21.845 18.0728 21.845C17.7402 21.845 17.4215 21.7121 17.1871 21.4761L10.1245 14.4135C9.8885 14.1792 9.75565 13.8604 9.75565 13.5278C9.75565 13.1949 9.8885 12.8761 10.1245 12.6417C13.412 9.35798 17.8685 7.51306 22.5149 7.51306C27.1613 7.51306 31.6179 9.35798 34.9053 12.6417C35.1413 12.8761 35.2742 13.1949 35.2742 13.5278C35.2742 13.8604 35.1413 14.1792 34.9053 14.4135H34.9056Z" fill="#D0C4C5"/>
</g>
<defs>
<clipPath id="clip0_192_616">
<rect width="45" height="45" fill="white"/>
</clipPath>
</defs>
</svg>
