<svg width="23" height="45" viewBox="0 0 23 45" fill="none" xmlns="http://www.w3.org/2000/svg">
<g clip-path="url(#clip0_192_547)">
<path d="M15.7999 23.734V4.65384C15.7999 3.41593 15.3176 2.25527 14.4451 1.38863C13.5757 0.513298 12.4153 0.03125 11.1767 0.03125C8.62756 0.03125 6.55385 2.10496 6.55385 4.65411L6.55419 23.7343C5.65062 24.1468 4.8074 24.6787 4.04278 25.3191H4.04313C1.51597 27.4351 0.0664062 30.5396 0.0664062 33.8366C0.0664062 39.9632 5.05043 44.9468 11.1767 44.9468C17.3029 44.9468 22.287 39.9628 22.287 33.8366C22.287 29.462 19.7525 25.5356 15.7992 23.734H15.7999ZM11.1771 43.872C5.64356 43.872 1.14159 39.3703 1.14159 33.8366C1.14159 30.8585 2.45077 28.0544 4.73373 26.1431H4.73407C5.5074 25.4948 6.37017 24.9698 7.29932 24.5821L7.62975 24.4441L7.6294 4.65393C7.6294 2.6979 9.22114 1.10615 11.1772 1.10615C12.1269 1.10615 13.0165 1.47535 13.6847 2.14878C14.3557 2.81487 14.7253 3.70448 14.7253 4.65393V24.4441L15.0554 24.5821C18.796 26.1438 21.2127 29.7764 21.2127 33.8369C21.2127 39.3708 16.711 43.8724 11.1772 43.8724L11.1771 43.872Z" fill="#D0C4C5"/>
<path d="M13.4543 25.8722V4.87305H8.90235V25.8722C5.44649 26.8613 2.91406 30.0378 2.91406 33.8116C2.91406 38.3758 6.61412 42.0758 11.1783 42.0758C15.7425 42.0758 19.4426 38.3758 19.4426 33.8116C19.4426 30.0375 16.9106 26.8613 13.4543 25.8722Z" fill="#D0C4C5"/>
<path d="M17.7837 23.8945H21.2514C21.5486 23.8945 21.789 23.6541 21.789 23.3569C21.789 23.0596 21.5486 22.8193 21.2514 22.8193H17.7837C17.4864 22.8193 17.2461 23.0596 17.2461 23.3569C17.2461 23.6538 17.4864 23.8945 17.7837 23.8945Z" fill="#D0C4C5"/>
<path d="M21.2166 17.7323C21.5139 17.7323 21.7542 17.4917 21.7542 17.1948C21.7542 16.8979 21.5139 16.6572 21.2166 16.6572H17.7485C17.4513 16.6572 17.2109 16.8979 17.2109 17.1948C17.2109 17.4917 17.4513 17.7323 17.7485 17.7323H21.2166Z" fill="#D0C4C5"/>
<path d="M21.2514 10.4961H17.7837C17.4864 10.4961 17.2461 10.7368 17.2461 11.0337C17.2461 11.3305 17.4864 11.5712 17.7837 11.5712H21.2514C21.5486 11.5712 21.789 11.3305 21.789 11.0337C21.789 10.7368 21.5486 10.4961 21.2514 10.4961Z" fill="#D0C4C5"/>
<path d="M17.7329 5.41008H21.201C21.4982 5.41008 21.7385 5.16942 21.7385 4.87252C21.7385 4.57562 21.4982 4.33496 21.201 4.33496H17.7329C17.4356 4.33496 17.1953 4.57562 17.1953 4.87252C17.1957 5.16942 17.436 5.41008 17.7329 5.41008Z" fill="#D0C4C5"/>
</g>
<defs>
<clipPath id="clip0_192_547">
<rect width="22.3323" height="45" fill="white"/>
</clipPath>
</defs>
</svg>
