<svg width="47" height="45" viewBox="0 0 47 45" fill="none" xmlns="http://www.w3.org/2000/svg">
<g clip-path="url(#clip0_192_611)">
<path d="M44.9721 2.93762C43.9945 1.86216 36.3697 0.00488281 23.4665 0.00488281C10.5634 0.00488281 2.93855 1.86216 1.96094 2.93762C2.93855 4.01308 10.5634 5.87036 23.4665 5.87036C36.3697 5.87001 43.9945 4.01272 44.9721 2.93762Z" fill="#D0C4C5"/>
<path d="M44.9707 5.18564C43.7977 5.77211 42.0379 6.2611 40.1807 6.65178V19.9462C40.1807 22.0967 38.4212 23.8564 36.2704 23.8564C35.5861 23.8564 34.9018 23.6611 34.3153 23.3678C34.2174 26.9849 31.2851 30.015 27.5701 30.015C23.8556 30.015 20.9229 27.0823 20.825 23.3678C20.0428 23.9543 18.9677 24.3454 17.7948 24.3454C15.0578 24.3454 12.8094 22.097 12.8094 19.3601L12.8098 18.5779C12.0276 19.1644 10.9525 19.5555 9.77954 19.5555C7.0426 19.5555 4.79419 17.3071 4.79419 14.5701L4.79383 6.16316C3.81622 5.86992 2.74085 5.57669 1.95904 5.18555L0.00390625 2.9375V40.0839V40.2793C0.688242 44.8739 21.1183 44.9714 23.4647 44.9714C25.8112 44.9714 46.2411 44.8735 46.9255 40.2793V40.0839V2.9375C46.9255 3.8172 46.2412 4.59907 44.9704 5.18555L44.9707 5.18564Z" fill="#D0C4C5"/>
<path d="M27.5715 27.8649C30.211 27.8649 32.3615 25.7144 32.3615 23.0748V19.7511C32.3615 19.2625 32.7526 18.7734 33.3391 18.7734C33.8277 18.7734 34.3167 19.2621 34.3167 19.7511C34.3167 20.8265 35.1965 21.7062 36.2719 21.7062C37.3473 21.7062 38.227 20.8265 38.227 19.7511V6.84788C32.0683 7.82549 24.8346 7.82549 23.4657 7.82549C21.9996 7.82549 13.2993 7.82549 6.94531 6.55469V14.5706C6.94531 16.2326 8.31397 17.6009 9.97554 17.6009C11.6375 17.6009 13.0058 16.2322 13.0058 14.5706C13.0058 14.082 13.4944 13.593 13.9834 13.593C14.5698 13.593 14.961 14.0816 14.961 14.5706V19.2627C14.961 20.9246 16.3296 22.2929 17.9912 22.2929C19.6531 22.2929 21.0214 20.9243 21.0214 19.2627C21.0214 18.7741 21.4125 18.2851 21.999 18.2851C22.5855 18.2851 22.9767 18.7737 22.9767 19.2627V23.0751C22.7816 25.8124 24.9321 27.8651 27.5716 27.8651L27.5715 27.8649Z" fill="#D0C4C5"/>
</g>
<defs>
<clipPath id="clip0_192_611">
<rect width="46.9743" height="45" fill="white"/>
</clipPath>
</defs>
</svg>
