<svg width="45" height="45" viewBox="0 0 45 45" fill="none" xmlns="http://www.w3.org/2000/svg">
<g clip-path="url(#clip0_192_596)">
<path d="M28.285 21.3789H28.2375H16.7678H16.7204H16.6729H15.8164V33.7053C15.8164 34.1335 16.1497 34.4668 16.578 34.4668H28.476C28.9042 34.4668 29.2375 34.1335 29.2375 33.7053V21.3789H28.381H28.2851H28.285ZM23.6211 28.2322V30.4217C23.6211 31.0405 23.0975 31.5639 22.4788 31.5639C21.86 31.5639 21.3365 31.0404 21.3365 30.4217V28.2322C20.7177 27.8515 20.2894 27.1852 20.2894 26.3762C20.2894 25.1864 21.2412 24.1868 22.4789 24.1868C23.7162 24.1868 24.6683 25.1385 24.6683 26.3762C24.6683 27.1852 24.2397 27.8514 23.6212 28.2322H23.6211Z" fill="#D0C4C5"/>
<path d="M22.4791 0.0576172C10.1051 0.0576172 0.015625 10.1471 0.015625 22.5211C0.015625 34.895 10.1051 44.9845 22.4791 44.9845C34.853 44.9845 44.9425 34.895 44.9425 22.5211C44.9425 10.1471 34.853 0.0576172 22.4791 0.0576172ZM31.474 33.7052C31.474 35.3711 30.1414 36.7036 28.4756 36.7036H16.5776C14.9117 36.7036 13.5792 35.371 13.5792 33.7052V20.2367C13.5792 19.6179 14.1027 19.0944 14.7215 19.0944H15.6258V15.2395C15.6258 11.432 18.7191 8.33872 22.5266 8.33872C26.334 8.33872 29.4274 11.432 29.4274 15.2395V19.0944H30.3317C30.9505 19.0944 31.474 19.6179 31.474 20.2367V33.7052Z" fill="#D0C4C5"/>
<path d="M27.1443 15.2391C27.1443 12.6693 25.0501 10.5752 22.4803 10.5752C19.9105 10.5752 17.8164 12.6693 17.8164 15.2391V19.094H27.1445L27.1443 15.2391Z" fill="#D0C4C5"/>
</g>
<defs>
<clipPath id="clip0_192_596">
<rect width="45" height="45" fill="white"/>
</clipPath>
</defs>
</svg>
