<svg width="59" height="45" viewBox="0 0 59 45" fill="none" xmlns="http://www.w3.org/2000/svg">
<g clip-path="url(#clip0_192_577)">
<path d="M41.0586 32.7058V43.6079L58.6315 26.0349V15.1328L41.0586 32.7058ZM50.5504 30.0459L44.6859 35.9103L44.6863 35.9099C44.5007 36.0854 44.2562 36.1861 44.0011 36.192C43.7387 36.1897 43.4869 36.0891 43.2957 35.9099C42.9129 35.5257 42.9129 34.9039 43.2957 34.5193L49.1602 28.6751C49.5444 28.2922 50.1662 28.2922 50.5503 28.6751C50.9134 29.0602 50.9134 29.6608 50.5503 30.0454L50.5504 30.0459Z" fill="#D0C4C5"/>
<path d="M44.9675 26.0156L46.922 24.0809L57.24 13.7432H53.1899L49.5626 17.3705C49.1752 17.7468 48.5589 17.7468 48.172 17.3705C47.7892 16.9863 47.7892 16.3645 48.172 15.9799L50.4087 13.7432H46.3581L44.9675 15.1333L28.7852 31.3156L32.8357 31.3161L35.4956 28.6763L39.3849 24.7669L44.282 19.8901L44.9672 19.1847L45.2493 18.9025C45.634 18.5197 46.2558 18.5197 46.6399 18.9025C46.8224 19.0918 46.9239 19.3446 46.9221 19.6079C46.9198 19.8639 46.8187 20.1093 46.6399 20.2931L44.9671 21.966L40.7755 26.1571L36.8661 30.0464L35.6165 31.3162H39.6877L44.9676 26.0363L44.9675 26.0156Z" fill="#D0C4C5"/>
<path d="M29.5344 41.4726C28.7969 41.0866 28.0831 40.656 27.3984 40.1826V44.9791H39.1067V43.9915C36.4697 43.9005 33.8695 43.3408 31.4288 42.3389C30.7781 42.094 30.1453 41.8044 29.5344 41.4726V41.4726Z" fill="#D0C4C5"/>
<path d="M35.6402 38.1268C34.8544 38.027 34.0741 37.8855 33.3029 37.704C31.279 37.2338 29.3029 36.5794 27.3984 35.749V37.704C28.5041 38.6116 29.715 39.3828 31.0055 40.0013C31.5901 40.2834 32.2348 40.5656 32.9402 40.8275V40.8271C34.9264 41.5252 37.0036 41.9328 39.1066 42.0366V38.2683C38.7637 38.2885 38.4214 38.3087 38.079 38.3087V38.3082C37.2628 38.3082 36.4476 38.2476 35.6402 38.1267L35.6402 38.1268Z" fill="#D0C4C5"/>
<path d="M27.3984 33.6133C27.8819 33.8348 28.6677 34.1776 29.6351 34.5402C30.2395 34.7622 30.9449 35.0241 31.6908 35.2457C32.7597 35.5876 33.8502 35.8569 34.9555 36.0517C35.7754 36.1956 36.603 36.2898 37.4338 36.3339C37.9918 36.361 38.551 36.3477 39.1067 36.2934V33.2705H27.3984V33.6133Z" fill="#D0C4C5"/>
<path d="M44.9675 5.52129V1.4707L32.6945 13.7436L31.3039 15.1338L27.3945 19.0432V29.9255L31.3039 26.0362V26.016L33.2589 24.0813L43.5769 13.7435H43.5971L44.9675 12.353V8.30236L40.7758 12.494H40.7754C40.592 12.6728 40.3466 12.7739 40.0906 12.7762C39.8268 12.7826 39.5718 12.6806 39.3852 12.494C39.1986 12.3074 39.0966 12.0524 39.103 11.7886C39.1053 11.5326 39.2064 11.2872 39.3852 11.1034L44.9675 5.52129Z" fill="#D0C4C5"/>
<path d="M29.9378 13.7435L31.5904 12.0707L43.581 0.0800781H32.6784L15.1055 17.653H19.1763L20.8491 15.9807L23.0858 13.744L24.7582 12.0711L30.6029 6.22643C30.9871 5.84362 31.6089 5.84362 31.9935 6.22643C32.1768 6.4075 32.2802 6.65428 32.2802 6.91163C32.2802 7.16944 32.1768 7.41623 31.9935 7.59683L27.8018 11.7885L26.1492 13.4613L21.9576 17.6529H26.0284L29.9177 13.7435L29.9378 13.7435Z" fill="#D0C4C5"/>
<path d="M13.7344 19.9497C14.2178 20.1713 14.9839 20.5141 15.9513 20.8767C16.5759 21.0982 17.2813 21.3399 18.0272 21.5821H18.0267C19.092 21.9121 20.1752 22.1814 21.2712 22.3882H21.2914C22.1044 22.5306 22.9257 22.6248 23.7497 22.6703H23.7699C24.3278 22.6974 24.8866 22.6841 25.4427 22.6299V19.6074H13.7345L13.7344 19.9497Z" fill="#D0C4C5"/>
<path d="M21.9771 24.4647H21.9569C21.6251 24.4288 21.2956 24.3751 20.9693 24.3034C20.9279 24.3066 20.8866 24.2997 20.8484 24.2831C20.7731 24.2795 20.6986 24.2661 20.6269 24.2432C20.6044 24.2459 20.5823 24.2386 20.5663 24.2229C20.2639 24.1825 19.9417 24.1021 19.6393 24.0419V24.0414C18.5695 23.7942 17.5139 23.4913 16.4752 23.1347C15.7096 22.8727 15.0244 22.6108 14.4398 22.3893C14.1981 22.2684 13.9563 22.1876 13.7344 22.0869V24.0419C13.9559 24.2229 14.2987 24.5051 14.762 24.8479L14.7624 24.8475C15.5781 25.4067 16.4334 25.9049 17.3217 26.3388H17.3419C17.972 26.648 18.6177 26.9238 19.2766 27.165C20.3203 27.5377 21.3916 27.8277 22.4806 28.0318C23.2941 28.1784 24.1149 28.279 24.9392 28.3342C25.1005 28.3544 25.2816 28.3544 25.4429 28.3746V24.6058C25.1005 24.626 24.7577 24.6462 24.4153 24.6462V24.6458C23.5991 24.6458 22.7839 24.5851 21.9768 24.4647L21.9771 24.4647Z" fill="#D0C4C5"/>
<path d="M20.8277 29.6634C19.7803 29.4221 18.7555 29.0917 17.7647 28.6758H17.7445C17.1057 28.4184 16.4803 28.1294 15.8704 27.8095C15.136 27.4175 14.4232 26.9869 13.7344 26.5195V31.316H25.4426V30.3284C24.6733 30.2967 23.9063 30.2227 23.1453 30.1069C22.3645 30.0053 21.5906 29.8574 20.8278 29.6634L20.8277 29.6634Z" fill="#D0C4C5"/>
<path d="M13.7344 33.6133C14.2178 33.8348 14.9839 34.1776 15.9513 34.5402C16.5759 34.7622 17.2813 35.0241 18.0272 35.2457H18.0267C19.0957 35.5876 20.1862 35.8569 21.2914 36.0517C22.1113 36.1951 22.939 36.2898 23.7698 36.3339C24.3277 36.361 24.887 36.3477 25.4426 36.2934V33.2705H13.7344L13.7344 33.6133Z" fill="#D0C4C5"/>
<path d="M21.9766 38.1268C21.1903 38.027 20.41 37.8855 19.6388 37.704C17.614 37.237 15.6374 36.5826 13.7344 35.749V37.704C14.8401 38.6116 16.051 39.3828 17.3414 40.0013C17.926 40.2834 18.5707 40.5656 19.2761 40.8275L19.2757 40.8271C21.2624 41.5252 23.3396 41.9328 25.4425 42.0366V38.2683C25.1001 38.2885 24.7573 38.3087 24.4149 38.3087L24.4145 38.3082C23.5988 38.3082 22.7835 38.2476 21.9765 38.1267L21.9766 38.1268Z" fill="#D0C4C5"/>
<path d="M15.8704 41.4726C15.1328 41.0866 14.4191 40.6555 13.7344 40.1826V44.9791H25.4426V43.9915C22.8057 43.9005 20.2054 43.3408 17.7647 42.3389C17.114 42.094 16.4812 41.8044 15.8704 41.4726V41.4726Z" fill="#D0C4C5"/>
<path d="M0.0703125 44.979H11.7789V43.9712C7.59419 43.8536 3.53078 42.5387 0.0703125 40.1826V44.979Z" fill="#D0C4C5"/>
<path d="M0.0703601 35.749V37.704C3.39801 40.3805 7.51012 41.8952 11.7789 42.0165V38.2683C11.4361 38.2886 11.0938 38.3088 10.7514 38.3088V38.3083C7.06114 38.1387 3.43655 37.2702 0.0703125 35.749L0.0703601 35.749Z" fill="#D0C4C5"/>
<path d="M0.0703125 33.6133C3.72196 35.3762 7.72431 36.2922 11.7789 36.2934V33.2705H0.0703125V33.6133Z" fill="#D0C4C5"/>
<path d="M11.7796 31.3148V20.9766L1.44141 31.3148H11.7796Z" fill="#D0C4C5"/>
</g>
<defs>
<clipPath id="clip0_192_577">
<rect width="58.6765" height="45" fill="white"/>
</clipPath>
</defs>
</svg>
