<svg width="45" height="45" viewBox="0 0 45 45" fill="none" xmlns="http://www.w3.org/2000/svg">
<g clip-path="url(#clip0_192_539)">
<path d="M42.6807 12.3879C41.5777 11.412 40.3137 10.6141 38.9342 10.0388C37.0512 6.85158 33.635 4.66847 29.6901 4.51803C28.5585 3.33749 27.2286 2.34513 25.7539 1.59489C27.4355 0.591933 29.4012 0.015625 31.5016 0.015625C37.7075 0.015625 42.7379 5.0458 42.7379 11.2509C42.7379 11.6347 42.7187 12.0139 42.681 12.3875L42.6807 12.3879Z" fill="#D0C4C5"/>
<path d="M19.1405 2.26301C13.1872 2.26301 8.21823 6.4712 7.04327 12.0768C2.93621 13.748 0.0390625 17.7774 0.0390625 22.4877C0.0390625 28.6933 5.06924 33.724 11.2744 33.724H33.7469C39.9521 33.724 44.9822 28.6934 44.9822 22.4877C44.9822 17.5411 41.7879 13.3452 37.3506 11.8428C35.8985 8.83508 32.8204 6.75724 29.252 6.75724C29.0628 6.75724 28.8751 6.76288 28.6881 6.77454C26.4241 4.02263 22.9878 2.2627 19.1396 2.2627L19.1405 2.26301Z" fill="#D0C4C5"/>
<path d="M29.0165 39.2235C29.5718 38.1134 29.1218 36.7635 28.0116 36.2086C26.9015 35.6533 25.552 36.1032 24.9967 37.2135L22.7496 41.708C22.1943 42.8181 22.6443 44.1676 23.7545 44.7229C24.8646 45.2778 26.2141 44.8279 26.7694 43.7176L29.0165 39.2235Z" fill="#D0C4C5"/>
<path d="M38.0049 39.2235C38.5598 38.1134 38.1099 36.7635 36.9996 36.2086C35.8895 35.6533 34.54 36.1032 33.9847 37.2135L31.7377 41.708C31.1828 42.8181 31.6327 44.1676 32.7425 44.7229C33.8527 45.2778 35.2025 44.8279 35.7575 43.7176L38.0049 39.2235Z" fill="#D0C4C5"/>
<path d="M11.0401 39.2235C11.595 38.1134 11.145 36.7635 10.0348 36.2086C8.92504 35.6533 7.57519 36.1032 7.01987 37.2135L4.77281 41.708C4.21791 42.8181 4.66785 44.1676 5.77769 44.7229C6.88784 45.2778 8.23769 44.8279 8.79262 43.7176L11.0401 39.2235Z" fill="#D0C4C5"/>
<path d="M20.0283 39.2235C20.5832 38.1134 20.1333 36.7635 19.0235 36.2086C17.9133 35.6533 16.5635 36.1032 16.0085 37.2135L13.7611 41.708C13.2062 42.8181 13.6561 44.1676 14.7663 44.7229C15.8761 45.2778 17.226 44.8279 17.7813 43.7176L20.0283 39.2235Z" fill="#D0C4C5"/>
</g>
<defs>
<clipPath id="clip0_192_539">
<rect width="45" height="45" fill="white"/>
</clipPath>
</defs>
</svg>
