<svg width="61" height="45" viewBox="0 0 61 45" fill="none" xmlns="http://www.w3.org/2000/svg">
<g clip-path="url(#clip0_192_601)">
<path d="M25.4544 30.9288L30.7997 26.4744C31.2454 26.0927 31.2454 25.3292 30.7362 25.0109L25.0092 21.32C24.5 21.0017 24.4365 20.2382 24.9457 19.8565L27.364 17.8199C27.7457 17.5016 27.8097 16.9925 27.4914 16.6107L25.5817 14.2558C25.3909 14.0014 25.1361 13.874 24.8817 13.874H2.35443C1.08182 13.874 0 14.9558 0 16.2285V28.7648C0 30.0374 1.08176 31.1193 2.35443 31.1193H24.8181C25.0729 31.1832 25.2637 31.1197 25.4546 30.9288L25.4544 30.9288Z" fill="#D0C4C5"/>
<path d="M58.0994 13.874H33.4721C32.7086 13.874 32.3269 14.7014 32.7721 15.3375L33.7904 16.6741C34.0447 17.0559 33.9813 17.6285 33.663 17.8833L31.2447 19.9199C30.799 20.3017 30.799 21.0652 31.3082 21.3835L37.0352 25.0744C37.5444 25.3926 37.6078 26.1561 37.0987 26.5379L33.4086 29.5923C32.772 30.1015 33.1542 31.1832 33.9812 31.1832H58.0357C59.3084 31.1832 60.3902 30.1015 60.3902 28.8288L60.3906 16.2288C60.4541 14.9562 59.3723 13.8744 58.0997 13.8744L58.0994 13.874Z" fill="#D0C4C5"/>
<path d="M30.2261 8.71945C31.1805 8.71945 31.9444 7.95595 31.9444 7.00116V1.78275C31.9444 0.828384 31.1809 0.0644531 30.2261 0.0644531C29.2717 0.0644531 28.5078 0.827953 28.5078 1.78275V7.00116C28.5078 7.95596 29.2718 8.71945 30.2261 8.71945Z" fill="#D0C4C5"/>
<path d="M22.9729 10.7556C23.2912 11.0738 23.7364 11.2647 24.1821 11.2647C24.6278 11.2647 25.073 11.0738 25.3913 10.7556C26.0278 10.119 26.0278 9.03726 25.3913 8.33726L21.7004 4.64635C21.0638 4.00981 19.9821 4.00981 19.2821 4.64635C18.6456 5.2829 18.6456 6.36465 19.2821 7.06465L22.9729 10.7556Z" fill="#D0C4C5"/>
<path d="M36.2724 11.2012C36.7181 11.2012 37.1633 11.0104 37.4816 10.6921L41.1726 7.00117C41.8091 6.36463 41.8091 5.28288 41.1726 4.58288C40.536 3.94633 39.4543 3.94633 38.7543 4.58288L35.0633 8.27379C34.4268 8.91033 34.4268 9.99208 35.0633 10.6921C35.3816 11.0738 35.8273 11.2012 36.2726 11.2012H36.2724Z" fill="#D0C4C5"/>
<path d="M30.2261 36.3379C29.2717 36.3379 28.5078 37.1014 28.5078 38.0562V43.2746C28.5078 44.229 29.2713 44.9929 30.2261 44.9929C31.1805 44.9929 31.9444 44.2294 31.9444 43.2746V38.0562C31.9444 37.1014 31.1805 36.3379 30.2261 36.3379Z" fill="#D0C4C5"/>
<path d="M37.4816 34.3016C36.8451 33.6651 35.7633 33.6651 35.0633 34.3016C34.4268 34.9382 34.4268 36.0199 35.0633 36.7199L38.7543 40.4108C39.0725 40.7291 39.5178 40.92 39.9635 40.92C40.4091 40.92 40.8543 40.7291 41.1727 40.4108C41.8092 39.7743 41.8092 38.6925 41.1727 37.9925L37.4816 34.3016Z" fill="#D0C4C5"/>
<path d="M22.973 34.3016L19.2821 37.9925C18.6456 38.6291 18.6456 39.7108 19.2821 40.4108C19.6004 40.7291 20.0456 40.92 20.4913 40.92C20.937 40.92 21.3822 40.7291 21.7005 40.4108L25.3914 36.7199C26.028 36.0834 26.028 35.0016 25.3914 34.3016C24.6914 33.6651 23.6096 33.6651 22.9731 34.3016H22.973Z" fill="#D0C4C5"/>
</g>
<defs>
<clipPath id="clip0_192_601">
<rect width="60.4261" height="45" fill="white"/>
</clipPath>
</defs>
</svg>
