<svg width="26" height="24" viewBox="0 0 26 24" fill="none" xmlns="http://www.w3.org/2000/svg">
<g clip-path="url(#clip0_92_10078)">
<path fill-rule="evenodd" clip-rule="evenodd" d="M5.79306 3.99071H25.9995L24.1515 14.0824H8.07309L8.58768 16.3609H22.8753C23.2214 16.3609 23.5007 16.6409 23.5007 16.9863C23.5007 17.3316 23.2206 17.6117 22.8753 17.6117H8.08956V17.61C7.80375 17.61 7.54596 17.4133 7.48066 17.1234L4.12999 2.29004L0.466239 1.24665C0.134132 1.15157 -0.0583345 0.806402 0.0367456 0.474295C0.130867 0.142188 0.476993 -0.0502778 0.809099 0.0448023L4.82817 1.18905C5.07019 1.25762 5.23788 1.46084 5.27514 1.69385L5.79396 3.99036L5.79306 3.99071ZM19.4281 19.3488C20.441 19.3488 21.2613 20.1699 21.2613 21.1828C21.2613 22.1956 20.4402 23.0168 19.4281 23.0168C18.4153 23.0168 17.5941 22.1956 17.5941 21.1828C17.5941 20.1699 18.4153 19.3488 19.4281 19.3488ZM11.4489 19.3488C12.4617 19.3488 13.2821 20.1699 13.2821 21.1828C13.2821 22.1956 12.461 23.0168 11.4489 23.0168C10.436 23.0168 9.61489 22.1956 9.61489 21.1828C9.61489 20.1699 10.436 19.3488 11.4489 19.3488ZM10.3485 7.93189C10.0031 7.93189 9.72303 7.65184 9.72303 7.30646C9.72303 6.96033 10.0031 6.68104 10.3485 6.68104H20.5287C20.8748 6.68104 21.1541 6.96109 21.1541 7.30646C21.1541 7.65184 20.874 7.93189 20.5287 7.93189H10.3485ZM10.3485 11.3941C10.0031 11.3941 9.72303 11.1141 9.72303 10.7687C9.72303 10.4233 10.0031 10.1433 10.3485 10.1433H20.5287C20.8748 10.1433 21.1541 10.4233 21.1541 10.7687C21.1541 11.1148 20.874 11.3941 20.5287 11.3941H10.3485Z" fill="#515151"/>
</g>
<defs>
<clipPath id="clip0_92_10078">
<rect width="26" height="23.0496" fill="white"/>
</clipPath>
</defs>
</svg>
