<svg width="21" height="21" viewBox="0 0 21 21" fill="none" xmlns="http://www.w3.org/2000/svg">
<g clip-path="url(#clip0_137_2939)">
<path d="M20.4831 9.49404L19.6164 8.85828C19.3885 8.69121 19.2246 8.4515 19.1516 8.17862C19.0785 7.90576 19.1005 7.61613 19.2143 7.35743L19.6471 6.37339L19.6469 6.37356C19.8062 6.01163 19.7834 5.59542 19.5857 5.25297C19.388 4.91055 19.0389 4.6827 18.646 4.63964L17.5774 4.52246C17.2966 4.49158 17.0346 4.36596 16.8348 4.16622C16.6351 3.96648 16.5095 3.70449 16.4788 3.42383L16.3616 2.35525H16.3614C16.3183 1.96212 16.0905 1.61319 15.7481 1.4154C15.4056 1.21778 14.9896 1.19486 14.6277 1.35413L13.6436 1.7869C13.3851 1.9005 13.0953 1.92276 12.8224 1.84963C12.5496 1.7765 12.3099 1.61252 12.1428 1.38466L11.507 0.517946C11.2731 0.199083 10.9013 0.0107422 10.5059 0.0107422C10.1105 0.0107422 9.73881 0.199099 9.50495 0.517946L8.86919 1.38466C8.70196 1.61251 8.46224 1.77649 8.18936 1.84963C7.9165 1.92276 7.62687 1.9005 7.36834 1.7869L6.3843 1.35413C6.02237 1.19486 5.60617 1.21761 5.26372 1.4154C4.92129 1.61318 4.69361 1.96213 4.65038 2.35508L4.5332 3.42383C4.50233 3.7045 4.3767 3.96648 4.17696 4.16622C3.97723 4.36596 3.7154 4.49158 3.43457 4.52246L2.36599 4.63964C1.97286 4.68271 1.62393 4.91055 1.42614 5.25297C1.22852 5.5954 1.20576 6.0116 1.36487 6.37356L1.79764 7.35759V7.35743C1.91141 7.61616 1.93351 7.90578 1.86037 8.17862C1.78724 8.45149 1.62326 8.6912 1.39556 8.85828L0.528688 9.49404C0.209825 9.72791 0.0214844 10.0998 0.0214844 10.4951C0.0214844 10.8905 0.209842 11.2624 0.528688 11.4962L1.3954 12.132H1.39556C1.62325 12.2991 1.78723 12.5388 1.86037 12.8116C1.9335 13.0845 1.9114 13.3741 1.79764 13.6328L1.36487 14.6169V14.6167C1.20576 14.9786 1.22851 15.3948 1.42614 15.7373C1.62392 16.0797 1.97286 16.3076 2.36599 16.3506L3.43456 16.4678C3.71523 16.4987 3.97722 16.6243 4.17696 16.824C4.3767 17.0238 4.50232 17.2858 4.5332 17.5666L4.65038 18.6352V18.635C4.69361 19.0282 4.92129 19.3771 5.26371 19.5749C5.60614 19.7725 6.02234 19.7953 6.3843 19.6361L7.36833 19.2034C7.6269 19.0898 7.91652 19.0675 8.18936 19.1406C8.46223 19.2138 8.70193 19.3778 8.86918 19.6056L9.50494 20.4723C9.73881 20.7912 10.1105 20.9795 10.5059 20.9795C10.9013 20.9795 11.2731 20.7912 11.507 20.4723L12.1428 19.6056C12.3098 19.3778 12.5496 19.2138 12.8224 19.1406C13.0953 19.0675 13.385 19.0898 13.6436 19.2034L14.6277 19.6361C14.9896 19.7954 15.4056 19.7725 15.7481 19.5749C16.0905 19.3771 16.3183 19.0281 16.3614 18.635L16.4786 17.5665L16.4787 17.5666C16.5095 17.2858 16.6351 17.0238 16.8348 16.824C17.0347 16.6243 17.2966 16.4987 17.5774 16.4678L18.646 16.3506C19.0389 16.3076 19.388 16.0797 19.5856 15.7373C19.7834 15.3949 19.8062 14.9787 19.6469 14.6167L19.2141 13.6327L19.2143 13.6328C19.1005 13.3741 19.0784 13.0845 19.1516 12.8116C19.2246 12.5388 19.3885 12.2991 19.6164 12.132L20.4831 11.4962C20.802 11.2624 20.9903 10.8905 20.9903 10.4951C20.9903 10.0998 20.8019 9.7279 20.4831 9.49404H20.4831ZM15.3241 10.9884C14.8502 14.9433 11.7687 16.4461 10.5059 16.6874C9.24324 16.4461 6.16191 14.9431 5.68762 10.9884L5.31854 7.90932C5.31155 7.85065 5.34243 7.79393 5.39541 7.76809L10.445 5.3048C10.4833 5.28611 10.5282 5.28611 10.5665 5.3048L15.6161 7.76809C15.6693 7.79393 15.7001 7.85065 15.693 7.90932L15.3241 10.9884ZM9.62925 11.7072L12.5755 8.76109C12.6872 8.6444 12.838 8.57273 12.9991 8.56006C13.1601 8.54722 13.3204 8.59402 13.4491 8.6917C13.5885 8.80481 13.6733 8.97172 13.6824 9.15114C13.6917 9.3304 13.6246 9.50527 13.4977 9.63217L10.0776 13.0522C9.95866 13.1712 9.79744 13.238 9.62925 13.238C9.46104 13.238 9.29983 13.1712 9.18104 13.0522L7.53961 11.4108C7.42292 11.299 7.35142 11.1483 7.33858 10.9872C7.32574 10.8262 7.37271 10.6661 7.47022 10.5372C7.5835 10.398 7.7504 10.3131 7.92983 10.3039C8.10908 10.2946 8.28395 10.3619 8.41086 10.4886L9.62925 11.7072Z" fill="#D3585C"/>
<path d="M20.4831 9.49404L19.6164 8.85828C19.3885 8.69121 19.2246 8.4515 19.1516 8.17862C19.0785 7.90576 19.1005 7.61613 19.2143 7.35743L19.6471 6.37339L19.6469 6.37356C19.8062 6.01163 19.7834 5.59542 19.5857 5.25297C19.388 4.91055 19.0389 4.6827 18.646 4.63964L17.5774 4.52246C17.2966 4.49158 17.0346 4.36596 16.8348 4.16622C16.6351 3.96648 16.5095 3.70449 16.4788 3.42383L16.3616 2.35525H16.3614C16.3183 1.96212 16.0905 1.61319 15.7481 1.4154C15.4056 1.21778 14.9896 1.19486 14.6277 1.35413L13.6436 1.7869C13.3851 1.9005 13.0953 1.92276 12.8224 1.84963C12.5496 1.7765 12.3099 1.61252 12.1428 1.38466L11.507 0.517946C11.2731 0.199083 10.9013 0.0107422 10.5059 0.0107422C10.1105 0.0107422 9.73881 0.199099 9.50495 0.517946L8.86919 1.38466C8.70196 1.61251 8.46224 1.77649 8.18936 1.84963C7.9165 1.92276 7.62687 1.9005 7.36834 1.7869L6.3843 1.35413C6.02237 1.19486 5.60617 1.21761 5.26372 1.4154C4.92129 1.61318 4.69361 1.96213 4.65038 2.35508L4.5332 3.42383C4.50233 3.7045 4.3767 3.96648 4.17696 4.16622C3.97723 4.36596 3.7154 4.49158 3.43457 4.52246L2.36599 4.63964C1.97286 4.68271 1.62393 4.91055 1.42614 5.25297C1.22852 5.5954 1.20576 6.0116 1.36487 6.37356L1.79764 7.35759V7.35743C1.91141 7.61616 1.93351 7.90578 1.86037 8.17862C1.78724 8.45149 1.62326 8.6912 1.39556 8.85828L0.528688 9.49404C0.209825 9.72791 0.0214844 10.0998 0.0214844 10.4951C0.0214844 10.8905 0.209842 11.2624 0.528688 11.4962L1.3954 12.132H1.39556C1.62325 12.2991 1.78723 12.5388 1.86037 12.8116C1.9335 13.0845 1.9114 13.3741 1.79764 13.6328L1.36487 14.6169V14.6167C1.20576 14.9786 1.22851 15.3948 1.42614 15.7373C1.62392 16.0797 1.97286 16.3076 2.36599 16.3506L3.43456 16.4678C3.71523 16.4987 3.97722 16.6243 4.17696 16.824C4.3767 17.0238 4.50232 17.2858 4.5332 17.5666L4.65038 18.6352V18.635C4.69361 19.0282 4.92129 19.3771 5.26371 19.5749C5.60614 19.7725 6.02234 19.7953 6.3843 19.6361L7.36833 19.2034C7.6269 19.0898 7.91652 19.0675 8.18936 19.1406C8.46223 19.2138 8.70193 19.3778 8.86918 19.6056L9.50494 20.4723C9.73881 20.7912 10.1105 20.9795 10.5059 20.9795C10.9013 20.9795 11.2731 20.7912 11.507 20.4723L12.1428 19.6056C12.3098 19.3778 12.5496 19.2138 12.8224 19.1406C13.0953 19.0675 13.385 19.0898 13.6436 19.2034L14.6277 19.6361C14.9896 19.7954 15.4056 19.7725 15.7481 19.5749C16.0905 19.3771 16.3183 19.0281 16.3614 18.635L16.4786 17.5665L16.4787 17.5666C16.5095 17.2858 16.6351 17.0238 16.8348 16.824C17.0347 16.6243 17.2966 16.4987 17.5774 16.4678L18.646 16.3506C19.0389 16.3076 19.388 16.0797 19.5856 15.7373C19.7834 15.3949 19.8062 14.9787 19.6469 14.6167L19.2141 13.6327L19.2143 13.6328C19.1005 13.3741 19.0784 13.0845 19.1516 12.8116C19.2246 12.5388 19.3885 12.2991 19.6164 12.132L20.4831 11.4962C20.802 11.2624 20.9903 10.8905 20.9903 10.4951C20.9903 10.0998 20.8019 9.7279 20.4831 9.49404H20.4831ZM15.3241 10.9884C14.8502 14.9433 11.7687 16.4461 10.5059 16.6874C9.24324 16.4461 6.16191 14.9431 5.68762 10.9884L5.31854 7.90932C5.31155 7.85065 5.34243 7.79393 5.39541 7.76809L10.445 5.3048C10.4833 5.28611 10.5282 5.28611 10.5665 5.3048L15.6161 7.76809C15.6693 7.79393 15.7001 7.85065 15.693 7.90932L15.3241 10.9884ZM9.62925 11.7072L12.5755 8.76109C12.6872 8.6444 12.838 8.57273 12.9991 8.56006C13.1601 8.54722 13.3204 8.59402 13.4491 8.6917C13.5885 8.80481 13.6733 8.97172 13.6824 9.15114C13.6917 9.3304 13.6246 9.50527 13.4977 9.63217L10.0776 13.0522C9.95866 13.1712 9.79744 13.238 9.62925 13.238C9.46104 13.238 9.29983 13.1712 9.18104 13.0522L7.53961 11.4108C7.42292 11.299 7.35142 11.1483 7.33858 10.9872C7.32574 10.8262 7.37271 10.6661 7.47022 10.5372C7.5835 10.398 7.7504 10.3131 7.92983 10.3039C8.10908 10.2946 8.28395 10.3619 8.41086 10.4886L9.62925 11.7072Z" fill="url(#paint0_linear_137_2939)"/>
</g>
<defs>
<linearGradient id="paint0_linear_137_2939" x1="10.5059" y1="0.0107422" x2="10.5059" y2="20.9795" gradientUnits="userSpaceOnUse">
<stop stop-color="#BF4347"/>
<stop offset="1" stop-color="#D3585C" stop-opacity="0"/>
</linearGradient>
<clipPath id="clip0_137_2939">
<rect width="21" height="21" fill="white"/>
</clipPath>
</defs>
</svg>
