<svg width="32" height="18" viewBox="0 0 32 18" fill="none" xmlns="http://www.w3.org/2000/svg">
<g clip-path="url(#clip0_137_2923)">
<path d="M25.9586 11.5237C25.1739 11.5229 24.4256 11.8718 23.8989 12.4839C23.3718 13.0958 23.1154 13.9142 23.1928 14.7362C23.2702 15.5583 23.6744 16.3075 24.3054 16.7988H12.0063C12.6368 16.3076 13.0408 15.5586 13.1182 14.737C13.1956 13.9152 12.9396 13.0976 12.4131 12.4855C11.8868 11.8733 11.1391 11.5242 10.3548 11.5242C9.57056 11.5242 8.82307 11.8733 8.29653 12.4855C7.77024 13.0976 7.51405 13.9152 7.59164 14.737C7.66903 15.5586 8.07279 16.3075 8.70326 16.7988H3.83571C3.53337 16.7988 3.28809 17.0568 3.28809 17.3751C3.28809 17.6937 3.53337 17.9517 3.83571 17.9517H26.3284C26.6307 17.9517 26.876 17.6937 26.876 17.3751C26.8745 17.3218 26.8664 17.2688 26.851 17.2179C27.6903 16.9197 28.3441 16.218 28.6109 15.3285C28.8778 14.4393 28.7257 13.4694 28.2017 12.7176C27.6776 11.9655 26.8443 11.5221 25.9586 11.5237L25.9586 11.5237Z" fill="#D3585C"/>
<path d="M25.9586 11.5237C25.1739 11.5229 24.4256 11.8718 23.8989 12.4839C23.3718 13.0958 23.1154 13.9142 23.1928 14.7362C23.2702 15.5583 23.6744 16.3075 24.3054 16.7988H12.0063C12.6368 16.3076 13.0408 15.5586 13.1182 14.737C13.1956 13.9152 12.9396 13.0976 12.4131 12.4855C11.8868 11.8733 11.1391 11.5242 10.3548 11.5242C9.57056 11.5242 8.82307 11.8733 8.29653 12.4855C7.77024 13.0976 7.51405 13.9152 7.59164 14.737C7.66903 15.5586 8.07279 16.3075 8.70326 16.7988H3.83571C3.53337 16.7988 3.28809 17.0568 3.28809 17.3751C3.28809 17.6937 3.53337 17.9517 3.83571 17.9517H26.3284C26.6307 17.9517 26.876 17.6937 26.876 17.3751C26.8745 17.3218 26.8664 17.2688 26.851 17.2179C27.6903 16.9197 28.3441 16.218 28.6109 15.3285C28.8778 14.4393 28.7257 13.4694 28.2017 12.7176C27.6776 11.9655 26.8443 11.5221 25.9586 11.5237L25.9586 11.5237Z" fill="url(#paint0_linear_137_2923)"/>
<path d="M29.1592 1.85718H25.625V6.36082L31.6233 6.34568L29.1592 1.85718Z" fill="#D3585C"/>
<path d="M29.1592 1.85718H25.625V6.36082L31.6233 6.34568L29.1592 1.85718Z" fill="url(#paint1_linear_137_2923)"/>
<path d="M25.0807 7.51376C24.9324 7.51899 24.7885 7.46049 24.6819 7.35185C24.5752 7.24296 24.5152 7.09358 24.5152 6.93742V1.85718H19.9785V14.4475H22.4673C22.4673 13.128 23.1357 11.9086 24.2211 11.249C25.3064 10.5894 26.6434 10.5894 27.7287 11.249C28.8138 11.9086 29.4825 13.1279 29.4825 14.4475H31.9537L31.9534 7.49551L25.0807 7.51376Z" fill="#D3585C"/>
<path d="M25.0807 7.51376C24.9324 7.51899 24.7885 7.46049 24.6819 7.35185C24.5752 7.24296 24.5152 7.09358 24.5152 6.93742V1.85718H19.9785V14.4475H22.4673C22.4673 13.128 23.1357 11.9086 24.2211 11.249C25.3064 10.5894 26.6434 10.5894 27.7287 11.249C28.8138 11.9086 29.4825 13.1279 29.4825 14.4475H31.9537L31.9534 7.49551L25.0807 7.51376Z" fill="url(#paint2_linear_137_2923)"/>
<path d="M5.75736 4.67565H14.3301V7.24372H3.83736V14.4471H6.85247C6.85247 13.1275 7.52111 11.9082 8.60619 11.2486C9.69152 10.5889 11.0285 10.5889 12.1139 11.2486C13.1992 11.9082 13.8676 13.1275 13.8676 14.4471H18.0526V0.0336914H3.83038V3.52278H0.576916C0.274586 3.52278 0.0292969 3.78105 0.0292969 4.09938C0.0292969 4.41772 0.274586 4.67599 0.576916 4.67599L5.75736 4.67565ZM14.8774 9.8045C14.8774 10.1228 14.6321 10.3811 14.3297 10.3811H10.0845C9.78189 10.3811 9.53685 10.1228 9.53685 9.8045C9.53685 9.48617 9.78189 9.2279 10.0845 9.2279H14.3297C14.6321 9.2279 14.8774 9.48617 14.8774 9.8045Z" fill="#D3585C"/>
<path d="M5.75736 4.67565H14.3301V7.24372H3.83736V14.4471H6.85247C6.85247 13.1275 7.52111 11.9082 8.60619 11.2486C9.69152 10.5889 11.0285 10.5889 12.1139 11.2486C13.1992 11.9082 13.8676 13.1275 13.8676 14.4471H18.0526V0.0336914H3.83038V3.52278H0.576916C0.274586 3.52278 0.0292969 3.78105 0.0292969 4.09938C0.0292969 4.41772 0.274586 4.67599 0.576916 4.67599L5.75736 4.67565ZM14.8774 9.8045C14.8774 10.1228 14.6321 10.3811 14.3297 10.3811H10.0845C9.78189 10.3811 9.53685 10.1228 9.53685 9.8045C9.53685 9.48617 9.78189 9.2279 10.0845 9.2279H14.3297C14.6321 9.2279 14.8774 9.48617 14.8774 9.8045Z" fill="url(#paint3_linear_137_2923)"/>
</g>
<defs>
<linearGradient id="paint0_linear_137_2923" x1="16.014" y1="11.5237" x2="16.014" y2="17.9517" gradientUnits="userSpaceOnUse">
<stop stop-color="#BF4347"/>
<stop offset="1" stop-color="#D3585C" stop-opacity="0"/>
</linearGradient>
<linearGradient id="paint1_linear_137_2923" x1="28.6241" y1="1.85718" x2="28.6241" y2="6.36082" gradientUnits="userSpaceOnUse">
<stop stop-color="#BF4347"/>
<stop offset="1" stop-color="#D3585C" stop-opacity="0"/>
</linearGradient>
<linearGradient id="paint2_linear_137_2923" x1="25.9661" y1="1.85718" x2="25.9661" y2="14.4475" gradientUnits="userSpaceOnUse">
<stop stop-color="#BF4347"/>
<stop offset="1" stop-color="#D3585C" stop-opacity="0"/>
</linearGradient>
<linearGradient id="paint3_linear_137_2923" x1="9.04095" y1="0.0336914" x2="9.04095" y2="14.4471" gradientUnits="userSpaceOnUse">
<stop stop-color="#BF4347"/>
<stop offset="1" stop-color="#D3585C" stop-opacity="0"/>
</linearGradient>
<clipPath id="clip0_137_2923">
<rect width="32" height="18" fill="white"/>
</clipPath>
</defs>
</svg>
