<svg width="24" height="21" viewBox="0 0 24 21" fill="none" xmlns="http://www.w3.org/2000/svg">
<g clip-path="url(#clip0_137_2929)">
<path d="M19.752 5.68019V8.29043L20.8291 7.62318L23.9942 5.66336L20.8291 5.01294L19.752 5.68019Z" fill="#D3585C"/>
<path d="M19.752 5.68019V8.29043L20.8291 7.62318L23.9942 5.66336L20.8291 5.01294L19.752 5.68019Z" fill="url(#paint0_linear_137_2929)"/>
<path d="M3.19727 9.77725L0.0322266 11.7372L10.6601 13.9212L15.6984 10.8012V8.19092L10.6601 11.3108L3.19727 9.77725Z" fill="#D3585C"/>
<path d="M3.19727 9.77725L0.0322266 11.7372L10.6601 13.9212L15.6984 10.8012V8.19092L10.6601 11.3108L3.19727 9.77725Z" fill="url(#paint1_linear_137_2929)"/>
<path d="M15.5538 7.43224L5.11251 5.13281L0.0322266 8.27875L10.6601 10.4625L15.5538 7.43224Z" fill="#D3585C"/>
<path d="M15.5538 7.43224L5.11251 5.13281L0.0322266 8.27875L10.6601 10.4625L15.5538 7.43224Z" fill="url(#paint2_linear_137_2929)"/>
<path d="M23.9949 2.20498L13.367 0.0212402L9.27539 2.55509L19.7527 4.83223L23.9949 2.20498Z" fill="#D3585C"/>
<path d="M23.9949 2.20498L13.367 0.0212402L9.27539 2.55509L19.7527 4.83223L23.9949 2.20498Z" fill="url(#paint3_linear_137_2929)"/>
<path d="M3.19727 13.2411L0.0322266 15.2011L10.6601 17.3848L15.6984 14.265V11.6545L10.6601 14.7745L3.19727 13.2411Z" fill="#D3585C"/>
<path d="M3.19727 13.2411L0.0322266 15.2011L10.6601 17.3848L15.6984 14.265V11.6545L10.6601 14.7745L3.19727 13.2411Z" fill="url(#paint4_linear_137_2929)"/>
<path d="M19.752 9.14381V11.7541L23.9942 9.12698L20.8291 8.47656L19.752 9.14381Z" fill="#D3585C"/>
<path d="M19.752 9.14381V11.7541L23.9942 9.12698L20.8291 8.47656L19.752 9.14381Z" fill="url(#paint5_linear_137_2929)"/>
<path d="M19.752 12.7273V15.3376L23.9942 12.7105L20.8291 12.0601L19.752 12.7273Z" fill="#D3585C"/>
<path d="M19.752 12.7273V15.3376L23.9942 12.7105L20.8291 12.0601L19.752 12.7273Z" fill="url(#paint6_linear_137_2929)"/>
<path d="M3.19727 16.8231L0.0322266 18.7831L10.6601 20.9669L15.6984 17.847V15.2366L10.6601 18.3566L3.19727 16.8231Z" fill="#D3585C"/>
<path d="M3.19727 16.8231L0.0322266 18.7831L10.6601 20.9669L15.6984 17.847V15.2366L10.6601 18.3566L3.19727 16.8231Z" fill="url(#paint7_linear_137_2929)"/>
</g>
<defs>
<linearGradient id="paint0_linear_137_2929" x1="21.8731" y1="5.01294" x2="21.8731" y2="8.29043" gradientUnits="userSpaceOnUse">
<stop stop-color="#BF4347"/>
<stop offset="1" stop-color="#D3585C" stop-opacity="0"/>
</linearGradient>
<linearGradient id="paint1_linear_137_2929" x1="7.8653" y1="8.19092" x2="7.8653" y2="13.9212" gradientUnits="userSpaceOnUse">
<stop stop-color="#BF4347"/>
<stop offset="1" stop-color="#D3585C" stop-opacity="0"/>
</linearGradient>
<linearGradient id="paint2_linear_137_2929" x1="7.79303" y1="5.13281" x2="7.79303" y2="10.4625" gradientUnits="userSpaceOnUse">
<stop stop-color="#BF4347"/>
<stop offset="1" stop-color="#D3585C" stop-opacity="0"/>
</linearGradient>
<linearGradient id="paint3_linear_137_2929" x1="16.6351" y1="0.0212402" x2="16.6351" y2="4.83223" gradientUnits="userSpaceOnUse">
<stop stop-color="#BF4347"/>
<stop offset="1" stop-color="#D3585C" stop-opacity="0"/>
</linearGradient>
<linearGradient id="paint4_linear_137_2929" x1="7.8653" y1="11.6545" x2="7.8653" y2="17.3848" gradientUnits="userSpaceOnUse">
<stop stop-color="#BF4347"/>
<stop offset="1" stop-color="#D3585C" stop-opacity="0"/>
</linearGradient>
<linearGradient id="paint5_linear_137_2929" x1="21.8731" y1="8.47656" x2="21.8731" y2="11.7541" gradientUnits="userSpaceOnUse">
<stop stop-color="#BF4347"/>
<stop offset="1" stop-color="#D3585C" stop-opacity="0"/>
</linearGradient>
<linearGradient id="paint6_linear_137_2929" x1="21.8731" y1="12.0601" x2="21.8731" y2="15.3376" gradientUnits="userSpaceOnUse">
<stop stop-color="#BF4347"/>
<stop offset="1" stop-color="#D3585C" stop-opacity="0"/>
</linearGradient>
<linearGradient id="paint7_linear_137_2929" x1="7.8653" y1="15.2366" x2="7.8653" y2="20.9669" gradientUnits="userSpaceOnUse">
<stop stop-color="#BF4347"/>
<stop offset="1" stop-color="#D3585C" stop-opacity="0"/>
</linearGradient>
<clipPath id="clip0_137_2929">
<rect width="24" height="21" fill="white"/>
</clipPath>
</defs>
</svg>
