<svg width="40" height="40" viewBox="0 0 40 40" fill="none" xmlns="http://www.w3.org/2000/svg">
<g clip-path="url(#clip0_85_5874)">
<path d="M33.129 14.4497C32.9517 16.5787 31.4435 18.6192 29.3145 18.6192H28.8708C29.536 17.1996 29.8909 15.6032 29.8909 13.9176C29.8909 12.7199 29.7136 11.5668 29.3587 10.4579H30.9113C29.2699 5.48987 24.879 1.85298 19.7338 1.80863C14.5885 1.85287 10.1974 5.44591 8.55629 10.4579H10.2861C9.93126 11.5225 9.75397 12.7199 9.75397 13.9176C9.75397 15.5587 10.1089 17.2 10.7741 18.6192H10.1531C8.02414 18.6192 6.47162 16.5345 6.33856 14.4497C5.7176 6.77665 12.1936 0.122968 19.7338 0.0786133C27.2741 0.123167 33.7501 6.77641 33.1291 14.4497H33.129ZM21.1531 17.6433C21.7298 17.6433 22.2177 17.9094 22.4839 18.353H27.097C27.8067 17.0669 28.1616 15.5586 28.1616 13.9175C28.1616 9.34892 24.5689 4.95776 19.8228 4.95776C14.1011 4.95776 10.4195 10.9901 11.7501 16.2683C12.6817 19.9498 15.9196 22.9216 19.8228 22.9216C22.2178 22.9216 24.3471 21.8127 25.8551 20.0829H22.4842C22.2181 20.5266 21.7302 20.7926 21.1534 20.7926C20.2664 20.7926 19.5566 20.0829 19.5566 19.1959C19.6009 18.353 20.3106 17.6433 21.1531 17.6433V17.6433ZM38.4073 31.97C37.6533 27.9782 34.149 25.0507 30.0242 25.0507H27.0082L22.1289 36.6274L21.1531 27.7563L22.0401 25.0507H17.8707L18.7577 27.7563L17.7819 36.6274L12.9027 25.0507H9.88666C5.80598 25.0507 2.30176 27.9336 1.50352 31.97L0.0400391 39.954H39.9597L38.4073 31.97Z" fill="#D3585C"/>
<path d="M33.129 14.4497C32.9517 16.5787 31.4435 18.6192 29.3145 18.6192H28.8708C29.536 17.1996 29.8909 15.6032 29.8909 13.9176C29.8909 12.7199 29.7136 11.5668 29.3587 10.4579H30.9113C29.2699 5.48987 24.879 1.85298 19.7338 1.80863C14.5885 1.85287 10.1974 5.44591 8.55629 10.4579H10.2861C9.93126 11.5225 9.75397 12.7199 9.75397 13.9176C9.75397 15.5587 10.1089 17.2 10.7741 18.6192H10.1531C8.02414 18.6192 6.47162 16.5345 6.33856 14.4497C5.7176 6.77665 12.1936 0.122968 19.7338 0.0786133C27.2741 0.123167 33.7501 6.77641 33.1291 14.4497H33.129ZM21.1531 17.6433C21.7298 17.6433 22.2177 17.9094 22.4839 18.353H27.097C27.8067 17.0669 28.1616 15.5586 28.1616 13.9175C28.1616 9.34892 24.5689 4.95776 19.8228 4.95776C14.1011 4.95776 10.4195 10.9901 11.7501 16.2683C12.6817 19.9498 15.9196 22.9216 19.8228 22.9216C22.2178 22.9216 24.3471 21.8127 25.8551 20.0829H22.4842C22.2181 20.5266 21.7302 20.7926 21.1534 20.7926C20.2664 20.7926 19.5566 20.0829 19.5566 19.1959C19.6009 18.353 20.3106 17.6433 21.1531 17.6433V17.6433ZM38.4073 31.97C37.6533 27.9782 34.149 25.0507 30.0242 25.0507H27.0082L22.1289 36.6274L21.1531 27.7563L22.0401 25.0507H17.8707L18.7577 27.7563L17.7819 36.6274L12.9027 25.0507H9.88666C5.80598 25.0507 2.30176 27.9336 1.50352 31.97L0.0400391 39.954H39.9597L38.4073 31.97Z" fill="url(#paint0_linear_85_5874)"/>
</g>
<defs>
<linearGradient id="paint0_linear_85_5874" x1="19.9999" y1="0.0786133" x2="19.9999" y2="39.954" gradientUnits="userSpaceOnUse">
<stop stop-color="#BF4347"/>
<stop offset="1" stop-color="#D3585C" stop-opacity="0"/>
</linearGradient>
<clipPath id="clip0_85_5874">
<rect width="40" height="40" fill="white"/>
</clipPath>
</defs>
</svg>
