<svg width="70" height="70" viewBox="0 0 70 70" fill="none" xmlns="http://www.w3.org/2000/svg">
<g clip-path="url(#clip0_162_776)">
<path d="M3.60104 3.82211H39.1095V23.3486H42.4913V2.13028C42.4913 1.20302 41.7276 0.439453 40.8004 0.439453H1.90958C0.982317 0.439453 0.21875 1.20308 0.21875 2.13028V53.1295C0.21875 54.0567 0.98238 54.8203 1.90958 54.8203H31.3638V51.4385H3.60016L3.60104 3.82211Z" fill="#D3585C"/>
<path d="M3.60104 3.82211H39.1095V23.3486H42.4913V2.13028C42.4913 1.20302 41.7276 0.439453 40.8004 0.439453H1.90958C0.982317 0.439453 0.21875 1.20308 0.21875 2.13028V53.1295C0.21875 54.0567 0.98238 54.8203 1.90958 54.8203H31.3638V51.4385H3.60016L3.60104 3.82211Z" fill="url(#paint0_linear_162_776)"/>
<path d="M6.32861 13.4756H36.4374V19.53H6.32861V13.4756Z" fill="#D3585C"/>
<path d="M6.32861 13.4756H36.4374V19.53H6.32861V13.4756Z" fill="url(#paint1_linear_162_776)"/>
<path d="M6.32861 31.04H31.3644V34.4218H6.32861V31.04Z" fill="#D3585C"/>
<path d="M6.32861 31.04H31.3644V34.4218H6.32861V31.04Z" fill="url(#paint2_linear_162_776)"/>
<path d="M6.32861 23.6221H31.4193V27.0039H6.32861V23.6221Z" fill="#D3585C"/>
<path d="M6.32861 23.6221H31.4193V27.0039H6.32861V23.6221Z" fill="url(#paint3_linear_162_776)"/>
<path d="M6.32861 38.459H31.3644V41.8408H6.32861V38.459Z" fill="#D3585C"/>
<path d="M6.32861 38.459H31.3644V41.8408H6.32861V38.459Z" fill="url(#paint4_linear_162_776)"/>
<path d="M67.5815 26.0225H35.7821C34.8549 26.0225 34.0913 26.7861 34.0913 27.7133V67.6402C34.0913 68.622 34.8549 69.4402 35.7821 69.4402H67.6364C68.5636 69.4402 69.3272 68.6221 69.3272 67.6402V27.7681C69.2727 26.7863 68.509 26.0227 67.5818 26.0227L67.5815 26.0225ZM50.2905 63.4397H40.1451V60.7124H50.345V63.4397H50.2905ZM50.2905 57.9852H40.1451V55.2579H50.345V57.9852H50.2905ZM50.2905 48.8216H46.5268V52.5853H43.7996V48.8216H40.0359V46.0944H43.7996V42.3307H46.5268V46.0944H50.2905V48.8216ZM63.1631 60.7124H53.0177V57.9852H63.2176V60.7124H63.1631ZM53.0177 44.2941L54.9813 42.3305L58.1449 45.4941L61.3085 42.3305L63.2176 44.2395L60.0539 47.4031L63.2176 50.5667L61.3085 52.4757L58.1449 49.3121L54.9813 52.4757L53.0177 50.5121L56.1813 47.3485L53.0177 44.2941ZM65.8903 36.3305H37.4172V29.4034H65.8903V36.3305Z" fill="#D3585C"/>
<path d="M67.5815 26.0225H35.7821C34.8549 26.0225 34.0913 26.7861 34.0913 27.7133V67.6402C34.0913 68.622 34.8549 69.4402 35.7821 69.4402H67.6364C68.5636 69.4402 69.3272 68.6221 69.3272 67.6402V27.7681C69.2727 26.7863 68.509 26.0227 67.5818 26.0227L67.5815 26.0225ZM50.2905 63.4397H40.1451V60.7124H50.345V63.4397H50.2905ZM50.2905 57.9852H40.1451V55.2579H50.345V57.9852H50.2905ZM50.2905 48.8216H46.5268V52.5853H43.7996V48.8216H40.0359V46.0944H43.7996V42.3307H46.5268V46.0944H50.2905V48.8216ZM63.1631 60.7124H53.0177V57.9852H63.2176V60.7124H63.1631ZM53.0177 44.2941L54.9813 42.3305L58.1449 45.4941L61.3085 42.3305L63.2176 44.2395L60.0539 47.4031L63.2176 50.5667L61.3085 52.4757L58.1449 49.3121L54.9813 52.4757L53.0177 50.5121L56.1813 47.3485L53.0177 44.2941ZM65.8903 36.3305H37.4172V29.4034H65.8903V36.3305Z" fill="url(#paint5_linear_162_776)"/>
</g>
<defs>
<linearGradient id="paint0_linear_162_776" x1="21.355" y1="0.439453" x2="21.355" y2="54.8203" gradientUnits="userSpaceOnUse">
<stop stop-color="#BF4347"/>
<stop offset="1" stop-color="#D3585C" stop-opacity="0"/>
</linearGradient>
<linearGradient id="paint1_linear_162_776" x1="21.383" y1="13.4756" x2="21.383" y2="19.53" gradientUnits="userSpaceOnUse">
<stop stop-color="#BF4347"/>
<stop offset="1" stop-color="#D3585C" stop-opacity="0"/>
</linearGradient>
<linearGradient id="paint2_linear_162_776" x1="18.8465" y1="31.04" x2="18.8465" y2="34.4218" gradientUnits="userSpaceOnUse">
<stop stop-color="#BF4347"/>
<stop offset="1" stop-color="#D3585C" stop-opacity="0"/>
</linearGradient>
<linearGradient id="paint3_linear_162_776" x1="18.8739" y1="23.6221" x2="18.8739" y2="27.0039" gradientUnits="userSpaceOnUse">
<stop stop-color="#BF4347"/>
<stop offset="1" stop-color="#D3585C" stop-opacity="0"/>
</linearGradient>
<linearGradient id="paint4_linear_162_776" x1="18.8465" y1="38.459" x2="18.8465" y2="41.8408" gradientUnits="userSpaceOnUse">
<stop stop-color="#BF4347"/>
<stop offset="1" stop-color="#D3585C" stop-opacity="0"/>
</linearGradient>
<linearGradient id="paint5_linear_162_776" x1="51.7093" y1="26.0225" x2="51.7093" y2="69.4402" gradientUnits="userSpaceOnUse">
<stop stop-color="#BF4347"/>
<stop offset="1" stop-color="#D3585C" stop-opacity="0"/>
</linearGradient>
<clipPath id="clip0_162_776">
<rect width="70" height="70" fill="white"/>
</clipPath>
</defs>
</svg>
