<svg width="70" height="70" viewBox="0 0 70 70" fill="none" xmlns="http://www.w3.org/2000/svg">
<g clip-path="url(#clip0_201_1299)">
<path d="M24.1259 42.7827C24.121 37.4205 21.8593 32.3082 17.8946 28.6987C13.4292 24.6308 10.8815 18.8716 10.8761 12.8307V0.102539H6.05804C5.39287 0.102539 4.85352 0.64189 4.85352 1.30706V20.1513L16.4363 34.406C19.0626 37.6399 20.7812 41.5149 21.4158 45.6323C22.3208 51.4715 25.6322 56.6634 30.5448 59.9461L31.353 60.4844V53.7391L29.2393 52.3297V52.3303C26.043 50.2041 24.1233 46.619 24.1259 42.7807L24.1259 42.7827Z" fill="black"/>
<path d="M24.1259 42.7827C24.121 37.4205 21.8593 32.3082 17.8946 28.6987C13.4292 24.6308 10.8815 18.8716 10.8761 12.8307V0.102539H6.05804C5.39287 0.102539 4.85352 0.64189 4.85352 1.30706V20.1513L16.4363 34.406C19.0626 37.6399 20.7812 41.5149 21.4158 45.6323C22.3208 51.4715 25.6322 56.6634 30.5448 59.9461L31.353 60.4844V53.7391L29.2393 52.3297V52.3303C26.043 50.2041 24.1233 46.619 24.1259 42.7807L24.1259 42.7827Z" fill="#D3585C"/>
<path d="M24.1259 42.7827C24.121 37.4205 21.8593 32.3082 17.8946 28.6987C13.4292 24.6308 10.8815 18.8716 10.8761 12.8307V0.102539H6.05804C5.39287 0.102539 4.85352 0.64189 4.85352 1.30706V20.1513L16.4363 34.406C19.0626 37.6399 20.7812 41.5149 21.4158 45.6323C22.3208 51.4715 25.6322 56.6634 30.5448 59.9461L31.353 60.4844V53.7391L29.2393 52.3297V52.3303C26.043 50.2041 24.1233 46.619 24.1259 42.7807L24.1259 42.7827Z" fill="url(#paint0_linear_201_1299)"/>
<path d="M19.0347 46.0011C18.4652 42.3063 16.9235 38.8287 14.5667 35.9266L4.85352 23.9717V34.3898L7.16744 35.9325C12.5001 39.4789 15.7018 45.4606 15.6942 51.8653C15.6958 54.8277 16.4825 57.7373 17.9741 60.2969L23.6128 69.9653H30.1485C30.4679 69.9653 30.7744 69.8384 31.0003 69.6126C31.2261 69.3867 31.353 69.0802 31.353 68.7608V63.3824L29.2091 61.9537V61.9542C26.5011 60.1443 24.1986 57.7922 22.4466 55.0459C20.6951 52.2997 19.5331 49.2201 19.0347 46.0012V46.0011Z" fill="black"/>
<path d="M19.0347 46.0011C18.4652 42.3063 16.9235 38.8287 14.5667 35.9266L4.85352 23.9717V34.3898L7.16744 35.9325C12.5001 39.4789 15.7018 45.4606 15.6942 51.8653C15.6958 54.8277 16.4825 57.7373 17.9741 60.2969L23.6128 69.9653H30.1485C30.4679 69.9653 30.7744 69.8384 31.0003 69.6126C31.2261 69.3867 31.353 69.0802 31.353 68.7608V63.3824L29.2091 61.9537V61.9542C26.5011 60.1443 24.1986 57.7922 22.4466 55.0459C20.6951 52.2997 19.5331 49.2201 19.0347 46.0012V46.0011Z" fill="#D3585C"/>
<path d="M19.0347 46.0011C18.4652 42.3063 16.9235 38.8287 14.5667 35.9266L4.85352 23.9717V34.3898L7.16744 35.9325C12.5001 39.4789 15.7018 45.4606 15.6942 51.8653C15.6958 54.8277 16.4825 57.7373 17.9741 60.2969L23.6128 69.9653H30.1485C30.4679 69.9653 30.7744 69.8384 31.0003 69.6126C31.2261 69.3867 31.353 69.0802 31.353 68.7608V63.3824L29.2091 61.9537V61.9542C26.5011 60.1443 24.1986 57.7922 22.4466 55.0459C20.6951 52.2997 19.5331 49.2201 19.0347 46.0012V46.0011Z" fill="url(#paint1_linear_201_1299)"/>
<path d="M22.3589 19.2361C20.7145 18.4209 19.3309 17.1605 18.3662 15.5989C17.401 14.0373 16.8928 12.237 16.8987 10.4011V0.102539H13.2852V12.8307C13.29 18.193 15.5517 23.3052 19.5165 26.9147C23.9819 30.9827 26.5295 36.7418 26.5349 42.7827C26.5317 45.8166 28.0486 48.651 30.5749 50.3314L31.353 50.8503V32.9325L25.5713 22.3398V22.3403C24.8438 21.0008 23.7226 19.9178 22.3589 19.237L22.3589 19.2361Z" fill="black"/>
<path d="M22.3589 19.2361C20.7145 18.4209 19.3309 17.1605 18.3662 15.5989C17.401 14.0373 16.8928 12.237 16.8987 10.4011V0.102539H13.2852V12.8307C13.29 18.193 15.5517 23.3052 19.5165 26.9147C23.9819 30.9827 26.5295 36.7418 26.5349 42.7827C26.5317 45.8166 28.0486 48.651 30.5749 50.3314L31.353 50.8503V32.9325L25.5713 22.3398V22.3403C24.8438 21.0008 23.7226 19.9178 22.3589 19.237L22.3589 19.2361Z" fill="#D3585C"/>
<path d="M22.3589 19.2361C20.7145 18.4209 19.3309 17.1605 18.3662 15.5989C17.401 14.0373 16.8928 12.237 16.8987 10.4011V0.102539H13.2852V12.8307C13.29 18.193 15.5517 23.3052 19.5165 26.9147C23.9819 30.9827 26.5295 36.7418 26.5349 42.7827C26.5317 45.8166 28.0486 48.651 30.5749 50.3314L31.353 50.8503V32.9325L25.5713 22.3398V22.3403C24.8438 21.0008 23.7226 19.9178 22.3589 19.237L22.3589 19.2361Z" fill="url(#paint2_linear_201_1299)"/>
<path d="M8.46711 61.5707C8.46873 60.2317 8.05037 58.9255 7.26958 57.8367L4.85352 54.4521V68.7605C4.85352 69.0799 4.98042 69.3864 5.20627 69.6123C5.43212 69.8381 5.73863 69.965 6.05804 69.965H13.5718L11.6445 68.3605C9.62701 66.6838 8.46227 64.1941 8.46709 61.5705L8.46711 61.5707Z" fill="black"/>
<path d="M8.46711 61.5707C8.46873 60.2317 8.05037 58.9255 7.26958 57.8367L4.85352 54.4521V68.7605C4.85352 69.0799 4.98042 69.3864 5.20627 69.6123C5.43212 69.8381 5.73863 69.965 6.05804 69.965H13.5718L11.6445 68.3605C9.62701 66.6838 8.46227 64.1941 8.46709 61.5705L8.46711 61.5707Z" fill="#D3585C"/>
<path d="M8.46711 61.5707C8.46873 60.2317 8.05037 58.9255 7.26958 57.8367L4.85352 54.4521V68.7605C4.85352 69.0799 4.98042 69.3864 5.20627 69.6123C5.43212 69.8381 5.73863 69.965 6.05804 69.965H13.5718L11.6445 68.3605C9.62701 66.6838 8.46227 64.1941 8.46709 61.5705L8.46711 61.5707Z" fill="url(#paint3_linear_201_1299)"/>
<path d="M0.0351562 4.9209H2.4442V65.1471H0.0351562V4.9209Z" fill="black"/>
<path d="M0.0351562 4.9209H2.4442V65.1471H0.0351562V4.9209Z" fill="#D3585C"/>
<path d="M0.0351562 4.9209H2.4442V65.1471H0.0351562V4.9209Z" fill="url(#paint4_linear_201_1299)"/>
<path d="M33.7617 4.9209H36.1708V65.1471H33.7617V4.9209Z" fill="black"/>
<path d="M33.7617 4.9209H36.1708V65.1471H33.7617V4.9209Z" fill="#D3585C"/>
<path d="M33.7617 4.9209H36.1708V65.1471H33.7617V4.9209Z" fill="url(#paint5_linear_201_1299)"/>
<path d="M13.2852 51.8658C13.2917 46.2669 10.4934 41.038 5.83166 37.9373L4.85352 37.2861V50.3068L9.22958 56.4343C10.3029 57.9319 10.8793 59.7291 10.8761 61.5712C10.8734 63.4802 11.722 65.2908 13.1901 66.5098L17.3349 69.9657H20.828L15.8981 61.5137C14.1886 58.5853 13.2874 55.2561 13.2853 51.8657L13.2852 51.8658Z" fill="black"/>
<path d="M13.2852 51.8658C13.2917 46.2669 10.4934 41.038 5.83166 37.9373L4.85352 37.2861V50.3068L9.22958 56.4343C10.3029 57.9319 10.8793 59.7291 10.8761 61.5712C10.8734 63.4802 11.722 65.2908 13.1901 66.5098L17.3349 69.9657H20.828L15.8981 61.5137C14.1886 58.5853 13.2874 55.2561 13.2853 51.8657L13.2852 51.8658Z" fill="#D3585C"/>
<path d="M13.2852 51.8658C13.2917 46.2669 10.4934 41.038 5.83166 37.9373L4.85352 37.2861V50.3068L9.22958 56.4343C10.3029 57.9319 10.8793 59.7291 10.8761 61.5712C10.8734 63.4802 11.722 65.2908 13.1901 66.5098L17.3349 69.9657H20.828L15.8981 61.5137C14.1886 58.5853 13.2874 55.2561 13.2853 51.8657L13.2852 51.8658Z" fill="url(#paint6_linear_201_1299)"/>
<path d="M30.1474 0.102539H19.3067V10.4011C19.3008 11.7901 19.6847 13.1527 20.4144 14.3346C21.1447 15.516 22.1911 16.4695 23.4359 17.0862C25.2396 17.9831 26.7242 19.4129 27.6889 21.1816L31.3519 27.9006V1.30748C31.3519 0.988063 31.225 0.68155 30.9992 0.455705C30.7733 0.229861 30.4668 0.102952 30.1474 0.102952L30.1474 0.102539Z" fill="black"/>
<path d="M30.1474 0.102539H19.3067V10.4011C19.3008 11.7901 19.6847 13.1527 20.4144 14.3346C21.1447 15.516 22.1911 16.4695 23.4359 17.0862C25.2396 17.9831 26.7242 19.4129 27.6889 21.1816L31.3519 27.9006V1.30748C31.3519 0.988063 31.225 0.68155 30.9992 0.455705C30.7733 0.229861 30.4668 0.102952 30.1474 0.102952L30.1474 0.102539Z" fill="#D3585C"/>
<path d="M30.1474 0.102539H19.3067V10.4011C19.3008 11.7901 19.6847 13.1527 20.4144 14.3346C21.1447 15.516 22.1911 16.4695 23.4359 17.0862C25.2396 17.9831 26.7242 19.4129 27.6889 21.1816L31.3519 27.9006V1.30748C31.3519 0.988063 31.225 0.68155 30.9992 0.455705C30.7733 0.229861 30.4668 0.102952 30.1474 0.102952L30.1474 0.102539Z" fill="url(#paint7_linear_201_1299)"/>
<path d="M42.1937 61.5707C42.1953 60.2317 41.7769 58.9255 40.9961 57.8367L38.5801 54.4521V68.7605C38.5801 69.0799 38.707 69.3864 38.9328 69.6123C39.1587 69.8381 39.4652 69.965 39.7846 69.965H47.2983L45.3711 68.3605C43.3536 66.6838 42.1888 64.1941 42.1936 61.5705L42.1937 61.5707Z" fill="black"/>
<path d="M42.1937 61.5707C42.1953 60.2317 41.7769 58.9255 40.9961 57.8367L38.5801 54.4521V68.7605C38.5801 69.0799 38.707 69.3864 38.9328 69.6123C39.1587 69.8381 39.4652 69.965 39.7846 69.965H47.2983L45.3711 68.3605C43.3536 66.6838 42.1888 64.1941 42.1936 61.5705L42.1937 61.5707Z" fill="#D3585C"/>
<path d="M42.1937 61.5707C42.1953 60.2317 41.7769 58.9255 40.9961 57.8367L38.5801 54.4521V68.7605C38.5801 69.0799 38.707 69.3864 38.9328 69.6123C39.1587 69.8381 39.4652 69.965 39.7846 69.965H47.2983L45.3711 68.3605C43.3536 66.6838 42.1888 64.1941 42.1936 61.5705L42.1937 61.5707Z" fill="url(#paint8_linear_201_1299)"/>
<path d="M63.874 0.102539H53.0333V10.4011C53.0274 11.7901 53.4113 13.1527 54.141 14.3346C54.8712 15.516 55.9176 16.4695 57.1625 17.0862C58.9661 17.9831 60.4508 19.4129 61.4155 21.1816L65.0785 27.9006V1.30748C65.0785 0.988063 64.9516 0.68155 64.7257 0.455705C64.4999 0.229861 64.1934 0.102952 63.874 0.102952L63.874 0.102539Z" fill="black"/>
<path d="M63.874 0.102539H53.0333V10.4011C53.0274 11.7901 53.4113 13.1527 54.141 14.3346C54.8712 15.516 55.9176 16.4695 57.1625 17.0862C58.9661 17.9831 60.4508 19.4129 61.4155 21.1816L65.0785 27.9006V1.30748C65.0785 0.988063 64.9516 0.68155 64.7257 0.455705C64.4999 0.229861 64.1934 0.102952 63.874 0.102952L63.874 0.102539Z" fill="#D3585C"/>
<path d="M63.874 0.102539H53.0333V10.4011C53.0274 11.7901 53.4113 13.1527 54.141 14.3346C54.8712 15.516 55.9176 16.4695 57.1625 17.0862C58.9661 17.9831 60.4508 19.4129 61.4155 21.1816L65.0785 27.9006V1.30748C65.0785 0.988063 64.9516 0.68155 64.7257 0.455705C64.4999 0.229861 64.1934 0.102952 63.874 0.102952L63.874 0.102539Z" fill="url(#paint9_linear_201_1299)"/>
<path d="M67.4883 4.9209H69.8973V65.1471H67.4883V4.9209Z" fill="black"/>
<path d="M67.4883 4.9209H69.8973V65.1471H67.4883V4.9209Z" fill="#D3585C"/>
<path d="M67.4883 4.9209H69.8973V65.1471H67.4883V4.9209Z" fill="url(#paint10_linear_201_1299)"/>
<path d="M56.0854 19.2361C54.4411 18.4209 53.0575 17.1605 52.0927 15.5989C51.1275 14.0373 50.6194 12.237 50.6253 10.4011V0.102539H47.0117V12.8307C47.0166 18.193 49.2783 23.3052 53.243 26.9147C57.7084 30.9827 60.2561 36.7418 60.2615 42.7827C60.2582 45.8166 61.7752 48.651 64.3015 50.3314L65.0796 50.8503V32.9325L59.2979 22.3398V22.3403C58.5703 21.0008 57.4491 19.9178 56.0855 19.237L56.0854 19.2361Z" fill="black"/>
<path d="M56.0854 19.2361C54.4411 18.4209 53.0575 17.1605 52.0927 15.5989C51.1275 14.0373 50.6194 12.237 50.6253 10.4011V0.102539H47.0117V12.8307C47.0166 18.193 49.2783 23.3052 53.243 26.9147C57.7084 30.9827 60.2561 36.7418 60.2615 42.7827C60.2582 45.8166 61.7752 48.651 64.3015 50.3314L65.0796 50.8503V32.9325L59.2979 22.3398V22.3403C58.5703 21.0008 57.4491 19.9178 56.0855 19.237L56.0854 19.2361Z" fill="#D3585C"/>
<path d="M56.0854 19.2361C54.4411 18.4209 53.0575 17.1605 52.0927 15.5989C51.1275 14.0373 50.6194 12.237 50.6253 10.4011V0.102539H47.0117V12.8307C47.0166 18.193 49.2783 23.3052 53.243 26.9147C57.7084 30.9827 60.2561 36.7418 60.2615 42.7827C60.2582 45.8166 61.7752 48.651 64.3015 50.3314L65.0796 50.8503V32.9325L59.2979 22.3398V22.3403C58.5703 21.0008 57.4491 19.9178 56.0855 19.237L56.0854 19.2361Z" fill="url(#paint11_linear_201_1299)"/>
<path d="M57.8524 42.7827C57.8476 37.4205 55.5859 32.3082 51.6211 28.6987C47.1557 24.6308 44.6081 18.8716 44.6027 12.8307V0.102539H39.7846C39.1194 0.102539 38.5801 0.64189 38.5801 1.30706V20.1513L50.1629 34.406C52.7892 37.6399 54.5077 41.5149 55.1423 45.6323C56.0473 51.4715 59.3587 56.6634 64.2714 59.9461L65.0796 60.4844V53.7391L62.9658 52.3297V52.3303C59.7695 50.2041 57.8498 46.619 57.8525 42.7807L57.8524 42.7827Z" fill="black"/>
<path d="M57.8524 42.7827C57.8476 37.4205 55.5859 32.3082 51.6211 28.6987C47.1557 24.6308 44.6081 18.8716 44.6027 12.8307V0.102539H39.7846C39.1194 0.102539 38.5801 0.64189 38.5801 1.30706V20.1513L50.1629 34.406C52.7892 37.6399 54.5077 41.5149 55.1423 45.6323C56.0473 51.4715 59.3587 56.6634 64.2714 59.9461L65.0796 60.4844V53.7391L62.9658 52.3297V52.3303C59.7695 50.2041 57.8498 46.619 57.8525 42.7807L57.8524 42.7827Z" fill="#D3585C"/>
<path d="M57.8524 42.7827C57.8476 37.4205 55.5859 32.3082 51.6211 28.6987C47.1557 24.6308 44.6081 18.8716 44.6027 12.8307V0.102539H39.7846C39.1194 0.102539 38.5801 0.64189 38.5801 1.30706V20.1513L50.1629 34.406C52.7892 37.6399 54.5077 41.5149 55.1423 45.6323C56.0473 51.4715 59.3587 56.6634 64.2714 59.9461L65.0796 60.4844V53.7391L62.9658 52.3297V52.3303C59.7695 50.2041 57.8498 46.619 57.8525 42.7807L57.8524 42.7827Z" fill="url(#paint12_linear_201_1299)"/>
<path d="M47.0118 51.8658C47.0183 46.2669 44.2199 41.038 39.5582 37.9373L38.5801 37.2861V50.3068L42.9561 56.4343C44.0295 57.9319 44.6059 59.7291 44.6027 61.5712C44.6 63.4802 45.4485 65.2908 46.9166 66.5098L51.0614 69.9657H54.5545L49.6247 61.5137C47.9152 58.5853 47.0139 55.2561 47.0119 51.8657L47.0118 51.8658Z" fill="black"/>
<path d="M47.0118 51.8658C47.0183 46.2669 44.2199 41.038 39.5582 37.9373L38.5801 37.2861V50.3068L42.9561 56.4343C44.0295 57.9319 44.6059 59.7291 44.6027 61.5712C44.6 63.4802 45.4485 65.2908 46.9166 66.5098L51.0614 69.9657H54.5545L49.6247 61.5137C47.9152 58.5853 47.0139 55.2561 47.0119 51.8657L47.0118 51.8658Z" fill="#D3585C"/>
<path d="M47.0118 51.8658C47.0183 46.2669 44.2199 41.038 39.5582 37.9373L38.5801 37.2861V50.3068L42.9561 56.4343C44.0295 57.9319 44.6059 59.7291 44.6027 61.5712C44.6 63.4802 45.4485 65.2908 46.9166 66.5098L51.0614 69.9657H54.5545L49.6247 61.5137C47.9152 58.5853 47.0139 55.2561 47.0119 51.8657L47.0118 51.8658Z" fill="url(#paint13_linear_201_1299)"/>
<path d="M52.7612 46.0011C52.1918 42.3063 50.6501 38.8287 48.2932 35.9266L38.5801 23.9717V34.3898L40.894 35.9325C46.2267 39.4789 49.4284 45.4606 49.4208 51.8653C49.4224 54.8277 50.2091 57.7373 51.7007 60.2969L57.3394 69.9653H63.8751C64.1945 69.9653 64.501 69.8384 64.7268 69.6126C64.9527 69.3867 65.0796 69.0802 65.0796 68.7608V63.3824L62.9357 61.9537V61.9542C60.2276 60.1443 57.9251 57.7922 56.1731 55.0459C54.4217 52.2997 53.2597 49.2201 52.7612 46.0012V46.0011Z" fill="black"/>
<path d="M52.7612 46.0011C52.1918 42.3063 50.6501 38.8287 48.2932 35.9266L38.5801 23.9717V34.3898L40.894 35.9325C46.2267 39.4789 49.4284 45.4606 49.4208 51.8653C49.4224 54.8277 50.2091 57.7373 51.7007 60.2969L57.3394 69.9653H63.8751C64.1945 69.9653 64.501 69.8384 64.7268 69.6126C64.9527 69.3867 65.0796 69.0802 65.0796 68.7608V63.3824L62.9357 61.9537V61.9542C60.2276 60.1443 57.9251 57.7922 56.1731 55.0459C54.4217 52.2997 53.2597 49.2201 52.7612 46.0012V46.0011Z" fill="#D3585C"/>
<path d="M52.7612 46.0011C52.1918 42.3063 50.6501 38.8287 48.2932 35.9266L38.5801 23.9717V34.3898L40.894 35.9325C46.2267 39.4789 49.4284 45.4606 49.4208 51.8653C49.4224 54.8277 50.2091 57.7373 51.7007 60.2969L57.3394 69.9653H63.8751C64.1945 69.9653 64.501 69.8384 64.7268 69.6126C64.9527 69.3867 65.0796 69.0802 65.0796 68.7608V63.3824L62.9357 61.9537V61.9542C60.2276 60.1443 57.9251 57.7922 56.1731 55.0459C54.4217 52.2997 53.2597 49.2201 52.7612 46.0012V46.0011Z" fill="url(#paint14_linear_201_1299)"/>
</g>
<defs>
<linearGradient id="paint0_linear_201_1299" x1="18.1033" y1="0.102539" x2="18.1033" y2="60.4844" gradientUnits="userSpaceOnUse">
<stop stop-color="#BF4347"/>
<stop offset="1" stop-color="#D3585C" stop-opacity="0"/>
</linearGradient>
<linearGradient id="paint1_linear_201_1299" x1="18.1033" y1="23.9717" x2="18.1033" y2="69.9653" gradientUnits="userSpaceOnUse">
<stop stop-color="#BF4347"/>
<stop offset="1" stop-color="#D3585C" stop-opacity="0"/>
</linearGradient>
<linearGradient id="paint2_linear_201_1299" x1="22.3191" y1="0.102539" x2="22.3191" y2="50.8503" gradientUnits="userSpaceOnUse">
<stop stop-color="#BF4347"/>
<stop offset="1" stop-color="#D3585C" stop-opacity="0"/>
</linearGradient>
<linearGradient id="paint3_linear_201_1299" x1="9.21265" y1="54.4521" x2="9.21265" y2="69.965" gradientUnits="userSpaceOnUse">
<stop stop-color="#BF4347"/>
<stop offset="1" stop-color="#D3585C" stop-opacity="0"/>
</linearGradient>
<linearGradient id="paint4_linear_201_1299" x1="1.23968" y1="4.9209" x2="1.23968" y2="65.1471" gradientUnits="userSpaceOnUse">
<stop stop-color="#BF4347"/>
<stop offset="1" stop-color="#D3585C" stop-opacity="0"/>
</linearGradient>
<linearGradient id="paint5_linear_201_1299" x1="34.9662" y1="4.9209" x2="34.9662" y2="65.1471" gradientUnits="userSpaceOnUse">
<stop stop-color="#BF4347"/>
<stop offset="1" stop-color="#D3585C" stop-opacity="0"/>
</linearGradient>
<linearGradient id="paint6_linear_201_1299" x1="12.8407" y1="37.2861" x2="12.8407" y2="69.9657" gradientUnits="userSpaceOnUse">
<stop stop-color="#BF4347"/>
<stop offset="1" stop-color="#D3585C" stop-opacity="0"/>
</linearGradient>
<linearGradient id="paint7_linear_201_1299" x1="25.3293" y1="0.102539" x2="25.3293" y2="27.9006" gradientUnits="userSpaceOnUse">
<stop stop-color="#BF4347"/>
<stop offset="1" stop-color="#D3585C" stop-opacity="0"/>
</linearGradient>
<linearGradient id="paint8_linear_201_1299" x1="42.9392" y1="54.4521" x2="42.9392" y2="69.965" gradientUnits="userSpaceOnUse">
<stop stop-color="#BF4347"/>
<stop offset="1" stop-color="#D3585C" stop-opacity="0"/>
</linearGradient>
<linearGradient id="paint9_linear_201_1299" x1="59.0558" y1="0.102539" x2="59.0558" y2="27.9006" gradientUnits="userSpaceOnUse">
<stop stop-color="#BF4347"/>
<stop offset="1" stop-color="#D3585C" stop-opacity="0"/>
</linearGradient>
<linearGradient id="paint10_linear_201_1299" x1="68.6928" y1="4.9209" x2="68.6928" y2="65.1471" gradientUnits="userSpaceOnUse">
<stop stop-color="#BF4347"/>
<stop offset="1" stop-color="#D3585C" stop-opacity="0"/>
</linearGradient>
<linearGradient id="paint11_linear_201_1299" x1="56.0457" y1="0.102539" x2="56.0457" y2="50.8503" gradientUnits="userSpaceOnUse">
<stop stop-color="#BF4347"/>
<stop offset="1" stop-color="#D3585C" stop-opacity="0"/>
</linearGradient>
<linearGradient id="paint12_linear_201_1299" x1="51.8298" y1="0.102539" x2="51.8298" y2="60.4844" gradientUnits="userSpaceOnUse">
<stop stop-color="#BF4347"/>
<stop offset="1" stop-color="#D3585C" stop-opacity="0"/>
</linearGradient>
<linearGradient id="paint13_linear_201_1299" x1="46.5673" y1="37.2861" x2="46.5673" y2="69.9657" gradientUnits="userSpaceOnUse">
<stop stop-color="#BF4347"/>
<stop offset="1" stop-color="#D3585C" stop-opacity="0"/>
</linearGradient>
<linearGradient id="paint14_linear_201_1299" x1="51.8298" y1="23.9717" x2="51.8298" y2="69.9653" gradientUnits="userSpaceOnUse">
<stop stop-color="#BF4347"/>
<stop offset="1" stop-color="#D3585C" stop-opacity="0"/>
</linearGradient>
<clipPath id="clip0_201_1299">
<rect width="69.8968" height="70" fill="white"/>
</clipPath>
</defs>
</svg>
