<svg width="74" height="66" viewBox="0 0 74 66" fill="none" xmlns="http://www.w3.org/2000/svg">
<g clip-path="url(#clip0_162_784)">
<path d="M32.9492 25.7816H40.5527V23.2129H32.9492V25.7816Z" fill="#D3585C"/>
<path d="M32.9492 25.7816H40.5527V23.2129H32.9492V25.7816Z" fill="url(#paint0_linear_162_784)"/>
<path d="M40.5526 11.6537C40.5526 13.0723 39.4178 14.2225 38.0181 14.2225C36.6185 14.2225 35.4836 13.0723 35.4836 11.6537C35.4836 10.2352 36.6185 9.08496 38.0181 9.08496C39.4178 9.08496 40.5526 10.2352 40.5526 11.6537Z" fill="#D3585C"/>
<path d="M40.5526 11.6537C40.5526 13.0723 39.4178 14.2225 38.0181 14.2225C36.6185 14.2225 35.4836 13.0723 35.4836 11.6537C35.4836 10.2352 36.6185 9.08496 38.0181 9.08496C39.4178 9.08496 40.5526 10.2352 40.5526 11.6537Z" fill="url(#paint1_linear_162_784)"/>
<path d="M41.2566 2.4469C41.0484 2.58681 40.8034 2.66191 40.5534 2.6625H27.8809V20.6438H48.1569V0.09375H44.7353L41.2566 2.4469ZM45.6224 12.9375H42.9081C42.5364 14.4168 41.5322 15.6501 40.1705 16.3016C38.8082 16.9524 37.2298 16.9524 35.8675 16.3016C34.5058 15.6502 33.5016 14.4168 33.13 12.9375H30.4156V10.3688H33.13C33.5016 8.88947 34.5058 7.65618 35.8675 7.00474C37.2298 6.35395 38.8082 6.35395 40.1705 7.00474C41.5322 7.65611 42.5364 8.88947 42.9081 10.3688H45.6224V12.9375Z" fill="#D3585C"/>
<path d="M41.2566 2.4469C41.0484 2.58681 40.8034 2.66191 40.5534 2.6625H27.8809V20.6438H48.1569V0.09375H44.7353L41.2566 2.4469ZM45.6224 12.9375H42.9081C42.5364 14.4168 41.5322 15.6501 40.1705 16.3016C38.8082 16.9524 37.2298 16.9524 35.8675 16.3016C34.5058 15.6502 33.5016 14.4168 33.13 12.9375H30.4156V10.3688H33.13C33.5016 8.88947 34.5058 7.65618 35.8675 7.00474C37.2298 6.35395 38.8082 6.35395 40.1705 7.00474C41.5322 7.65611 42.5364 8.88947 42.9081 10.3688H45.6224V12.9375Z" fill="url(#paint2_linear_162_784)"/>
<path d="M17.7422 5.95789V17.3476L23.162 20.6434H25.3457V18.0746H22.8112V15.5059H25.3457V12.9371H22.8112V10.3684H25.3457V7.79961H22.8112V5.23086H25.3457V2.66211H23.162L17.7422 5.95789Z" fill="#D3585C"/>
<path d="M17.7422 5.95789V17.3476L23.162 20.6434H25.3457V18.0746H22.8112V15.5059H25.3457V12.9371H22.8112V10.3684H25.3457V7.79961H22.8112V5.23086H25.3457V2.66211H23.162L17.7422 5.95789Z" fill="url(#paint3_linear_162_784)"/>
<path d="M35.4836 45.0475C35.4836 45.7567 36.0511 46.3318 36.7509 46.3318C37.4507 46.3318 38.0181 45.7567 38.0181 45.0475V28.3506H35.4836V45.0475Z" fill="#D3585C"/>
<path d="M35.4836 45.0475C35.4836 45.7567 36.0511 46.3318 36.7509 46.3318C37.4507 46.3318 38.0181 45.7567 38.0181 45.0475V28.3506H35.4836V45.0475Z" fill="url(#paint4_linear_162_784)"/>
<path d="M11.406 13.3533L15.2078 14.8946V8.41309L11.406 9.95434V13.3533Z" fill="#D3585C"/>
<path d="M11.406 13.3533L15.2078 14.8946V8.41309L11.406 9.95434V13.3533Z" fill="url(#paint5_linear_162_784)"/>
<path d="M51.0471 23.2125L51.4397 24.8076H51.4403C51.5812 25.3798 52.0886 25.7817 52.6708 25.7812H55.7603C56.3628 25.7812 56.8816 26.2106 57.0021 26.8087L57.8625 31.1653C57.983 31.7639 58.503 32.1933 59.106 32.1928H60.2975L58.5233 23.2021L51.0471 23.2125Z" fill="#D3585C"/>
<path d="M51.0471 23.2125L51.4397 24.8076H51.4403C51.5812 25.3798 52.0886 25.7817 52.6708 25.7812H55.7603C56.3628 25.7812 56.8816 26.2106 57.0021 26.8087L57.8625 31.1653C57.983 31.7639 58.503 32.1933 59.106 32.1928H60.2975L58.5233 23.2021L51.0471 23.2125Z" fill="url(#paint6_linear_162_784)"/>
<path d="M65.6705 46.3314H70.9674V43.7627H65.1636L65.6705 46.3314Z" fill="#D3585C"/>
<path d="M65.6705 46.3314H70.9674V43.7627H65.1636L65.6705 46.3314Z" fill="url(#paint7_linear_162_784)"/>
<path d="M69.643 2.66247H57.0277C56.7777 2.6619 56.5327 2.58678 56.3245 2.44687L52.8457 0.09375H50.6914V20.6438H59.5622C60.1647 20.6438 60.6835 21.0732 60.8039 21.6713L64.6567 41.1938H70.9674V12.9375C70.9652 12.7385 71.0087 12.5424 71.0942 12.3635L73.0879 8.32297C73.6859 7.11141 73.6231 5.67275 72.9216 4.51975C72.22 3.36725 70.98 2.66423 69.6431 2.66262L69.643 2.66247ZM59.5622 7.79997H57.0277V5.23122H59.5622V7.79997ZM64.6312 7.79997H62.0967V5.23122H64.6312V7.79997ZM69.7002 7.79997H67.1657V5.23122H69.7002V7.79997Z" fill="#D3585C"/>
<path d="M69.643 2.66247H57.0277C56.7777 2.6619 56.5327 2.58678 56.3245 2.44687L52.8457 0.09375H50.6914V20.6438H59.5622C60.1647 20.6438 60.6835 21.0732 60.8039 21.6713L64.6567 41.1938H70.9674V12.9375C70.9652 12.7385 71.0087 12.5424 71.0942 12.3635L73.0879 8.32297C73.6859 7.11141 73.6231 5.67275 72.9216 4.51975C72.22 3.36725 70.98 2.66423 69.6431 2.66262L69.643 2.66247ZM59.5622 7.79997H57.0277V5.23122H59.5622V7.79997ZM64.6312 7.79997H62.0967V5.23122H64.6312V7.79997ZM69.7002 7.79997H67.1657V5.23122H69.7002V7.79997Z" fill="url(#paint8_linear_162_784)"/>
<path d="M67.165 48.9004V51.4691C67.165 51.8097 67.0315 52.1366 66.7939 52.3774C66.5563 52.6182 66.2338 52.7535 65.8978 52.7535H16.475C15.1167 52.7535 13.8619 53.488 13.1825 54.6801C12.5036 55.8721 12.5036 57.3412 13.1825 58.5332C13.862 59.7253 15.1167 60.4598 16.475 60.4598H54.4925C55.1924 60.4598 55.7598 61.0349 55.7598 61.7441C55.7598 62.4534 55.1924 63.0285 54.4925 63.0285H25.3458V65.5973H54.4925C55.8509 65.5973 57.1057 64.8628 57.7851 63.6707C58.464 62.4786 58.464 61.0096 57.7851 59.8176C57.1056 58.6255 55.8509 57.891 54.4925 57.891H16.475C15.7752 57.891 15.2078 57.3159 15.2078 56.6066C15.2078 55.8974 15.7752 55.3223 16.475 55.3223H65.8978C66.9059 55.3223 67.8734 54.9163 68.5861 54.1939C69.2988 53.4714 69.6995 52.4908 69.6995 51.4692V48.9005L67.165 48.9004Z" fill="#D3585C"/>
<path d="M67.165 48.9004V51.4691C67.165 51.8097 67.0315 52.1366 66.7939 52.3774C66.5563 52.6182 66.2338 52.7535 65.8978 52.7535H16.475C15.1167 52.7535 13.8619 53.488 13.1825 54.6801C12.5036 55.8721 12.5036 57.3412 13.1825 58.5332C13.862 59.7253 15.1167 60.4598 16.475 60.4598H54.4925C55.1924 60.4598 55.7598 61.0349 55.7598 61.7441C55.7598 62.4534 55.1924 63.0285 54.4925 63.0285H25.3458V65.5973H54.4925C55.8509 65.5973 57.1057 64.8628 57.7851 63.6707C58.464 62.4786 58.464 61.0096 57.7851 59.8176C57.1056 58.6255 55.8509 57.891 54.4925 57.891H16.475C15.7752 57.891 15.2078 57.3159 15.2078 56.6066C15.2078 55.8974 15.7752 55.3223 16.475 55.3223H65.8978C66.9059 55.3223 67.8734 54.9163 68.5861 54.1939C69.2988 53.4714 69.6995 52.4908 69.6995 51.4692V48.9005L67.165 48.9004Z" fill="url(#paint9_linear_162_784)"/>
<path d="M0.000732422 10.3691H8.87148V12.9379H0.000732422V10.3691Z" fill="#D3585C"/>
<path d="M0.000732422 10.3691H8.87148V12.9379H0.000732422V10.3691Z" fill="url(#paint10_linear_162_784)"/>
<path d="M20.2769 63.0283H22.8114V65.5971H20.2769V63.0283Z" fill="#D3585C"/>
<path d="M20.2769 63.0283H22.8114V65.5971H20.2769V63.0283Z" fill="url(#paint11_linear_162_784)"/>
</g>
<defs>
<linearGradient id="paint0_linear_162_784" x1="36.751" y1="23.2129" x2="36.751" y2="25.7816" gradientUnits="userSpaceOnUse">
<stop stop-color="#BF4347"/>
<stop offset="1" stop-color="#D3585C" stop-opacity="0"/>
</linearGradient>
<linearGradient id="paint1_linear_162_784" x1="38.0181" y1="9.08496" x2="38.0181" y2="14.2225" gradientUnits="userSpaceOnUse">
<stop stop-color="#BF4347"/>
<stop offset="1" stop-color="#D3585C" stop-opacity="0"/>
</linearGradient>
<linearGradient id="paint2_linear_162_784" x1="38.0189" y1="0.09375" x2="38.0189" y2="20.6438" gradientUnits="userSpaceOnUse">
<stop stop-color="#BF4347"/>
<stop offset="1" stop-color="#D3585C" stop-opacity="0"/>
</linearGradient>
<linearGradient id="paint3_linear_162_784" x1="21.5439" y1="2.66211" x2="21.5439" y2="20.6434" gradientUnits="userSpaceOnUse">
<stop stop-color="#BF4347"/>
<stop offset="1" stop-color="#D3585C" stop-opacity="0"/>
</linearGradient>
<linearGradient id="paint4_linear_162_784" x1="36.7509" y1="28.3506" x2="36.7509" y2="46.3318" gradientUnits="userSpaceOnUse">
<stop stop-color="#BF4347"/>
<stop offset="1" stop-color="#D3585C" stop-opacity="0"/>
</linearGradient>
<linearGradient id="paint5_linear_162_784" x1="13.3069" y1="8.41309" x2="13.3069" y2="14.8946" gradientUnits="userSpaceOnUse">
<stop stop-color="#BF4347"/>
<stop offset="1" stop-color="#D3585C" stop-opacity="0"/>
</linearGradient>
<linearGradient id="paint6_linear_162_784" x1="55.6723" y1="23.2021" x2="55.6723" y2="32.1928" gradientUnits="userSpaceOnUse">
<stop stop-color="#BF4347"/>
<stop offset="1" stop-color="#D3585C" stop-opacity="0"/>
</linearGradient>
<linearGradient id="paint7_linear_162_784" x1="68.0655" y1="43.7627" x2="68.0655" y2="46.3314" gradientUnits="userSpaceOnUse">
<stop stop-color="#BF4347"/>
<stop offset="1" stop-color="#D3585C" stop-opacity="0"/>
</linearGradient>
<linearGradient id="paint8_linear_162_784" x1="62.0936" y1="0.09375" x2="62.0936" y2="41.1938" gradientUnits="userSpaceOnUse">
<stop stop-color="#BF4347"/>
<stop offset="1" stop-color="#D3585C" stop-opacity="0"/>
</linearGradient>
<linearGradient id="paint9_linear_162_784" x1="41.1864" y1="48.9004" x2="41.1864" y2="65.5973" gradientUnits="userSpaceOnUse">
<stop stop-color="#BF4347"/>
<stop offset="1" stop-color="#D3585C" stop-opacity="0"/>
</linearGradient>
<linearGradient id="paint10_linear_162_784" x1="4.43611" y1="10.3691" x2="4.43611" y2="12.9379" gradientUnits="userSpaceOnUse">
<stop stop-color="#BF4347"/>
<stop offset="1" stop-color="#D3585C" stop-opacity="0"/>
</linearGradient>
<linearGradient id="paint11_linear_162_784" x1="21.5441" y1="63.0283" x2="21.5441" y2="65.5971" gradientUnits="userSpaceOnUse">
<stop stop-color="#BF4347"/>
<stop offset="1" stop-color="#D3585C" stop-opacity="0"/>
</linearGradient>
<clipPath id="clip0_162_784">
<rect width="74" height="66" fill="white"/>
</clipPath>
</defs>
</svg>
