<svg width="16" height="16" viewBox="0 0 16 16" fill="none" xmlns="http://www.w3.org/2000/svg">
<g clip-path="url(#clip0_2_1420)">
<path fill-rule="evenodd" clip-rule="evenodd" d="M15.1394 13.8768L12.1811 10.9185C11.8356 10.5719 11.2724 10.5719 10.9268 10.9185C10.5801 11.264 10.5801 11.8273 10.9268 12.1729L13.885 15.1312C14.2305 15.4779 14.7938 15.4779 15.1394 15.1312C15.4861 14.7857 15.4861 14.2224 15.1394 13.8768Z" fill="#6ABD6E"/>
<path fill-rule="evenodd" clip-rule="evenodd" d="M15.1394 13.8768L12.1811 10.9185C11.8356 10.5719 11.2724 10.5719 10.9268 10.9185C10.5801 11.264 10.5801 11.8273 10.9268 12.1729L13.885 15.1312C14.2305 15.4779 14.7938 15.4779 15.1394 15.1312C15.4861 14.7857 15.4861 14.2224 15.1394 13.8768Z" fill="url(#paint0_linear_2_1420)"/>
<path fill-rule="evenodd" clip-rule="evenodd" d="M13.8853 0.860394L10.927 3.81866C10.5803 4.16415 10.5803 4.72741 10.927 5.07303C11.2725 5.41971 11.8357 5.41971 12.1814 5.07303L15.1396 2.11477C15.4863 1.76928 15.4863 1.20602 15.1396 0.860394C14.7941 0.513719 14.2309 0.513719 13.8853 0.860394Z" fill="#6ABD6E"/>
<path fill-rule="evenodd" clip-rule="evenodd" d="M13.8853 0.860394L10.927 3.81866C10.5803 4.16415 10.5803 4.72741 10.927 5.07303C11.2725 5.41971 11.8357 5.41971 12.1814 5.07303L15.1396 2.11477C15.4863 1.76928 15.4863 1.20602 15.1396 0.860394C14.7941 0.513719 14.2309 0.513719 13.8853 0.860394Z" fill="url(#paint1_linear_2_1420)"/>
<path fill-rule="evenodd" clip-rule="evenodd" d="M5.08129 3.81871L2.12302 0.86044C1.77753 0.513765 1.21428 0.513765 0.868649 0.86044C0.521974 1.20593 0.521974 1.76919 0.868649 2.11481L3.82692 5.07308C4.17241 5.41976 4.73566 5.41976 5.08129 5.07308C5.42796 4.72759 5.42796 4.16433 5.08129 3.81871Z" fill="#6ABD6E"/>
<path fill-rule="evenodd" clip-rule="evenodd" d="M5.08129 3.81871L2.12302 0.86044C1.77753 0.513765 1.21428 0.513765 0.868649 0.86044C0.521974 1.20593 0.521974 1.76919 0.868649 2.11481L3.82692 5.07308C4.17241 5.41976 4.73566 5.41976 5.08129 5.07308C5.42796 4.72759 5.42796 4.16433 5.08129 3.81871Z" fill="url(#paint2_linear_2_1420)"/>
<path fill-rule="evenodd" clip-rule="evenodd" d="M3.82716 10.9185L0.868893 13.8768C0.522218 14.2223 0.522218 14.7856 0.868893 15.1312C1.21438 15.4779 1.77764 15.4779 2.12327 15.1312L5.08153 12.1729C5.42821 11.8274 5.42821 11.2642 5.08153 10.9185C4.73604 10.5719 4.17279 10.5719 3.82716 10.9185Z" fill="#6ABD6E"/>
<path fill-rule="evenodd" clip-rule="evenodd" d="M3.82716 10.9185L0.868893 13.8768C0.522218 14.2223 0.522218 14.7856 0.868893 15.1312C1.21438 15.4779 1.77764 15.4779 2.12327 15.1312L5.08153 12.1729C5.42821 11.8274 5.42821 11.2642 5.08153 10.9185C4.73604 10.5719 4.17279 10.5719 3.82716 10.9185Z" fill="url(#paint3_linear_2_1420)"/>
<path fill-rule="evenodd" clip-rule="evenodd" d="M3.86259 0.00845337H0.904326C0.414504 0.00845337 0.0168457 0.406112 0.0168457 0.895934V3.8542C0.0168457 4.34402 0.414504 4.74168 0.904326 4.74168C1.39415 4.74168 1.79181 4.34402 1.79181 3.8542V1.78341H3.86259C4.35242 1.78341 4.75007 1.38576 4.75007 0.895934C4.75007 0.406112 4.35242 0.00845337 3.86259 0.00845337Z" fill="#6ABD6E"/>
<path fill-rule="evenodd" clip-rule="evenodd" d="M3.86259 0.00845337H0.904326C0.414504 0.00845337 0.0168457 0.406112 0.0168457 0.895934V3.8542C0.0168457 4.34402 0.414504 4.74168 0.904326 4.74168C1.39415 4.74168 1.79181 4.34402 1.79181 3.8542V1.78341H3.86259C4.35242 1.78341 4.75007 1.38576 4.75007 0.895934C4.75007 0.406112 4.35242 0.00845337 3.86259 0.00845337Z" fill="url(#paint4_linear_2_1420)"/>
<path fill-rule="evenodd" clip-rule="evenodd" d="M3.86259 14.2081H1.79181V12.1374C1.79181 11.6475 1.39415 11.2499 0.904326 11.2499C0.414504 11.2499 0.0168457 11.6475 0.0168457 12.1374V15.0956C0.0168457 15.5854 0.414504 15.9831 0.904326 15.9831H3.86259C4.35242 15.9831 4.75007 15.5854 4.75007 15.0956C4.75007 14.6058 4.35242 14.2081 3.86259 14.2081Z" fill="#6ABD6E"/>
<path fill-rule="evenodd" clip-rule="evenodd" d="M3.86259 14.2081H1.79181V12.1374C1.79181 11.6475 1.39415 11.2499 0.904326 11.2499C0.414504 11.2499 0.0168457 11.6475 0.0168457 12.1374V15.0956C0.0168457 15.5854 0.414504 15.9831 0.904326 15.9831H3.86259C4.35242 15.9831 4.75007 15.5854 4.75007 15.0956C4.75007 14.6058 4.35242 14.2081 3.86259 14.2081Z" fill="url(#paint5_linear_2_1420)"/>
<path fill-rule="evenodd" clip-rule="evenodd" d="M12.1458 15.9831H15.104C15.5939 15.9831 15.9915 15.5854 15.9915 15.0956V12.1374C15.9915 11.6475 15.5939 11.2499 15.104 11.2499C14.6142 11.2499 14.2166 11.6475 14.2166 12.1374V14.2081H12.1458C11.656 14.2081 11.2583 14.6058 11.2583 15.0956C11.2583 15.5854 11.656 15.9831 12.1458 15.9831Z" fill="#6ABD6E"/>
<path fill-rule="evenodd" clip-rule="evenodd" d="M12.1458 15.9831H15.104C15.5939 15.9831 15.9915 15.5854 15.9915 15.0956V12.1374C15.9915 11.6475 15.5939 11.2499 15.104 11.2499C14.6142 11.2499 14.2166 11.6475 14.2166 12.1374V14.2081H12.1458C11.656 14.2081 11.2583 14.6058 11.2583 15.0956C11.2583 15.5854 11.656 15.9831 12.1458 15.9831Z" fill="url(#paint6_linear_2_1420)"/>
<path fill-rule="evenodd" clip-rule="evenodd" d="M12.1458 1.78341H14.2166V3.8542C14.2166 4.34402 14.6142 4.74168 15.104 4.74168C15.5939 4.74168 15.9915 4.34402 15.9915 3.8542V0.895934C15.9915 0.406112 15.5939 0.00845337 15.104 0.00845337H12.1458C11.656 0.00845337 11.2583 0.406112 11.2583 0.895934C11.2583 1.38576 11.656 1.78341 12.1458 1.78341Z" fill="#6ABD6E"/>
<path fill-rule="evenodd" clip-rule="evenodd" d="M12.1458 1.78341H14.2166V3.8542C14.2166 4.34402 14.6142 4.74168 15.104 4.74168C15.5939 4.74168 15.9915 4.34402 15.9915 3.8542V0.895934C15.9915 0.406112 15.5939 0.00845337 15.104 0.00845337H12.1458C11.656 0.00845337 11.2583 0.406112 11.2583 0.895934C11.2583 1.38576 11.656 1.78341 12.1458 1.78341Z" fill="url(#paint7_linear_2_1420)"/>
</g>
<defs>
<linearGradient id="paint0_linear_2_1420" x1="13.0331" y1="10.6585" x2="13.0331" y2="15.3912" gradientUnits="userSpaceOnUse">
<stop stop-color="#286F2B"/>
<stop offset="1" stop-color="#286F2B" stop-opacity="0"/>
</linearGradient>
<linearGradient id="paint1_linear_2_1420" x1="13.0333" y1="0.600388" x2="13.0333" y2="5.33304" gradientUnits="userSpaceOnUse">
<stop stop-color="#286F2B"/>
<stop offset="1" stop-color="#286F2B" stop-opacity="0"/>
</linearGradient>
<linearGradient id="paint2_linear_2_1420" x1="2.97497" y1="0.600433" x2="2.97497" y2="5.33309" gradientUnits="userSpaceOnUse">
<stop stop-color="#286F2B"/>
<stop offset="1" stop-color="#286F2B" stop-opacity="0"/>
</linearGradient>
<linearGradient id="paint3_linear_2_1420" x1="2.97521" y1="10.6585" x2="2.97521" y2="15.3912" gradientUnits="userSpaceOnUse">
<stop stop-color="#286F2B"/>
<stop offset="1" stop-color="#286F2B" stop-opacity="0"/>
</linearGradient>
<linearGradient id="paint4_linear_2_1420" x1="2.38346" y1="0.00845337" x2="2.38346" y2="4.74168" gradientUnits="userSpaceOnUse">
<stop stop-color="#286F2B"/>
<stop offset="1" stop-color="#286F2B" stop-opacity="0"/>
</linearGradient>
<linearGradient id="paint5_linear_2_1420" x1="2.38346" y1="11.2499" x2="2.38346" y2="15.9831" gradientUnits="userSpaceOnUse">
<stop stop-color="#286F2B"/>
<stop offset="1" stop-color="#286F2B" stop-opacity="0"/>
</linearGradient>
<linearGradient id="paint6_linear_2_1420" x1="13.6249" y1="11.2499" x2="13.6249" y2="15.9831" gradientUnits="userSpaceOnUse">
<stop stop-color="#286F2B"/>
<stop offset="1" stop-color="#286F2B" stop-opacity="0"/>
</linearGradient>
<linearGradient id="paint7_linear_2_1420" x1="13.6249" y1="0.00845337" x2="13.6249" y2="4.74168" gradientUnits="userSpaceOnUse">
<stop stop-color="#286F2B"/>
<stop offset="1" stop-color="#286F2B" stop-opacity="0"/>
</linearGradient>
<clipPath id="clip0_2_1420">
<rect width="16" height="16" fill="white"/>
</clipPath>
</defs>
</svg>
