<svg width="78" height="72" viewBox="0 0 78 72" fill="none" xmlns="http://www.w3.org/2000/svg">
<g clip-path="url(#clip0_162_798)">
<path d="M27.8037 30.1094C27.8037 30.1094 28.1518 29.7741 28.2387 29.6835C35.587 21.994 39.7527 18.1319 39.7527 12.0436C39.7527 5.58387 34.4034 0.345703 27.8042 0.345703C21.2038 0.345703 15.854 5.58387 15.854 12.0436C15.854 18.1318 20.0231 21.9984 27.3731 29.6892C27.4651 29.7854 27.8036 30.1101 27.8036 30.1101L27.8037 30.1094ZM27.8037 3.21896C32.7752 3.21896 36.8189 7.17822 36.8189 12.0428C36.8189 16.3435 34.2127 19.262 27.8037 25.9373C21.3918 19.2635 18.7885 16.3429 18.7885 12.0433C18.7885 7.17822 22.8326 3.21896 27.8037 3.21896Z" fill="#D3585C"/>
<path d="M27.8037 30.1094C27.8037 30.1094 28.1518 29.7741 28.2387 29.6835C35.587 21.994 39.7527 18.1319 39.7527 12.0436C39.7527 5.58387 34.4034 0.345703 27.8042 0.345703C21.2038 0.345703 15.854 5.58387 15.854 12.0436C15.854 18.1318 20.0231 21.9984 27.3731 29.6892C27.4651 29.7854 27.8036 30.1101 27.8036 30.1101L27.8037 30.1094ZM27.8037 3.21896C32.7752 3.21896 36.8189 7.17822 36.8189 12.0428C36.8189 16.3435 34.2127 19.262 27.8037 25.9373C21.3918 19.2635 18.7885 16.3429 18.7885 12.0433C18.7885 7.17822 22.8326 3.21896 27.8037 3.21896Z" fill="url(#paint0_linear_162_798)"/>
<path d="M39.4639 25.5605C42.149 28.811 45.2374 31.7027 48.6489 34.1659C52.2376 32.7285 55.6337 30.8416 58.7715 28.5374C53.9419 28.1538 49.1646 27.2903 44.5065 26.4502C42.7976 26.1388 41.1194 25.8391 39.4639 25.5605Z" fill="#D3585C"/>
<path d="M39.4639 25.5605C42.149 28.811 45.2374 31.7027 48.6489 34.1659C52.2376 32.7285 55.6337 30.8416 58.7715 28.5374C53.9419 28.1538 49.1646 27.2903 44.5065 26.4502C42.7976 26.1388 41.1194 25.8391 39.4639 25.5605Z" fill="url(#paint1_linear_162_798)"/>
<path d="M56.5616 64.6109C56.8069 64.6109 57.0392 64.6036 57.2749 64.5953L62.8496 53.3623L69.5699 52.7485L68.4721 44.8365C61.5292 43.5043 54.9942 40.8283 49.2344 37.0234C43.5961 39.1991 37.5392 40.3511 31.2964 40.3511C30.7245 40.3511 30.1566 40.3256 29.5858 40.3083L23.0723 50.4088L32.0056 50.2737L42.7336 62.379L42.6797 62.4219C47.8392 63.6073 52.6575 64.6109 56.5625 64.6109L56.5616 64.6109Z" fill="#D3585C"/>
<path d="M56.5616 64.6109C56.8069 64.6109 57.0392 64.6036 57.2749 64.5953L62.8496 53.3623L69.5699 52.7485L68.4721 44.8365C61.5292 43.5043 54.9942 40.8283 49.2344 37.0234C43.5961 39.1991 37.5392 40.3511 31.2964 40.3511C30.7245 40.3511 30.1566 40.3256 29.5858 40.3083L23.0723 50.4088L32.0056 50.2737L42.7336 62.379L42.6797 62.4219C47.8392 63.6073 52.6575 64.6109 56.5625 64.6109L56.5616 64.6109Z" fill="url(#paint2_linear_162_798)"/>
<path d="M72.5265 20.7033L69.5734 21.1481C67.7231 21.4267 65.8058 21.564 63.7192 21.564C57.8816 21.564 51.7566 20.4554 45.8351 19.3846C44.3005 19.1093 42.7501 18.8286 41.1934 18.5645C40.7641 19.4585 40.2462 20.3364 39.6413 21.221C49.685 22.8618 60.0348 25.4912 70.0215 23.9872L74.3519 55.1948L64.7841 56.0688C64.7841 56.0688 60.3429 65.2062 58.3307 68.8503C44.8909 69.8172 24.5542 58.9584 4.1011 63.3181L12.9641 23.3368C14.096 22.748 15.242 22.256 16.4022 21.8434C15.8002 21.0122 15.2738 20.1905 14.8211 19.3609C13.712 19.7807 12.629 20.255 11.5839 20.8021L10.3833 21.4281L0.262451 67.073L4.72179 66.1233C7.78511 65.47 10.9451 65.1553 14.3838 65.1553C22.743 65.1553 31.1558 67.1174 38.5778 68.8488C45.0669 70.3634 51.1976 71.7929 56.5652 71.7929C57.6198 71.7929 58.6364 71.7379 59.5865 71.6272L60.4014 71.5316L77.7375 58.2659L72.5265 20.7033Z" fill="#D3585C"/>
<path d="M72.5265 20.7033L69.5734 21.1481C67.7231 21.4267 65.8058 21.564 63.7192 21.564C57.8816 21.564 51.7566 20.4554 45.8351 19.3846C44.3005 19.1093 42.7501 18.8286 41.1934 18.5645C40.7641 19.4585 40.2462 20.3364 39.6413 21.221C49.685 22.8618 60.0348 25.4912 70.0215 23.9872L74.3519 55.1948L64.7841 56.0688C64.7841 56.0688 60.3429 65.2062 58.3307 68.8503C44.8909 69.8172 24.5542 58.9584 4.1011 63.3181L12.9641 23.3368C14.096 22.748 15.242 22.256 16.4022 21.8434C15.8002 21.0122 15.2738 20.1905 14.8211 19.3609C13.712 19.7807 12.629 20.255 11.5839 20.8021L10.3833 21.4281L0.262451 67.073L4.72179 66.1233C7.78511 65.47 10.9451 65.1553 14.3838 65.1553C22.743 65.1553 31.1558 67.1174 38.5778 68.8488C45.0669 70.3634 51.1976 71.7929 56.5652 71.7929C57.6198 71.7929 58.6364 71.7379 59.5865 71.6272L60.4014 71.5316L77.7375 58.2659L72.5265 20.7033Z" fill="url(#paint3_linear_162_798)"/>
<path d="M9.74805 58.1572C11.2547 58.0354 12.7955 57.9776 14.3846 57.9776C22.6876 57.9776 30.6884 59.6506 37.9069 61.3141L30.6829 53.167L10.7895 53.4667L9.74805 58.1572Z" fill="#D3585C"/>
<path d="M9.74805 58.1572C11.2547 58.0354 12.7955 57.9776 14.3846 57.9776C22.6876 57.9776 30.6884 59.6506 37.9069 61.3141L30.6829 53.167L10.7895 53.4667L9.74805 58.1572Z" fill="url(#paint4_linear_162_798)"/>
<path d="M11.4287 50.5817L20.62 50.4433L27.2425 40.171C22.8127 39.8174 18.5023 38.8844 14.3546 37.3838L11.4287 50.5817Z" fill="#D3585C"/>
<path d="M11.4287 50.5817L20.62 50.4433L27.2425 40.171C22.8127 39.8174 18.5023 38.8844 14.3546 37.3838L11.4287 50.5817Z" fill="url(#paint5_linear_162_798)"/>
<path d="M63.719 28.7445C63.5407 28.7445 63.363 28.7356 63.1858 28.7339C59.6267 31.7452 55.6971 34.2101 51.4973 36.0821C56.5615 39.2375 62.2095 41.512 68.1835 42.7408L66.2327 28.6855C65.4131 28.725 64.5771 28.7445 63.719 28.7445V28.7445Z" fill="#D3585C"/>
<path d="M63.719 28.7445C63.5407 28.7445 63.363 28.7356 63.1858 28.7339C59.6267 31.7452 55.6971 34.2101 51.4973 36.0821C56.5615 39.2375 62.2095 41.512 68.1835 42.7408L66.2327 28.6855C65.4131 28.725 64.5771 28.7445 63.719 28.7445V28.7445Z" fill="url(#paint6_linear_162_798)"/>
<path d="M46.38 34.9969C42.6714 32.1773 39.3519 28.8619 36.526 25.1289C35.1823 26.6435 33.6404 28.2481 31.9231 30.0373L27.8084 34.1434L23.6882 30.0407C22.0793 28.366 20.6293 26.8515 19.3453 25.4235C18.4729 25.6715 17.6301 25.9673 16.8096 26.3115L14.9836 34.5454C20.1773 36.4837 25.6486 37.4779 31.2947 37.4779C36.5122 37.4773 41.5911 36.6244 46.3801 34.9969L46.38 34.9969Z" fill="#D3585C"/>
<path d="M46.38 34.9969C42.6714 32.1773 39.3519 28.8619 36.526 25.1289C35.1823 26.6435 33.6404 28.2481 31.9231 30.0373L27.8084 34.1434L23.6882 30.0407C22.0793 28.366 20.6293 26.8515 19.3453 25.4235C18.4729 25.6715 17.6301 25.9673 16.8096 26.3115L14.9836 34.5454C20.1773 36.4837 25.6486 37.4779 31.2947 37.4779C36.5122 37.4773 41.5911 36.6244 46.3801 34.9969L46.38 34.9969Z" fill="url(#paint7_linear_162_798)"/>
<path d="M34.7374 11.2835C34.7374 7.58598 31.6649 4.5791 27.8893 4.5791C24.1137 4.5791 21.0413 7.58712 21.0413 11.2835C21.0413 14.9799 24.1137 17.9894 27.8893 17.9894C31.6649 17.9894 34.7374 14.9809 34.7374 11.2835ZM23.2733 11.2835C23.2733 8.79258 25.3433 6.76541 27.8887 6.76541C30.4342 6.76541 32.5042 8.79201 32.5042 11.2835C32.5042 13.7767 30.4342 15.8033 27.8887 15.8033C25.3439 15.8033 23.2733 13.7767 23.2733 11.2835Z" fill="#D3585C"/>
<path d="M34.7374 11.2835C34.7374 7.58598 31.6649 4.5791 27.8893 4.5791C24.1137 4.5791 21.0413 7.58712 21.0413 11.2835C21.0413 14.9799 24.1137 17.9894 27.8893 17.9894C31.6649 17.9894 34.7374 14.9809 34.7374 11.2835ZM23.2733 11.2835C23.2733 8.79258 25.3433 6.76541 27.8887 6.76541C30.4342 6.76541 32.5042 8.79201 32.5042 11.2835C32.5042 13.7767 30.4342 15.8033 27.8887 15.8033C25.3439 15.8033 23.2733 13.7767 23.2733 11.2835Z" fill="url(#paint8_linear_162_798)"/>
</g>
<defs>
<linearGradient id="paint0_linear_162_798" x1="27.8034" y1="0.345703" x2="27.8034" y2="30.1101" gradientUnits="userSpaceOnUse">
<stop stop-color="#BF4347"/>
<stop offset="1" stop-color="#D3585C" stop-opacity="0"/>
</linearGradient>
<linearGradient id="paint1_linear_162_798" x1="49.1177" y1="25.5605" x2="49.1177" y2="34.1659" gradientUnits="userSpaceOnUse">
<stop stop-color="#BF4347"/>
<stop offset="1" stop-color="#D3585C" stop-opacity="0"/>
</linearGradient>
<linearGradient id="paint2_linear_162_798" x1="46.3211" y1="37.0234" x2="46.3211" y2="64.6109" gradientUnits="userSpaceOnUse">
<stop stop-color="#BF4347"/>
<stop offset="1" stop-color="#D3585C" stop-opacity="0"/>
</linearGradient>
<linearGradient id="paint3_linear_162_798" x1="39" y1="18.5645" x2="39" y2="71.7929" gradientUnits="userSpaceOnUse">
<stop stop-color="#BF4347"/>
<stop offset="1" stop-color="#D3585C" stop-opacity="0"/>
</linearGradient>
<linearGradient id="paint4_linear_162_798" x1="23.8275" y1="53.167" x2="23.8275" y2="61.3141" gradientUnits="userSpaceOnUse">
<stop stop-color="#BF4347"/>
<stop offset="1" stop-color="#D3585C" stop-opacity="0"/>
</linearGradient>
<linearGradient id="paint5_linear_162_798" x1="19.3356" y1="37.3838" x2="19.3356" y2="50.5817" gradientUnits="userSpaceOnUse">
<stop stop-color="#BF4347"/>
<stop offset="1" stop-color="#D3585C" stop-opacity="0"/>
</linearGradient>
<linearGradient id="paint6_linear_162_798" x1="59.8404" y1="28.6855" x2="59.8404" y2="42.7408" gradientUnits="userSpaceOnUse">
<stop stop-color="#BF4347"/>
<stop offset="1" stop-color="#D3585C" stop-opacity="0"/>
</linearGradient>
<linearGradient id="paint7_linear_162_798" x1="30.6819" y1="25.1289" x2="30.6819" y2="37.4779" gradientUnits="userSpaceOnUse">
<stop stop-color="#BF4347"/>
<stop offset="1" stop-color="#D3585C" stop-opacity="0"/>
</linearGradient>
<linearGradient id="paint8_linear_162_798" x1="27.8893" y1="4.5791" x2="27.8893" y2="17.9894" gradientUnits="userSpaceOnUse">
<stop stop-color="#BF4347"/>
<stop offset="1" stop-color="#D3585C" stop-opacity="0"/>
</linearGradient>
<clipPath id="clip0_162_798">
<rect width="78" height="72" fill="white"/>
</clipPath>
</defs>
</svg>
