<svg width="80" height="57" viewBox="0 0 80 57" fill="none" xmlns="http://www.w3.org/2000/svg">
<path d="M67.7861 31.1315H12.2556C5.54033 31.1315 0.095459 36.5696 0.095459 43.2765V44.7714C0.095459 51.4784 5.54033 56.9165 12.2556 56.9165H67.7845C74.4998 56.9165 79.9446 51.4784 79.9446 44.7714V43.2765C79.9453 36.5696 74.5011 31.1315 67.7851 31.1315H67.7861ZM14.688 50.7371C10.976 50.7371 7.96746 47.7317 7.96746 44.025C7.96746 40.3182 10.9766 37.3128 14.688 37.3128C18.3993 37.3128 21.4085 40.3182 21.4085 44.025C21.4078 47.7317 18.4 50.7371 14.688 50.7371ZM40.0209 50.7371C36.3089 50.7371 33.3004 47.7317 33.3004 44.025C33.3004 40.3182 36.3096 37.3128 40.0209 37.3128C43.7322 37.3128 46.7414 40.3182 46.7414 44.025C46.7414 47.7317 43.7329 50.7371 40.0209 50.7371ZM65.3538 50.7371C61.6418 50.7371 58.6333 47.7317 58.6333 44.025C58.6333 40.3182 61.6425 37.3128 65.3538 37.3128C69.0651 37.3128 72.0743 40.3182 72.0743 44.025C72.0743 47.7317 69.0658 50.7371 65.3538 50.7371Z" fill="#D3585C"/>
<path d="M67.7861 31.1315H12.2556C5.54033 31.1315 0.095459 36.5696 0.095459 43.2765V44.7714C0.095459 51.4784 5.54033 56.9165 12.2556 56.9165H67.7845C74.4998 56.9165 79.9446 51.4784 79.9446 44.7714V43.2765C79.9453 36.5696 74.5011 31.1315 67.7851 31.1315H67.7861ZM14.688 50.7371C10.976 50.7371 7.96746 47.7317 7.96746 44.025C7.96746 40.3182 10.9766 37.3128 14.688 37.3128C18.3993 37.3128 21.4085 40.3182 21.4085 44.025C21.4078 47.7317 18.4 50.7371 14.688 50.7371ZM40.0209 50.7371C36.3089 50.7371 33.3004 47.7317 33.3004 44.025C33.3004 40.3182 36.3096 37.3128 40.0209 37.3128C43.7322 37.3128 46.7414 40.3182 46.7414 44.025C46.7414 47.7317 43.7329 50.7371 40.0209 50.7371ZM65.3538 50.7371C61.6418 50.7371 58.6333 47.7317 58.6333 44.025C58.6333 40.3182 61.6425 37.3128 65.3538 37.3128C69.0651 37.3128 72.0743 40.3182 72.0743 44.025C72.0743 47.7317 69.0658 50.7371 65.3538 50.7371Z" fill="url(#paint0_linear_8_1532)"/>
<path d="M47.9126 13.5039H65.9955V29.1498H47.9126V13.5039Z" fill="#D3585C"/>
<path d="M47.9126 13.5039H65.9955V29.1498H47.9126V13.5039Z" fill="url(#paint1_linear_8_1532)"/>
<path d="M13.1072 6.39551H41.0706V29.1519H13.1072V6.39551Z" fill="#D3585C"/>
<path d="M13.1072 6.39551H41.0706V29.1519H13.1072V6.39551Z" fill="url(#paint2_linear_8_1532)"/>
<path d="M13.1072 0.0419922H41.0706V5.02142H13.1072V0.0419922Z" fill="#D3585C"/>
<path d="M13.1072 0.0419922H41.0706V5.02142H13.1072V0.0419922Z" fill="url(#paint3_linear_8_1532)"/>
<path d="M47.9126 7.8634H65.9955V12.3197H47.9126V7.8634Z" fill="#D3585C"/>
<path d="M47.9126 7.8634H65.9955V12.3197H47.9126V7.8634Z" fill="url(#paint4_linear_8_1532)"/>
<path d="M17.0094 44.0231C17.0094 45.3036 15.97 46.3416 14.6879 46.3416C13.4058 46.3416 12.3665 45.3036 12.3665 44.0231C12.3665 42.7425 13.4058 41.7045 14.6879 41.7045C15.97 41.7045 17.0094 42.7425 17.0094 44.0231Z" fill="#D3585C"/>
<path d="M17.0094 44.0231C17.0094 45.3036 15.97 46.3416 14.6879 46.3416C13.4058 46.3416 12.3665 45.3036 12.3665 44.0231C12.3665 42.7425 13.4058 41.7045 14.6879 41.7045C15.97 41.7045 17.0094 42.7425 17.0094 44.0231Z" fill="url(#paint5_linear_8_1532)"/>
<path d="M42.3424 44.0231C42.3424 45.3036 41.303 46.3416 40.0209 46.3416C38.7388 46.3416 37.6995 45.3036 37.6995 44.0231C37.6995 42.7425 38.7388 41.7045 40.0209 41.7045C41.303 41.7045 42.3424 42.7425 42.3424 44.0231Z" fill="#D3585C"/>
<path d="M42.3424 44.0231C42.3424 45.3036 41.303 46.3416 40.0209 46.3416C38.7388 46.3416 37.6995 45.3036 37.6995 44.0231C37.6995 42.7425 38.7388 41.7045 40.0209 41.7045C41.303 41.7045 42.3424 42.7425 42.3424 44.0231Z" fill="url(#paint6_linear_8_1532)"/>
<path d="M67.6752 44.0231C67.6752 45.3036 66.6358 46.3416 65.3537 46.3416C64.0716 46.3416 63.0322 45.3036 63.0322 44.0231C63.0322 42.7425 64.0716 41.7045 65.3537 41.7045C66.6358 41.7045 67.6752 42.7425 67.6752 44.0231Z" fill="#D3585C"/>
<path d="M67.6752 44.0231C67.6752 45.3036 66.6358 46.3416 65.3537 46.3416C64.0716 46.3416 63.0322 45.3036 63.0322 44.0231C63.0322 42.7425 64.0716 41.7045 65.3537 41.7045C66.6358 41.7045 67.6752 42.7425 67.6752 44.0231Z" fill="url(#paint7_linear_8_1532)"/>
<defs>
<linearGradient id="paint0_linear_8_1532" x1="40.02" y1="31.1315" x2="40.02" y2="56.9165" gradientUnits="userSpaceOnUse">
<stop stop-color="#BF4347"/>
<stop offset="1" stop-color="#D3585C" stop-opacity="0"/>
</linearGradient>
<linearGradient id="paint1_linear_8_1532" x1="56.9541" y1="13.5039" x2="56.9541" y2="29.1498" gradientUnits="userSpaceOnUse">
<stop stop-color="#BF4347"/>
<stop offset="1" stop-color="#D3585C" stop-opacity="0"/>
</linearGradient>
<linearGradient id="paint2_linear_8_1532" x1="27.0889" y1="6.39551" x2="27.0889" y2="29.1519" gradientUnits="userSpaceOnUse">
<stop stop-color="#BF4347"/>
<stop offset="1" stop-color="#D3585C" stop-opacity="0"/>
</linearGradient>
<linearGradient id="paint3_linear_8_1532" x1="27.0889" y1="0.0419922" x2="27.0889" y2="5.02142" gradientUnits="userSpaceOnUse">
<stop stop-color="#BF4347"/>
<stop offset="1" stop-color="#D3585C" stop-opacity="0"/>
</linearGradient>
<linearGradient id="paint4_linear_8_1532" x1="56.9541" y1="7.8634" x2="56.9541" y2="12.3197" gradientUnits="userSpaceOnUse">
<stop stop-color="#BF4347"/>
<stop offset="1" stop-color="#D3585C" stop-opacity="0"/>
</linearGradient>
<linearGradient id="paint5_linear_8_1532" x1="14.6879" y1="41.7045" x2="14.6879" y2="46.3416" gradientUnits="userSpaceOnUse">
<stop stop-color="#BF4347"/>
<stop offset="1" stop-color="#D3585C" stop-opacity="0"/>
</linearGradient>
<linearGradient id="paint6_linear_8_1532" x1="40.0209" y1="41.7045" x2="40.0209" y2="46.3416" gradientUnits="userSpaceOnUse">
<stop stop-color="#BF4347"/>
<stop offset="1" stop-color="#D3585C" stop-opacity="0"/>
</linearGradient>
<linearGradient id="paint7_linear_8_1532" x1="65.3537" y1="41.7045" x2="65.3537" y2="46.3416" gradientUnits="userSpaceOnUse">
<stop stop-color="#BF4347"/>
<stop offset="1" stop-color="#D3585C" stop-opacity="0"/>
</linearGradient>
</defs>
</svg>
