<svg width="76" height="59" viewBox="0 0 76 59" fill="none" xmlns="http://www.w3.org/2000/svg">
<g clip-path="url(#clip0_162_809)">
<path d="M74.6514 30.6098H45.5888V25.0782C47.0205 24.8989 48.3112 24.1264 49.1449 22.9492C49.9792 21.7725 50.2793 20.2993 49.973 18.8896L47.6985 9.02607C47.3894 7.72758 46.5805 6.60334 45.4477 5.89622C44.315 5.18975 42.9493 4.95689 41.6463 5.24951C40.4887 5.39893 39.3837 5.82349 38.4242 6.4871C24.6229 -6.68559 1.25869 2.53581 0.138069 21.5922C-0.216185 27.6376 1.84226 33.5768 5.86149 38.1075C9.8813 42.639 15.5341 45.3927 21.582 45.7649H41.7995C42.8036 45.762 43.7665 45.3617 44.4767 44.6519C45.1869 43.942 45.5874 42.9801 45.5903 41.976H68.3349V44.5019C68.3502 45.8455 69.0762 47.0797 70.2427 47.7472C71.4093 48.4142 72.8421 48.4142 74.0087 47.7467C75.1752 47.0797 75.9007 45.8448 75.9165 44.5019V31.8722C75.9142 31.1759 75.3495 30.6115 74.6529 30.6093L74.6514 30.6098ZM13.999 23.032C14.0012 20.6883 14.9343 18.4408 16.5921 16.7837C18.2506 15.1261 20.4992 14.1941 22.8441 14.1913C34.5623 14.6355 34.5588 31.4311 22.8441 31.8728C20.4986 31.8706 18.2506 30.938 16.5921 29.2809C14.9343 27.6233 14.0013 25.3758 13.999 23.032ZM38.0072 43.2395C34.7625 43.1008 20.6606 43.7041 17.7897 42.5703C17.647 41.4731 17.9798 40.3674 18.7036 39.5306C19.4273 38.6939 20.4738 38.2057 21.5805 38.1876H34.2165C35.2206 38.1904 36.1835 38.5907 36.8937 39.3006C37.6039 40.0104 38.0044 40.9729 38.0072 41.9765V43.2395ZM45.5003 21.3274C45.1567 16.5433 43.2929 11.9944 40.1807 8.34422C40.8204 8.02622 41.5075 7.81309 42.2149 7.71273C42.8659 7.57008 43.5473 7.68679 44.1136 8.03806C44.68 8.38988 45.0867 8.94807 45.2475 9.59476L47.5219 19.4583C47.6618 20.109 47.5417 20.7884 47.188 21.3522C46.8337 21.916 46.2736 22.3197 45.6266 22.477C45.5476 22.1805 45.6464 21.6223 45.5003 21.3274L45.5003 21.3274ZM73.3874 39.4506H72.1238V38.1877C72.1238 37.4902 71.558 36.9247 70.8602 36.9247C70.1624 36.9247 69.5966 37.4902 69.5966 38.1877V39.4506H67.0694V38.1877C67.0694 37.4902 66.5036 36.9247 65.8058 36.9247C65.108 36.9247 64.5422 37.4902 64.5422 38.1877V39.4506H62.015V35.6617C62.015 34.9643 61.4492 34.3988 60.7514 34.3988C60.0537 34.3988 59.4879 34.9643 59.4879 35.6617V39.4506H56.9607V38.1877C56.9607 37.4902 56.3949 36.9247 55.6971 36.9247C54.9993 36.9247 54.4335 37.4902 54.4335 38.1877V39.4506H51.9063V38.1877C51.9063 37.4902 51.3405 36.9247 50.6427 36.9247C49.9449 36.9247 49.3791 37.4902 49.3791 38.1877V39.4506H45.5883V33.1358H73.3874V39.4506Z" fill="#D3585C"/>
<path d="M74.6514 30.6098H45.5888V25.0782C47.0205 24.8989 48.3112 24.1264 49.1449 22.9492C49.9792 21.7725 50.2793 20.2993 49.973 18.8896L47.6985 9.02607C47.3894 7.72758 46.5805 6.60334 45.4477 5.89622C44.315 5.18975 42.9493 4.95689 41.6463 5.24951C40.4887 5.39893 39.3837 5.82349 38.4242 6.4871C24.6229 -6.68559 1.25869 2.53581 0.138069 21.5922C-0.216185 27.6376 1.84226 33.5768 5.86149 38.1075C9.8813 42.639 15.5341 45.3927 21.582 45.7649H41.7995C42.8036 45.762 43.7665 45.3617 44.4767 44.6519C45.1869 43.942 45.5874 42.9801 45.5903 41.976H68.3349V44.5019C68.3502 45.8455 69.0762 47.0797 70.2427 47.7472C71.4093 48.4142 72.8421 48.4142 74.0087 47.7467C75.1752 47.0797 75.9007 45.8448 75.9165 44.5019V31.8722C75.9142 31.1759 75.3495 30.6115 74.6529 30.6093L74.6514 30.6098ZM13.999 23.032C14.0012 20.6883 14.9343 18.4408 16.5921 16.7837C18.2506 15.1261 20.4992 14.1941 22.8441 14.1913C34.5623 14.6355 34.5588 31.4311 22.8441 31.8728C20.4986 31.8706 18.2506 30.938 16.5921 29.2809C14.9343 27.6233 14.0013 25.3758 13.999 23.032ZM38.0072 43.2395C34.7625 43.1008 20.6606 43.7041 17.7897 42.5703C17.647 41.4731 17.9798 40.3674 18.7036 39.5306C19.4273 38.6939 20.4738 38.2057 21.5805 38.1876H34.2165C35.2206 38.1904 36.1835 38.5907 36.8937 39.3006C37.6039 40.0104 38.0044 40.9729 38.0072 41.9765V43.2395ZM45.5003 21.3274C45.1567 16.5433 43.2929 11.9944 40.1807 8.34422C40.8204 8.02622 41.5075 7.81309 42.2149 7.71273C42.8659 7.57008 43.5473 7.68679 44.1136 8.03806C44.68 8.38988 45.0867 8.94807 45.2475 9.59476L47.5219 19.4583C47.6618 20.109 47.5417 20.7884 47.188 21.3522C46.8337 21.916 46.2736 22.3197 45.6266 22.477C45.5476 22.1805 45.6464 21.6223 45.5003 21.3274L45.5003 21.3274ZM73.3874 39.4506H72.1238V38.1877C72.1238 37.4902 71.558 36.9247 70.8602 36.9247C70.1624 36.9247 69.5966 37.4902 69.5966 38.1877V39.4506H67.0694V38.1877C67.0694 37.4902 66.5036 36.9247 65.8058 36.9247C65.108 36.9247 64.5422 37.4902 64.5422 38.1877V39.4506H62.015V35.6617C62.015 34.9643 61.4492 34.3988 60.7514 34.3988C60.0537 34.3988 59.4879 34.9643 59.4879 35.6617V39.4506H56.9607V38.1877C56.9607 37.4902 56.3949 36.9247 55.6971 36.9247C54.9993 36.9247 54.4335 37.4902 54.4335 38.1877V39.4506H51.9063V38.1877C51.9063 37.4902 51.3405 36.9247 50.6427 36.9247C49.9449 36.9247 49.3791 37.4902 49.3791 38.1877V39.4506H45.5883V33.1358H73.3874V39.4506Z" fill="url(#paint0_linear_162_809)"/>
<path d="M72.1243 50.8174H3.89031C2.53589 50.8174 1.28413 51.5396 0.607276 52.7118C-0.0695766 53.884 -0.0696488 55.3286 0.607276 56.5007C1.2842 57.6729 2.53588 58.3952 3.89031 58.3952H72.1243C73.4697 58.3822 74.7074 57.6571 75.3769 56.4906C76.0459 55.3235 76.0459 53.8896 75.3769 52.7227C74.7073 51.5556 73.4696 50.8305 72.1243 50.8175V50.8174ZM72.1243 55.8693H3.89031C3.20041 55.858 2.64702 55.2958 2.64702 54.6063C2.64702 53.9167 3.2004 53.3546 3.89031 53.3433H72.1243C72.8142 53.3546 73.3676 53.9167 73.3676 54.6063C73.3676 55.2958 72.8142 55.858 72.1243 55.8693Z" fill="#D3585C"/>
<path d="M72.1243 50.8174H3.89031C2.53589 50.8174 1.28413 51.5396 0.607276 52.7118C-0.0695766 53.884 -0.0696488 55.3286 0.607276 56.5007C1.2842 57.6729 2.53588 58.3952 3.89031 58.3952H72.1243C73.4697 58.3822 74.7074 57.6571 75.3769 56.4906C76.0459 55.3235 76.0459 53.8896 75.3769 52.7227C74.7073 51.5556 73.4696 50.8305 72.1243 50.8175V50.8174ZM72.1243 55.8693H3.89031C3.20041 55.858 2.64702 55.2958 2.64702 54.6063C2.64702 53.9167 3.2004 53.3546 3.89031 53.3433H72.1243C72.8142 53.3546 73.3676 53.9167 73.3676 54.6063C73.3676 55.2958 72.8142 55.858 72.1243 55.8693Z" fill="url(#paint1_linear_162_809)"/>
</g>
<defs>
<linearGradient id="paint0_linear_162_809" x1="38.0077" y1="0.308594" x2="38.0077" y2="48.2474" gradientUnits="userSpaceOnUse">
<stop stop-color="#BF4347"/>
<stop offset="1" stop-color="#D3585C" stop-opacity="0"/>
</linearGradient>
<linearGradient id="paint1_linear_162_809" x1="37.9891" y1="50.8174" x2="37.9891" y2="58.3952" gradientUnits="userSpaceOnUse">
<stop stop-color="#BF4347"/>
<stop offset="1" stop-color="#D3585C" stop-opacity="0"/>
</linearGradient>
<clipPath id="clip0_162_809">
<rect width="76" height="59" fill="white"/>
</clipPath>
</defs>
</svg>
