<svg width="46" height="45" viewBox="0 0 46 45" fill="none" xmlns="http://www.w3.org/2000/svg">
<g clip-path="url(#clip0_162_721)">
<path d="M3.77124 3.375H24.6032V11.3438H3.77124V3.375Z" fill="#FDF7F2"/>
<path d="M3.77124 33.6562H19.7958V41.625H3.77124V33.6562Z" fill="#FDF7F2"/>
<path d="M34.2171 3.70477L30.6806 0.1875H30.2109V4.17188H34.2171L34.2171 3.70477Z" fill="#FDF7F2"/>
<path d="M23.0008 25.4548V17.7188C23.0008 17.4 23.1918 17.1118 23.4861 16.9863L34.218 12.4124V5.76562H29.4107C28.9682 5.76562 28.6094 5.40881 28.6094 4.96875V0.1875H1.36764C0.925174 0.1875 0.566406 0.544318 0.566406 0.984375V44.0156C0.566406 44.2269 0.650822 44.4297 0.801052 44.5791C0.951282 44.7285 1.15517 44.8125 1.36764 44.8125H33.4168C33.6293 44.8125 33.8332 44.7285 33.9834 44.5791C34.1336 44.4297 34.218 44.2269 34.218 44.0156V42.0345L30.047 39.075C27.869 37.5247 26.0938 35.4805 24.8687 33.1119C23.6432 30.7433 23.0029 28.1187 23.0008 25.4548H23.0008ZM2.16879 2.57767C2.16879 2.13761 2.52756 1.78079 2.97002 1.78079H25.4044C25.6169 1.78079 25.8208 1.86475 25.971 2.01417C26.1213 2.16358 26.2057 2.36636 26.2057 2.57767V12.1402C26.2057 12.3515 26.1213 12.5543 25.971 12.7037C25.8208 12.8531 25.6169 12.937 25.4044 12.937H2.97002C2.52756 12.937 2.16879 12.5802 2.16879 12.1402V2.57767ZM21.3983 42.4214C21.3983 42.6327 21.3139 42.8355 21.1637 42.9849C21.0134 43.1343 20.8095 43.2183 20.5971 43.2183H2.97002C2.52756 43.2183 2.16879 42.8615 2.16879 42.4214V32.8589C2.16879 32.4189 2.52756 32.062 2.97002 32.062H20.5971C20.8095 32.062 21.0134 32.146 21.1637 32.2954C21.3139 32.4448 21.3983 32.6476 21.3983 32.8589V42.4214ZM21.3983 28.0777H2.16879V26.4839H21.3983V28.0777ZM21.3983 23.2964H2.16879V21.7027H21.3983V23.2964ZM21.3983 18.5152H2.16879V16.9214H21.3983V18.5152Z" fill="#FDF7F2"/>
<path d="M35.0195 13.8047L24.6035 18.2441V25.4551C24.606 27.8646 25.1855 30.2388 26.294 32.3815C27.4024 34.5238 29.0082 36.373 30.9779 37.7757L35.0195 40.6459L39.0611 37.7771C41.0313 36.3745 42.637 34.5253 43.7454 32.3823C44.8538 30.2396 45.4334 27.8649 45.4355 25.4552V18.2441L35.0195 13.8047ZM43.833 25.1376C43.8427 29.2554 41.9598 33.1515 38.7213 35.7165L35.5203 38.2665C35.2277 38.4998 34.8113 38.4998 34.5187 38.2665L31.3177 35.7165C28.0792 33.1519 26.1963 29.2558 26.206 25.1376V20.1095C26.2056 19.7836 26.4049 19.4905 26.7092 19.3692L34.7215 16.1817C34.9129 16.1059 35.1261 16.1059 35.3175 16.1817L43.3298 19.3692C43.6341 19.4905 43.8334 19.7836 43.833 20.1095V25.1376Z" fill="#FDF7F2"/>
<path d="M27.8086 20.6477V25.1365C27.7997 28.7694 29.4612 32.207 32.3188 34.4695L35.0197 36.6196L37.7206 34.468C40.5778 32.2058 42.239 28.769 42.2308 25.1369V20.648L35.0197 17.7793L27.8086 20.6477Z" fill="#FDF7F2"/>
</g>
<defs>
<clipPath id="clip0_162_721">
<rect width="46" height="45" fill="white"/>
</clipPath>
</defs>
</svg>
