<svg width="14" height="19" viewBox="0 0 14 19" fill="none" xmlns="http://www.w3.org/2000/svg">
<g clip-path="url(#clip0_75_1698)">
<path d="M2.34335 0.00488281H11.6571C11.7871 0.00488281 11.905 0.0601582 11.9904 0.149292L13.1871 1.40093C13.279 1.49702 13.3249 1.62323 13.3249 1.74931L13.3252 16.196C13.3252 16.468 13.1141 16.6889 12.854 16.6889H1.14643C0.886354 16.6889 0.675293 16.468 0.675293 16.196V1.74931C0.675293 1.61333 0.727898 1.49006 0.813394 1.40093L2.01011 0.149292C2.102 0.0531961 2.2227 0.00515006 2.3434 0.00488281H2.34335ZM0.112183 17.259H13.888V18.8707H0.112183V17.259ZM5.66503 6.90462V4.46505H2.08928V6.90462H5.66503ZM2.08928 13.2623H10.1838V15.2101H2.08928V13.2623ZM8.28958 12.7697V10.33H2.08928V12.7697H8.28958ZM2.08928 7.39735H7.00024V9.83707H2.08928V7.39735ZM11.462 0.990301H2.5385L1.61784 1.95324V15.7027H12.3828V1.95324L11.462 0.990301Z" fill="#D3585C"/>
<path d="M2.34335 0.00488281H11.6571C11.7871 0.00488281 11.905 0.0601582 11.9904 0.149292L13.1871 1.40093C13.279 1.49702 13.3249 1.62323 13.3249 1.74931L13.3252 16.196C13.3252 16.468 13.1141 16.6889 12.854 16.6889H1.14643C0.886354 16.6889 0.675293 16.468 0.675293 16.196V1.74931C0.675293 1.61333 0.727898 1.49006 0.813394 1.40093L2.01011 0.149292C2.102 0.0531961 2.2227 0.00515006 2.3434 0.00488281H2.34335ZM0.112183 17.259H13.888V18.8707H0.112183V17.259ZM5.66503 6.90462V4.46505H2.08928V6.90462H5.66503ZM2.08928 13.2623H10.1838V15.2101H2.08928V13.2623ZM8.28958 12.7697V10.33H2.08928V12.7697H8.28958ZM2.08928 7.39735H7.00024V9.83707H2.08928V7.39735ZM11.462 0.990301H2.5385L1.61784 1.95324V15.7027H12.3828V1.95324L11.462 0.990301Z" fill="url(#paint0_linear_75_1698)"/>
</g>
<defs>
<linearGradient id="paint0_linear_75_1698" x1="7.00008" y1="0.00488281" x2="7.00008" y2="18.8707" gradientUnits="userSpaceOnUse">
<stop stop-color="#B13A3E"/>
<stop offset="1" stop-color="#D3585C" stop-opacity="0"/>
</linearGradient>
<clipPath id="clip0_75_1698">
<rect width="14" height="19" fill="white"/>
</clipPath>
</defs>
</svg>
