<svg width="16" height="17" viewBox="0 0 16 17" fill="none" xmlns="http://www.w3.org/2000/svg">
<g clip-path="url(#clip0_75_1701)">
<path d="M0.963193 1.85702H1.7748V5.54912L0.682033 5.54925C0.545146 5.54925 0.437604 5.66407 0.437604 5.8044V16.6054C0.437604 16.7458 0.545149 16.8606 0.682033 16.8606H14.9135C15.0504 16.8606 15.1579 16.7458 15.1579 16.6054V14.0615C15.1579 13.9212 15.0504 13.8063 14.9135 13.8063H13.9211V10.461C14.1152 10.6277 14.3073 10.7987 14.4955 10.979C14.6519 11.1168 14.8499 11.1933 15.0528 11.1933C15.3266 11.1933 15.5784 11.0632 15.7422 10.8386C16.0282 10.4456 15.9573 9.87922 15.5809 9.57293L3.96959 0.208172C3.81564 0.085913 3.62979 0.0195312 3.43679 0.0195312H0.963011C0.728277 0.0195312 0.508397 0.113979 0.342171 0.290061C0.17582 0.463581 0.0830078 0.693227 0.0830078 0.938131C0.0830078 1.44598 0.478945 1.85673 0.963008 1.85673L0.963193 1.85702ZM3.26829 1.95915L12.7871 9.54282L13.4324 10.0563V13.8065H12.5108V11.8877C12.5108 11.7473 12.4008 11.6325 12.2664 11.6325H9.82444V9.89733C9.82444 9.757 9.71689 9.64218 9.58001 9.64218H7.14282V7.90698C7.14282 7.76409 7.03282 7.65183 6.89839 7.65183H4.28281V5.8044C4.28281 5.66408 4.17281 5.54925 4.03838 5.54925L2.26364 5.54938V1.85695H2.97986C3.0825 1.85695 3.18526 1.89527 3.26837 1.95909L3.26829 1.95915Z" fill="#D3585C"/>
<path d="M0.963193 1.85702H1.7748V5.54912L0.682033 5.54925C0.545146 5.54925 0.437604 5.66407 0.437604 5.8044V16.6054C0.437604 16.7458 0.545149 16.8606 0.682033 16.8606H14.9135C15.0504 16.8606 15.1579 16.7458 15.1579 16.6054V14.0615C15.1579 13.9212 15.0504 13.8063 14.9135 13.8063H13.9211V10.461C14.1152 10.6277 14.3073 10.7987 14.4955 10.979C14.6519 11.1168 14.8499 11.1933 15.0528 11.1933C15.3266 11.1933 15.5784 11.0632 15.7422 10.8386C16.0282 10.4456 15.9573 9.87922 15.5809 9.57293L3.96959 0.208172C3.81564 0.085913 3.62979 0.0195312 3.43679 0.0195312H0.963011C0.728277 0.0195312 0.508397 0.113979 0.342171 0.290061C0.17582 0.463581 0.0830078 0.693227 0.0830078 0.938131C0.0830078 1.44598 0.478945 1.85673 0.963008 1.85673L0.963193 1.85702ZM3.26829 1.95915L12.7871 9.54282L13.4324 10.0563V13.8065H12.5108V11.8877C12.5108 11.7473 12.4008 11.6325 12.2664 11.6325H9.82444V9.89733C9.82444 9.757 9.71689 9.64218 9.58001 9.64218H7.14282V7.90698C7.14282 7.76409 7.03282 7.65183 6.89839 7.65183H4.28281V5.8044C4.28281 5.66408 4.17281 5.54925 4.03838 5.54925L2.26364 5.54938V1.85695H2.97986C3.0825 1.85695 3.18526 1.89527 3.26837 1.95909L3.26829 1.95915Z" fill="url(#paint0_linear_75_1701)"/>
</g>
<defs>
<linearGradient id="paint0_linear_75_1701" x1="8.00028" y1="0.0195312" x2="8.00028" y2="16.8606" gradientUnits="userSpaceOnUse">
<stop stop-color="#B13A3E"/>
<stop offset="1" stop-color="#D3585C" stop-opacity="0"/>
</linearGradient>
<clipPath id="clip0_75_1701">
<rect width="16" height="17" fill="white"/>
</clipPath>
</defs>
</svg>
