<svg width="69" height="69" viewBox="0 0 69 69" fill="none" xmlns="http://www.w3.org/2000/svg">
<g clip-path="url(#clip0_2_1194)">
<path d="M65.4425 18.9952C63.7512 17.4988 61.813 16.2753 59.6978 15.3933C56.8106 10.5062 51.5724 7.15877 45.5236 6.92811C43.7884 5.11794 41.7492 3.59632 39.488 2.44595C42.0665 0.908087 45.0805 0.0244141 48.3011 0.0244141C57.8169 0.0244141 65.5301 7.73735 65.5301 17.2519C65.5301 17.8403 65.5007 18.4217 65.443 18.9946L65.4425 18.9952Z" fill="#D3585C"/>
<path d="M65.4425 18.9952C63.7512 17.4988 61.813 16.2753 59.6978 15.3933C56.8106 10.5062 51.5724 7.15877 45.5236 6.92811C43.7884 5.11794 41.7492 3.59632 39.488 2.44595C42.0665 0.908087 45.0805 0.0244141 48.3011 0.0244141C57.8169 0.0244141 65.5301 7.73735 65.5301 17.2519C65.5301 17.8403 65.5007 18.4217 65.443 18.9946L65.4425 18.9952Z" fill="url(#paint0_linear_2_1194)"/>
<path d="M29.35 3.47046C20.2214 3.47046 12.6024 9.92301 10.8008 18.5183C4.50332 21.0807 0.0610352 27.2592 0.0610352 34.4817C0.0610352 43.9968 7.77397 51.7107 17.2885 51.7107H51.7464C61.261 51.7107 68.9739 43.9971 68.9739 34.4817C68.9739 26.8968 64.0759 20.4631 57.272 18.1594C55.0454 13.5476 50.3257 10.3616 44.8543 10.3616C44.5641 10.3616 44.2763 10.3703 43.9896 10.3881C40.5181 6.16854 35.2491 3.46997 29.3486 3.46997L29.35 3.47046Z" fill="#D3585C"/>
<path d="M29.35 3.47046C20.2214 3.47046 12.6024 9.92301 10.8008 18.5183C4.50332 21.0807 0.0610352 27.2592 0.0610352 34.4817C0.0610352 43.9968 7.77397 51.7107 17.2885 51.7107H51.7464C61.261 51.7107 68.9739 43.9971 68.9739 34.4817C68.9739 26.8968 64.0759 20.4631 57.272 18.1594C55.0454 13.5476 50.3257 10.3616 44.8543 10.3616C44.5641 10.3616 44.2763 10.3703 43.9896 10.3881C40.5181 6.16854 35.2491 3.46997 29.3486 3.46997L29.35 3.47046Z" fill="url(#paint1_linear_2_1194)"/>
<path d="M44.4923 60.1427C45.3437 58.4405 44.6538 56.3707 42.9515 55.5198C41.2492 54.6684 39.18 55.3583 38.3286 57.0606L34.8831 63.9522C34.0317 65.6544 34.7216 67.7236 36.4239 68.5751C38.1261 69.4259 40.1953 68.736 41.0468 67.0337L44.4923 60.1427Z" fill="#D3585C"/>
<path d="M44.4923 60.1427C45.3437 58.4405 44.6538 56.3707 42.9515 55.5198C41.2492 54.6684 39.18 55.3583 38.3286 57.0606L34.8831 63.9522C34.0317 65.6544 34.7216 67.7236 36.4239 68.5751C38.1261 69.4259 40.1953 68.736 41.0468 67.0337L44.4923 60.1427Z" fill="url(#paint2_linear_2_1194)"/>
<path d="M58.2745 60.1427C59.1253 58.4405 58.4354 56.3707 56.7331 55.5198C55.0309 54.6684 52.9617 55.3583 52.1102 57.0606L48.6647 63.9522C47.8139 65.6544 48.5038 67.7236 50.2055 68.5751C51.9077 69.4259 53.9775 68.736 54.8284 67.0337L58.2745 60.1427Z" fill="#D3585C"/>
<path d="M58.2745 60.1427C59.1253 58.4405 58.4354 56.3707 56.7331 55.5198C55.0309 54.6684 52.9617 55.3583 52.1102 57.0606L48.6647 63.9522C47.8139 65.6544 48.5038 67.7236 50.2055 68.5751C51.9077 69.4259 53.9775 68.736 54.8284 67.0337L58.2745 60.1427Z" fill="url(#paint3_linear_2_1194)"/>
<path d="M16.9263 60.1427C17.7772 58.4405 17.0873 56.3707 15.3849 55.5198C13.6833 54.6684 11.6135 55.3583 10.762 57.0606L7.31655 63.9522C6.46571 65.6544 7.15562 67.7236 8.85737 68.5751C10.5596 69.4259 12.6294 68.736 13.4803 67.0337L16.9263 60.1427Z" fill="#D3585C"/>
<path d="M16.9263 60.1427C17.7772 58.4405 17.0873 56.3707 15.3849 55.5198C13.6833 54.6684 11.6135 55.3583 10.762 57.0606L7.31655 63.9522C6.46571 65.6544 7.15562 67.7236 8.85737 68.5751C10.5596 69.4259 12.6294 68.736 13.4803 67.0337L16.9263 60.1427Z" fill="url(#paint4_linear_2_1194)"/>
<path d="M30.7086 60.1427C31.5594 58.4405 30.8695 56.3707 29.1677 55.5198C27.4655 54.6684 25.3957 55.3583 24.5449 57.0606L21.0988 63.9522C20.2479 65.6544 20.9378 67.7236 22.6402 68.5751C24.3418 69.4259 26.4116 68.736 27.2631 67.0337L30.7086 60.1427Z" fill="#D3585C"/>
<path d="M30.7086 60.1427C31.5594 58.4405 30.8695 56.3707 29.1677 55.5198C27.4655 54.6684 25.3957 55.3583 24.5449 57.0606L21.0988 63.9522C20.2479 65.6544 20.9378 67.7236 22.6402 68.5751C24.3418 69.4259 26.4116 68.736 27.2631 67.0337L30.7086 60.1427Z" fill="url(#paint5_linear_2_1194)"/>
</g>
<defs>
<linearGradient id="paint0_linear_2_1194" x1="52.5091" y1="0.0244141" x2="52.5091" y2="18.9952" gradientUnits="userSpaceOnUse">
<stop stop-color="#BF4347"/>
<stop offset="1" stop-color="#D3585C" stop-opacity="0"/>
</linearGradient>
<linearGradient id="paint1_linear_2_1194" x1="34.5175" y1="3.46997" x2="34.5175" y2="51.7107" gradientUnits="userSpaceOnUse">
<stop stop-color="#BF4347"/>
<stop offset="1" stop-color="#D3585C" stop-opacity="0"/>
</linearGradient>
<linearGradient id="paint2_linear_2_1194" x1="39.6877" y1="55.155" x2="39.6877" y2="68.9395" gradientUnits="userSpaceOnUse">
<stop stop-color="#BF4347"/>
<stop offset="1" stop-color="#D3585C" stop-opacity="0"/>
</linearGradient>
<linearGradient id="paint3_linear_2_1194" x1="53.4696" y1="55.155" x2="53.4696" y2="68.9395" gradientUnits="userSpaceOnUse">
<stop stop-color="#BF4347"/>
<stop offset="1" stop-color="#D3585C" stop-opacity="0"/>
</linearGradient>
<linearGradient id="paint4_linear_2_1194" x1="12.1214" y1="55.155" x2="12.1214" y2="68.9395" gradientUnits="userSpaceOnUse">
<stop stop-color="#BF4347"/>
<stop offset="1" stop-color="#D3585C" stop-opacity="0"/>
</linearGradient>
<linearGradient id="paint5_linear_2_1194" x1="25.9037" y1="55.155" x2="25.9037" y2="68.9395" gradientUnits="userSpaceOnUse">
<stop stop-color="#BF4347"/>
<stop offset="1" stop-color="#D3585C" stop-opacity="0"/>
</linearGradient>
<clipPath id="clip0_2_1194">
<rect width="69" height="69" fill="white"/>
</clipPath>
</defs>
</svg>
