<svg width="76" height="69" viewBox="0 0 76 69" fill="none" xmlns="http://www.w3.org/2000/svg">
<g opacity="0.9" clip-path="url(#clip0_2_1056)">
<path d="M68.1876 37.9258L33.865 49.9073L21.8032 15.8131L56.1258 3.83167L68.1876 37.9258ZM73.5813 45.6217L37.7878 57.7004C38.7687 62.2787 36.1207 66.9543 31.6095 68.416C26.7063 70.0719 21.3126 67.4416 19.6456 62.571C18.0765 58.0897 20.2339 53.122 24.451 51.1738L9.0545 6.07214L3.17027 8.02021C1.99371 8.40956 0.620773 7.82519 0.228165 6.55931C-0.163795 5.39057 0.424485 4.02678 1.69885 3.63678L9.74049 0.909251C10.9171 0.519899 12.29 1.10427 12.6826 2.37015L29.0594 50.1993C31.7073 50.2965 34.0605 51.5631 35.826 53.5112L72.2079 41.2374C73.3845 40.8481 74.7574 41.4325 75.15 42.6983C75.542 43.9649 74.7574 45.2314 73.5809 45.6216L73.5813 45.6217ZM32.1 59.6484C32.1 57.6025 30.433 56.0444 28.4718 56.0444C26.4121 56.0444 24.8436 57.7003 24.8436 59.6484C24.8436 61.6944 26.5106 63.2525 28.4718 63.2525C30.4329 63.3504 32.1 61.6944 32.1 59.6484Z" fill="#D3585C"/>
<path d="M68.1876 37.9258L33.865 49.9073L21.8032 15.8131L56.1258 3.83167L68.1876 37.9258ZM73.5813 45.6217L37.7878 57.7004C38.7687 62.2787 36.1207 66.9543 31.6095 68.416C26.7063 70.0719 21.3126 67.4416 19.6456 62.571C18.0765 58.0897 20.2339 53.122 24.451 51.1738L9.0545 6.07214L3.17027 8.02021C1.99371 8.40956 0.620773 7.82519 0.228165 6.55931C-0.163795 5.39057 0.424485 4.02678 1.69885 3.63678L9.74049 0.909251C10.9171 0.519899 12.29 1.10427 12.6826 2.37015L29.0594 50.1993C31.7073 50.2965 34.0605 51.5631 35.826 53.5112L72.2079 41.2374C73.3845 40.8481 74.7574 41.4325 75.15 42.6983C75.542 43.9649 74.7574 45.2314 73.5809 45.6216L73.5813 45.6217ZM32.1 59.6484C32.1 57.6025 30.433 56.0444 28.4718 56.0444C26.4121 56.0444 24.8436 57.7003 24.8436 59.6484C24.8436 61.6944 26.5106 63.2525 28.4718 63.2525C30.4329 63.3504 32.1 61.6944 32.1 59.6484Z" fill="url(#paint0_linear_2_1056)"/>
</g>
<defs>
<linearGradient id="paint0_linear_2_1056" x1="37.68" y1="0.790039" x2="37.68" y2="68.9117" gradientUnits="userSpaceOnUse">
<stop stop-color="#BF4347"/>
<stop offset="1" stop-color="#D3585C" stop-opacity="0"/>
</linearGradient>
<clipPath id="clip0_2_1056">
<rect width="76" height="69" fill="white"/>
</clipPath>
</defs>
</svg>
