<svg width="47" height="45" viewBox="0 0 47 45" fill="none" xmlns="http://www.w3.org/2000/svg">
<g clip-path="url(#clip0_82_44)">
<path d="M30.0195 22.5V40.0312H35.724V23.2969C35.724 22.8586 35.3573 22.5 34.909 22.5H30.0195Z" fill="#FDF7F2"/>
<path d="M16.166 22.5H19.4257V28.875H16.166V22.5Z" fill="#FDF7F2"/>
<path d="M12.0906 22.5C11.6423 22.5 11.2756 22.8586 11.2756 23.2969V40.0312H28.3889V22.5H21.0547V30.4688H14.5353V22.5H12.0906Z" fill="#FDF7F2"/>
<path d="M2.31148 41.625C1.41507 41.625 0.681641 42.3422 0.681641 43.2188C0.681641 44.0953 1.41507 44.8125 2.31148 44.8125H3.56441C2.98377 43.8264 2.98377 42.6111 3.56441 41.625H2.31148Z" fill="#FDF7F2"/>
<path d="M8.01554 43.2188C8.01554 44.0989 7.28575 44.8125 6.3857 44.8125C5.48565 44.8125 4.75586 44.0989 4.75586 43.2188C4.75586 42.3386 5.48565 41.625 6.3857 41.625C7.28575 41.625 8.01554 42.3386 8.01554 43.2188Z" fill="#FDF7F2"/>
<path d="M9.20898 41.625C9.78962 42.6111 9.78962 43.8264 9.20898 44.8125H14.9745C14.3939 43.8264 14.3939 42.6111 14.9745 41.625H9.20898Z" fill="#FDF7F2"/>
<path d="M38.9826 22.5C38.9826 14.1528 32.0354 7.35938 23.4991 7.35938C14.9628 7.35938 8.01562 14.1528 8.01562 22.5C8.01562 24.8408 8.57588 27.1618 9.64546 29.2535V23.2969C9.64546 21.982 10.7456 20.9063 12.0902 20.9063H34.908C36.2526 20.9063 37.3527 21.982 37.3527 23.2969V29.2535C38.4223 27.1517 38.9826 24.8408 38.9826 22.5ZM13.0374 18.0375L11.54 17.4C11.9474 16.4936 12.4568 15.6369 13.0578 14.85L14.3617 15.8063C13.8422 16.4936 13.3939 17.2506 13.0374 18.0375ZM15.747 14.3221L14.6367 13.1467C15.472 12.3897 16.4091 11.7422 17.4176 11.2142L18.1815 12.6188C17.2953 13.0869 16.4702 13.6547 15.7469 14.3221H15.747ZM33.9602 18.0375C31.5664 12.6785 25.3425 10.0389 19.6996 11.9813L19.1597 10.4771C25.6077 8.25579 32.7181 11.274 35.4581 17.4L33.9602 18.0375Z" fill="#FDF7F2"/>
<path d="M19.4257 43.2188C19.4257 44.0989 18.6959 44.8125 17.7959 44.8125C16.8958 44.8125 16.166 44.0989 16.166 43.2188C16.166 42.3386 16.8958 41.625 17.7959 41.625C18.6959 41.625 19.4257 42.3386 19.4257 43.2188Z" fill="#FDF7F2"/>
<path d="M43.8928 19.432L42.7315 15.1886L44.1679 12.8876L42.3445 9.80969L39.5942 9.87941L36.416 6.76167L36.4873 4.07224L33.3396 2.28925L30.9865 3.69375L26.6471 2.55818L25.3228 0.1875H21.6862L20.3619 2.55818L16.0225 3.69375L13.6693 2.28925L10.5217 4.07224L10.593 6.76167L7.40468 9.86949L4.65435 9.79976L2.83098 12.8777L4.26729 15.1787L3.106 19.4221L0.681641 20.717V24.2731L3.106 25.5681L4.26729 29.8114L2.83098 32.1124L4.75624 35.2501H7.201L9.64575 37.4017V32.3116C7.52696 29.4628 6.38608 26.0262 6.38608 22.5005C6.38608 13.2768 14.0667 5.76612 23.4994 5.76612C32.9321 5.76612 40.6127 13.2767 40.6127 22.5005C40.6127 26.0267 39.4718 29.4632 37.353 32.3116V37.4017L39.7978 35.2501H42.2425L44.1678 32.1124L42.7315 29.8114L43.8928 25.5681L46.3171 24.2731V20.717L43.8928 19.432Z" fill="#FDF7F2"/>
<path d="M42.2421 43.2188C42.2421 44.0989 41.5123 44.8125 40.6123 44.8125C39.7122 44.8125 38.9824 44.0989 38.9824 43.2188C38.9824 42.3386 39.7122 41.625 40.6123 41.625C41.5123 41.625 42.2421 42.3386 42.2421 43.2188Z" fill="#FDF7F2"/>
<path d="M44.6865 41.625H43.4336C44.0142 42.6111 44.0142 43.8264 43.4336 44.8125H44.6865C45.5829 44.8125 46.3164 44.0953 46.3164 43.2188C46.3164 42.3422 45.5829 41.625 44.6865 41.625Z" fill="#FDF7F2"/>
<path d="M30.8337 43.2188C30.8337 44.0989 30.1039 44.8125 29.2038 44.8125C28.3038 44.8125 27.574 44.0989 27.574 43.2188C27.574 42.3386 28.3038 41.625 29.2038 41.625C30.1039 41.625 30.8337 42.3386 30.8337 43.2188Z" fill="#FDF7F2"/>
<path d="M20.6172 41.625C21.1978 42.6111 21.1978 43.8264 20.6172 44.8125H26.3827C25.8021 43.8264 25.8021 42.6111 26.3827 41.625H20.6172Z" fill="#FDF7F2"/>
<path d="M32.0254 41.625C32.606 42.6111 32.606 43.8264 32.0254 44.8125H37.7909C37.2103 43.8264 37.2103 42.6111 37.7909 41.625H32.0254Z" fill="#FDF7F2"/>
<path d="M3.94141 38.8359H8.016V40.4297H3.94141V38.8359Z" fill="#FDF7F2"/>
<path d="M1.49609 36.0469H6.38561V37.6406H1.49609V36.0469Z" fill="#FDF7F2"/>
</g>
<defs>
<clipPath id="clip0_82_44">
<rect width="47" height="45" fill="white"/>
</clipPath>
</defs>
</svg>
