<svg width="35" height="69" viewBox="0 0 35 69" fill="none" xmlns="http://www.w3.org/2000/svg">
<g clip-path="url(#clip0_2_1203)">
<path d="M24.227 36.3914V7.1351C24.227 5.23696 23.4874 3.45729 22.1496 2.12843C20.8165 0.786259 19.0373 0.0471191 17.1381 0.0471191C13.2294 0.0471191 10.0497 3.22681 10.0497 7.13551L10.0502 36.3918C8.66475 37.0243 7.37182 37.8399 6.1994 38.8218H6.19993C2.32497 42.0663 0.102295 46.8266 0.102295 51.8819C0.102295 61.2761 7.74447 68.9177 17.1381 68.9177C26.5317 68.9177 34.1738 61.2755 34.1738 51.8819C34.1738 45.1743 30.2876 39.1538 24.2259 36.3914H24.227ZM17.1386 67.2696C8.65393 67.2696 1.75092 60.367 1.75092 51.8819C1.75092 47.3155 3.75833 43.0159 7.25885 40.0852H7.25939C8.44516 39.0912 9.76807 38.2862 11.1928 37.6917L11.6994 37.4802L11.6989 7.13523C11.6989 4.13598 14.1396 1.6953 17.1388 1.6953C18.595 1.6953 19.9591 2.26141 20.9838 3.29399C22.0126 4.31534 22.5793 5.67941 22.5793 7.13523V37.4802L23.0854 37.6917C28.8209 40.0863 32.5266 45.6564 32.5266 51.8825C32.5266 60.3677 25.624 67.2702 17.1389 67.2702L17.1386 67.2696Z" fill="#D3585C"/>
<path d="M24.227 36.3914V7.1351C24.227 5.23696 23.4874 3.45729 22.1496 2.12843C20.8165 0.786259 19.0373 0.0471191 17.1381 0.0471191C13.2294 0.0471191 10.0497 3.22681 10.0497 7.13551L10.0502 36.3918C8.66475 37.0243 7.37182 37.8399 6.1994 38.8218H6.19993C2.32497 42.0663 0.102295 46.8266 0.102295 51.8819C0.102295 61.2761 7.74447 68.9177 17.1381 68.9177C26.5317 68.9177 34.1738 61.2755 34.1738 51.8819C34.1738 45.1743 30.2876 39.1538 24.2259 36.3914H24.227ZM17.1386 67.2696C8.65393 67.2696 1.75092 60.367 1.75092 51.8819C1.75092 47.3155 3.75833 43.0159 7.25885 40.0852H7.25939C8.44516 39.0912 9.76807 38.2862 11.1928 37.6917L11.6994 37.4802L11.6989 7.13523C11.6989 4.13598 14.1396 1.6953 17.1388 1.6953C18.595 1.6953 19.9591 2.26141 20.9838 3.29399C22.0126 4.31534 22.5793 5.67941 22.5793 7.13523V37.4802L23.0854 37.6917C28.8209 40.0863 32.5266 45.6564 32.5266 51.8825C32.5266 60.3677 25.624 67.2702 17.1389 67.2702L17.1386 67.2696Z" fill="url(#paint0_linear_2_1203)"/>
<path d="M20.628 39.6696V7.47095H13.6483V39.6696C8.34937 41.1863 4.46631 46.0569 4.46631 51.8433C4.46631 58.8418 10.1397 64.5152 17.1382 64.5152C24.1366 64.5152 29.81 58.8418 29.81 51.8433C29.81 46.0564 25.9277 41.1863 20.628 39.6696Z" fill="#D3585C"/>
<path d="M20.628 39.6696V7.47095H13.6483V39.6696C8.34937 41.1863 4.46631 46.0569 4.46631 51.8433C4.46631 58.8418 10.1397 64.5152 17.1382 64.5152C24.1366 64.5152 29.81 58.8418 29.81 51.8433C29.81 46.0564 25.9277 41.1863 20.628 39.6696Z" fill="url(#paint1_linear_2_1203)"/>
<path d="M27.2681 36.6368H32.5853C33.0411 36.6368 33.4096 36.2683 33.4096 35.8125C33.4096 35.3568 33.0411 34.9883 32.5853 34.9883H27.2681C26.8123 34.9883 26.4438 35.3568 26.4438 35.8125C26.4438 36.2678 26.8123 36.6368 27.2681 36.6368Z" fill="#D3585C"/>
<path d="M27.2681 36.6368H32.5853C33.0411 36.6368 33.4096 36.2683 33.4096 35.8125C33.4096 35.3568 33.0411 34.9883 32.5853 34.9883H27.2681C26.8123 34.9883 26.4438 35.3568 26.4438 35.8125C26.4438 36.2678 26.8123 36.6368 27.2681 36.6368Z" fill="url(#paint2_linear_2_1203)"/>
<path d="M32.5344 27.1886C32.9901 27.1886 33.3586 26.8195 33.3586 26.3643C33.3586 25.9091 32.9901 25.54 32.5344 25.54H27.2166C26.7608 25.54 26.3923 25.9091 26.3923 26.3643C26.3923 26.8195 26.7608 27.1886 27.2166 27.1886H32.5344Z" fill="#D3585C"/>
<path d="M32.5344 27.1886C32.9901 27.1886 33.3586 26.8195 33.3586 26.3643C33.3586 25.9091 32.9901 25.54 32.5344 25.54H27.2166C26.7608 25.54 26.3923 25.9091 26.3923 26.3643C26.3923 26.8195 26.7608 27.1886 27.2166 27.1886H32.5344Z" fill="url(#paint3_linear_2_1203)"/>
<path d="M32.5839 16.0938H27.2666C26.8109 16.0938 26.4424 16.4628 26.4424 16.918C26.4424 17.3732 26.8109 17.7423 27.2666 17.7423H32.5839C33.0396 17.7423 33.4081 17.3732 33.4081 16.918C33.4081 16.4628 33.0396 16.0938 32.5839 16.0938Z" fill="#D3585C"/>
<path d="M32.5839 16.0938H27.2666C26.8109 16.0938 26.4424 16.4628 26.4424 16.918C26.4424 17.3732 26.8109 17.7423 27.2666 17.7423H32.5839C33.0396 17.7423 33.4081 17.3732 33.4081 16.918C33.4081 16.4628 33.0396 16.0938 32.5839 16.0938Z" fill="url(#paint4_linear_2_1203)"/>
<path d="M27.19 8.29451H32.5077C32.9635 8.29451 33.332 7.92549 33.332 7.47025C33.332 7.01501 32.9635 6.646 32.5077 6.646H27.19C26.7342 6.646 26.3657 7.01501 26.3657 7.47025C26.3663 7.92549 26.7347 8.29451 27.19 8.29451Z" fill="#D3585C"/>
<path d="M27.19 8.29451H32.5077C32.9635 8.29451 33.332 7.92549 33.332 7.47025C33.332 7.01501 32.9635 6.646 32.5077 6.646H27.19C26.7342 6.646 26.3657 7.01501 26.3657 7.47025C26.3663 7.92549 26.7347 8.29451 27.19 8.29451Z" fill="url(#paint5_linear_2_1203)"/>
</g>
<defs>
<linearGradient id="paint0_linear_2_1203" x1="17.1381" y1="0.0471191" x2="17.1381" y2="68.9177" gradientUnits="userSpaceOnUse">
<stop stop-color="#BF4347"/>
<stop offset="1" stop-color="#D3585C" stop-opacity="0"/>
</linearGradient>
<linearGradient id="paint1_linear_2_1203" x1="17.1382" y1="7.47095" x2="17.1382" y2="64.5152" gradientUnits="userSpaceOnUse">
<stop stop-color="#BF4347"/>
<stop offset="1" stop-color="#D3585C" stop-opacity="0"/>
</linearGradient>
<linearGradient id="paint2_linear_2_1203" x1="29.9267" y1="34.9883" x2="29.9267" y2="36.6368" gradientUnits="userSpaceOnUse">
<stop stop-color="#BF4347"/>
<stop offset="1" stop-color="#D3585C" stop-opacity="0"/>
</linearGradient>
<linearGradient id="paint3_linear_2_1203" x1="29.8755" y1="25.54" x2="29.8755" y2="27.1886" gradientUnits="userSpaceOnUse">
<stop stop-color="#BF4347"/>
<stop offset="1" stop-color="#D3585C" stop-opacity="0"/>
</linearGradient>
<linearGradient id="paint4_linear_2_1203" x1="29.9252" y1="16.0938" x2="29.9252" y2="17.7423" gradientUnits="userSpaceOnUse">
<stop stop-color="#BF4347"/>
<stop offset="1" stop-color="#D3585C" stop-opacity="0"/>
</linearGradient>
<linearGradient id="paint5_linear_2_1203" x1="29.8489" y1="6.646" x2="29.8489" y2="8.29451" gradientUnits="userSpaceOnUse">
<stop stop-color="#BF4347"/>
<stop offset="1" stop-color="#D3585C" stop-opacity="0"/>
</linearGradient>
<clipPath id="clip0_2_1203">
<rect width="34.2429" height="69" fill="white"/>
</clipPath>
</defs>
</svg>
