<svg width="73" height="69" viewBox="0 0 73 69" fill="none" xmlns="http://www.w3.org/2000/svg">
<g clip-path="url(#clip0_2_1192)">
<path d="M33.5182 35.1275V37.6994C23.1279 37.6741 14.9242 34.5363 9.11175 28.3895C-0.635543 18.076 0.0842901 3.13354 0.110156 2.51629C0.187083 1.15342 1.31918 0.072998 2.68204 0.072998C13.9725 0.072998 22.8192 3.39058 28.9917 9.89789C32.6182 13.7299 34.8043 18.1279 36.1161 22.1912C37.4279 18.1279 39.614 13.7299 43.2405 9.89789C49.413 3.39073 58.2603 0.072998 69.5502 0.072998C70.913 0.072998 72.0452 1.15342 72.1221 2.51629C72.1479 3.13342 72.8678 18.0769 63.1205 28.3895C57.3079 34.5361 49.0778 37.6741 38.6611 37.7022V35.4392L51.7008 23.0942C52.7554 22.1171 52.7813 20.4964 51.8036 19.4677C50.8265 18.4389 49.2059 18.3872 48.1771 19.3649L36.2696 30.6295L24.362 19.3649C23.3074 18.3878 21.6874 18.4389 20.7097 19.4677C19.7326 20.4964 19.7837 22.1164 20.8124 23.0942L33.5182 35.1275ZM66.6573 53.6113C66.6573 53.6113 58.8899 46.6287 50.2355 51.2448C46.2439 47.112 42.2936 45.2675 38.662 44.7561V37.6988H33.5182V44.8564C27.2325 45.9908 22.675 50.3935 21.8983 51.1856C13.2928 46.7055 5.60282 53.6082 5.60282 53.6082C0.26388 57.772 0.392475 64.4078 0.561779 66.3752C0.561779 66.3752 0.688077 68.7157 3.07679 68.9856H69.1228C70.3318 68.9856 71.3784 68.1445 71.6356 66.9614C71.6362 66.962 72.979 58.5414 66.6572 53.6111L66.6573 53.6113Z" fill="#D3585C"/>
<path d="M33.5182 35.1275V37.6994C23.1279 37.6741 14.9242 34.5363 9.11175 28.3895C-0.635543 18.076 0.0842901 3.13354 0.110156 2.51629C0.187083 1.15342 1.31918 0.072998 2.68204 0.072998C13.9725 0.072998 22.8192 3.39058 28.9917 9.89789C32.6182 13.7299 34.8043 18.1279 36.1161 22.1912C37.4279 18.1279 39.614 13.7299 43.2405 9.89789C49.413 3.39073 58.2603 0.072998 69.5502 0.072998C70.913 0.072998 72.0452 1.15342 72.1221 2.51629C72.1479 3.13342 72.8678 18.0769 63.1205 28.3895C57.3079 34.5361 49.0778 37.6741 38.6611 37.7022V35.4392L51.7008 23.0942C52.7554 22.1171 52.7813 20.4964 51.8036 19.4677C50.8265 18.4389 49.2059 18.3872 48.1771 19.3649L36.2696 30.6295L24.362 19.3649C23.3074 18.3878 21.6874 18.4389 20.7097 19.4677C19.7326 20.4964 19.7837 22.1164 20.8124 23.0942L33.5182 35.1275ZM66.6573 53.6113C66.6573 53.6113 58.8899 46.6287 50.2355 51.2448C46.2439 47.112 42.2936 45.2675 38.662 44.7561V37.6988H33.5182V44.8564C27.2325 45.9908 22.675 50.3935 21.8983 51.1856C13.2928 46.7055 5.60282 53.6082 5.60282 53.6082C0.26388 57.772 0.392475 64.4078 0.561779 66.3752C0.561779 66.3752 0.688077 68.7157 3.07679 68.9856H69.1228C70.3318 68.9856 71.3784 68.1445 71.6356 66.9614C71.6362 66.962 72.979 58.5414 66.6572 53.6111L66.6573 53.6113Z" fill="url(#paint0_linear_2_1192)"/>
</g>
<defs>
<linearGradient id="paint0_linear_2_1192" x1="36.1161" y1="0.072998" x2="36.1161" y2="68.9856" gradientUnits="userSpaceOnUse">
<stop stop-color="#BF4347"/>
<stop offset="1" stop-color="#D3585C" stop-opacity="0"/>
</linearGradient>
<clipPath id="clip0_2_1192">
<rect width="72.1965" height="69" fill="white"/>
</clipPath>
</defs>
</svg>
