<svg width="15" height="17" viewBox="0 0 15 17" fill="none" xmlns="http://www.w3.org/2000/svg">
<g clip-path="url(#clip0_75_1970)">
<path d="M5.80451 2.02393V5.89059C5.80451 6.05726 5.93785 6.19059 6.10451 6.19059H8.43785C8.60451 6.19059 8.73785 6.05726 8.73785 5.89059V2.02393L9.33785 0.457259C9.37118 0.357259 9.37118 0.257259 9.30451 0.157259C9.23785 0.0572591 9.13785 0.0239258 9.03785 0.0239258H5.50451C5.40451 0.0239258 5.30451 0.0905925 5.23785 0.157259C5.17118 0.257259 5.17118 0.357259 5.20451 0.457259L5.80451 2.02393Z" fill="#D3585C"/>
<path d="M5.80451 2.02393V5.89059C5.80451 6.05726 5.93785 6.19059 6.10451 6.19059H8.43785C8.60451 6.19059 8.73785 6.05726 8.73785 5.89059V2.02393L9.33785 0.457259C9.37118 0.357259 9.37118 0.257259 9.30451 0.157259C9.23785 0.0572591 9.13785 0.0239258 9.03785 0.0239258H5.50451C5.40451 0.0239258 5.30451 0.0905925 5.23785 0.157259C5.17118 0.257259 5.17118 0.357259 5.20451 0.457259L5.80451 2.02393Z" fill="url(#paint0_linear_75_1970)"/>
<path d="M6.13868 11.9902C6.13868 12.1569 6.27201 12.2902 6.43868 12.2902H8.13868C8.30535 12.2902 8.43868 12.1569 8.43868 11.9902V10.9902L6.10535 11.4569V11.9902H6.13868Z" fill="#D3585C"/>
<path d="M6.13868 11.9902C6.13868 12.1569 6.27201 12.2902 6.43868 12.2902H8.13868C8.30535 12.2902 8.43868 12.1569 8.43868 11.9902V10.9902L6.10535 11.4569V11.9902H6.13868Z" fill="url(#paint1_linear_75_1970)"/>
<path d="M8.47091 9.75732L6.13757 10.224V10.7907L8.47091 10.324V9.75732Z" fill="#D3585C"/>
<path d="M8.47091 9.75732L6.13757 10.224V10.7907L8.47091 10.324V9.75732Z" fill="url(#paint2_linear_75_1970)"/>
<path d="M8.47091 8.55713L6.13757 9.0238V9.59046L8.47091 9.1238V8.55713Z" fill="#D3585C"/>
<path d="M8.47091 8.55713L6.13757 9.0238V9.59046L8.47091 9.1238V8.55713Z" fill="url(#paint3_linear_75_1970)"/>
<path d="M8.47078 7.19062C8.47078 7.02396 8.33744 6.89062 8.17078 6.89062H6.47078C6.30411 6.89062 6.17078 7.02396 6.17078 7.19062V8.39062L8.50411 7.92396V7.19062H8.47078Z" fill="#D3585C"/>
<path d="M8.47078 7.19062C8.47078 7.02396 8.33744 6.89062 8.17078 6.89062H6.47078C6.30411 6.89062 6.17078 7.02396 6.17078 7.19062V8.39062L8.50411 7.92396V7.19062H8.47078Z" fill="url(#paint4_linear_75_1970)"/>
<path d="M14.3048 12.9238H0.304761C0.138094 12.9238 0.00476074 13.0572 0.00476074 13.2238V14.9905C0.00476074 15.1572 0.138094 15.2905 0.304761 15.2905H6.17143V15.9238C6.17143 16.0238 6.20476 16.0905 6.27143 16.1572L7.10476 16.9238C7.17143 16.9905 7.2381 16.9905 7.30476 16.9905C7.37143 16.9905 7.4381 16.9572 7.50476 16.9238L8.3381 16.1572C8.40476 16.0905 8.4381 16.0238 8.4381 15.9238V15.2905H14.3048C14.4714 15.2905 14.6048 15.1572 14.6048 14.9905V13.2238C14.6381 13.0572 14.5048 12.9238 14.3048 12.9238Z" fill="#D3585C"/>
<path d="M14.3048 12.9238H0.304761C0.138094 12.9238 0.00476074 13.0572 0.00476074 13.2238V14.9905C0.00476074 15.1572 0.138094 15.2905 0.304761 15.2905H6.17143V15.9238C6.17143 16.0238 6.20476 16.0905 6.27143 16.1572L7.10476 16.9238C7.17143 16.9905 7.2381 16.9905 7.30476 16.9905C7.37143 16.9905 7.4381 16.9572 7.50476 16.9238L8.3381 16.1572C8.40476 16.0905 8.4381 16.0238 8.4381 15.9238V15.2905H14.3048C14.4714 15.2905 14.6048 15.1572 14.6048 14.9905V13.2238C14.6381 13.0572 14.5048 12.9238 14.3048 12.9238Z" fill="url(#paint5_linear_75_1970)"/>
</g>
<defs>
<linearGradient id="paint0_linear_75_1970" x1="7.27118" y1="0.0239258" x2="7.27118" y2="6.19059" gradientUnits="userSpaceOnUse">
<stop stop-color="#B13A3E"/>
<stop offset="1" stop-color="#D3585C" stop-opacity="0"/>
</linearGradient>
<linearGradient id="paint1_linear_75_1970" x1="7.27201" y1="10.9902" x2="7.27201" y2="12.2902" gradientUnits="userSpaceOnUse">
<stop stop-color="#B13A3E"/>
<stop offset="1" stop-color="#D3585C" stop-opacity="0"/>
</linearGradient>
<linearGradient id="paint2_linear_75_1970" x1="7.30424" y1="9.75732" x2="7.30424" y2="10.7907" gradientUnits="userSpaceOnUse">
<stop stop-color="#B13A3E"/>
<stop offset="1" stop-color="#D3585C" stop-opacity="0"/>
</linearGradient>
<linearGradient id="paint3_linear_75_1970" x1="7.30424" y1="8.55713" x2="7.30424" y2="9.59046" gradientUnits="userSpaceOnUse">
<stop stop-color="#B13A3E"/>
<stop offset="1" stop-color="#D3585C" stop-opacity="0"/>
</linearGradient>
<linearGradient id="paint4_linear_75_1970" x1="7.33744" y1="6.89062" x2="7.33744" y2="8.39062" gradientUnits="userSpaceOnUse">
<stop stop-color="#B13A3E"/>
<stop offset="1" stop-color="#D3585C" stop-opacity="0"/>
</linearGradient>
<linearGradient id="paint5_linear_75_1970" x1="7.30731" y1="12.9238" x2="7.30731" y2="16.9905" gradientUnits="userSpaceOnUse">
<stop stop-color="#B13A3E"/>
<stop offset="1" stop-color="#D3585C" stop-opacity="0"/>
</linearGradient>
<clipPath id="clip0_75_1970">
<rect width="14.6286" height="17" fill="white"/>
</clipPath>
</defs>
</svg>
