<svg width="60" height="32" viewBox="0 0 60 32" fill="none" xmlns="http://www.w3.org/2000/svg">
<g clip-path="url(#clip0_82_38)">
<path d="M48.1717 20.3282C46.7424 20.3268 45.3794 20.9233 44.42 21.9697C43.46 23.0157 42.9929 24.4148 43.1339 25.8201C43.2749 27.2253 44.0112 28.5062 45.1604 29.346H22.7585C23.9069 28.5063 24.6428 27.2259 24.7837 25.8214C24.9247 24.4165 24.4585 23.0188 23.4995 21.9723C22.5409 20.9259 21.1789 20.329 19.7505 20.329C18.322 20.329 16.9605 20.9259 16.0014 21.9723C15.0428 23.0187 14.5762 24.4165 14.7175 25.8214C14.8585 27.2259 15.5939 28.5062 16.7423 29.346H7.87636C7.32568 29.346 6.87891 29.7871 6.87891 30.3313C6.87891 30.8759 7.32568 31.317 7.87636 31.317H48.8452C49.3959 31.317 49.8426 30.8759 49.8426 30.3313C49.8399 30.2402 49.825 30.1496 49.797 30.0625C51.3258 29.5527 52.5166 28.3532 53.0026 26.8326C53.4887 25.3125 53.2118 23.6544 52.2572 22.3692C51.3027 21.0834 49.7848 20.3254 48.1717 20.3281L48.1717 20.3282Z" fill="#FDF7F2"/>
<path d="M53.9998 3.80273H47.5625V11.5018L58.4879 11.4759L53.9998 3.80273Z" fill="#FDF7F2"/>
<path d="M46.5725 13.4728C46.3024 13.4817 46.0404 13.3817 45.8461 13.196C45.6519 13.0099 45.5426 12.7545 45.5426 12.4875V3.80273H37.2793V25.3262H41.8125C41.8125 23.0704 43.0299 20.9859 45.0068 19.8583C46.9836 18.7306 49.4189 18.7306 51.3958 19.8583C53.3722 20.986 54.59 23.0703 54.59 25.3262H59.0912L59.0908 13.4416L46.5725 13.4728Z" fill="#FDF7F2"/>
<path d="M11.3747 8.62109H26.9892V13.0113H7.87752V25.3255H13.3693C13.3693 23.0698 14.5872 20.9853 16.5636 19.8577C18.5405 18.73 20.9757 18.73 22.9526 19.8577C24.9294 20.9853 26.1469 23.0697 26.1469 25.3255H33.7696V0.685547H7.8648V6.65023H1.93886C1.38818 6.65023 0.941406 7.09175 0.941406 7.63595C0.941406 8.18014 1.38818 8.62166 1.93886 8.62166L11.3747 8.62109ZM27.9861 17.389C27.9861 17.9332 27.5393 18.3747 26.9886 18.3747H19.2562C18.7051 18.3747 18.2587 17.9332 18.2587 17.389C18.2587 16.8448 18.7051 16.4033 19.2562 16.4033H26.9886C27.5393 16.4033 27.9861 16.8448 27.9861 17.389Z" fill="#FDF7F2"/>
</g>
<defs>
<clipPath id="clip0_82_38">
<rect width="60" height="32" fill="white"/>
</clipPath>
</defs>
</svg>
