<svg width="50" height="69" viewBox="0 0 50 69" fill="none" xmlns="http://www.w3.org/2000/svg">
<g clip-path="url(#clip0_2_1227)">
<path d="M1.55701 35.0954L0.408936 34.1001L8.60036 24.3013C8.82997 23.9953 9.28921 23.9184 9.5957 24.148L15.1839 28.0521L14.3418 29.3534L9.36615 25.8317L1.55701 35.0954Z" fill="#D3585C"/>
<path d="M1.55701 35.0954L0.408936 34.1001L8.60036 24.3013C8.82997 23.9953 9.28921 23.9184 9.5957 24.148L15.1839 28.0521L14.3418 29.3534L9.36615 25.8317L1.55701 35.0954Z" fill="url(#paint0_linear_2_1227)"/>
<path d="M7.75777 68.9317L4.77222 47.0376C4.77222 46.8079 4.84858 46.5783 5.00183 46.3487L10.9729 40.7605L12.0447 41.9086L6.37962 47.2671L9.28876 68.7784L7.75777 68.9317Z" fill="#D3585C"/>
<path d="M7.75777 68.9317L4.77222 47.0376C4.77222 46.8079 4.84858 46.5783 5.00183 46.3487L10.9729 40.7605L12.0447 41.9086L6.37962 47.2671L9.28876 68.7784L7.75777 68.9317Z" fill="url(#paint1_linear_2_1227)"/>
<path d="M18.2457 21.1628L11.8918 13.0483C11.8154 12.8951 11.7385 12.7423 11.7385 12.5891C11.5858 8.22584 10.3608 1.94824 8.37061 1.56534L8.67658 0.0344238C12.4278 0.80017 13.1931 9.83318 13.27 12.2831L19.3944 20.2444L18.2457 21.1628Z" fill="#D3585C"/>
<path d="M18.2457 21.1628L11.8918 13.0483C11.8154 12.8951 11.7385 12.7423 11.7385 12.5891C11.5858 8.22584 10.3608 1.94824 8.37061 1.56534L8.67658 0.0344238C12.4278 0.80017 13.1931 9.83318 13.27 12.2831L19.3944 20.2444L18.2457 21.1628Z" fill="url(#paint2_linear_2_1227)"/>
<path d="M4.69573 21.316C2.16949 21.316 0.102295 20.9332 0.102295 20.9332L0.56153 19.4017C1.63324 19.6313 9.21212 20.5498 12.4273 17.5643C16.255 14.0426 21.3076 11.5169 21.5373 11.4399L22.2261 12.8176C22.1497 12.8176 17.1735 15.2676 13.4991 18.7123C11.2793 20.7805 7.6044 21.3161 4.6958 21.3161L4.69573 21.316Z" fill="#D3585C"/>
<path d="M4.69573 21.316C2.16949 21.316 0.102295 20.9332 0.102295 20.9332L0.56153 19.4017C1.63324 19.6313 9.21212 20.5498 12.4273 17.5643C16.255 14.0426 21.3076 11.5169 21.5373 11.4399L22.2261 12.8176C22.1497 12.8176 17.1735 15.2676 13.4991 18.7123C11.2793 20.7805 7.6044 21.3161 4.6958 21.3161L4.69573 21.316Z" fill="url(#paint3_linear_2_1227)"/>
<path d="M30.7236 19.9379C28.6565 16.3399 28.5038 14.8853 28.5038 13.1247C28.5038 11.3641 24.9821 10.2156 24.9821 10.2156C24.9821 10.2156 21.4604 11.3636 21.4604 13.1247C21.4604 14.8853 21.3071 16.2635 19.2406 19.9379C17.1736 23.5359 11.4321 33.1814 11.4321 43.5162C11.4321 53.8505 16.0256 62.195 24.9821 63.4964C33.9388 62.1951 38.4552 53.9273 38.4552 43.5162C38.4552 33.1055 32.7906 23.5359 30.7236 19.9379Z" fill="#D3585C"/>
<path d="M30.7236 19.9379C28.6565 16.3399 28.5038 14.8853 28.5038 13.1247C28.5038 11.3641 24.9821 10.2156 24.9821 10.2156C24.9821 10.2156 21.4604 11.3636 21.4604 13.1247C21.4604 14.8853 21.3071 16.2635 19.2406 19.9379C17.1736 23.5359 11.4321 33.1814 11.4321 43.5162C11.4321 53.8505 16.0256 62.195 24.9821 63.4964C33.9388 62.1951 38.4552 53.9273 38.4552 43.5162C38.4552 33.1055 32.7906 23.5359 30.7236 19.9379Z" fill="url(#paint4_linear_2_1227)"/>
<path d="M24.9823 64.262H24.9059C16.1789 63.037 10.7437 55.0758 10.7437 43.5162C10.7437 33.1813 16.1792 23.7656 18.4753 19.7848L18.6286 19.4789C20.7721 15.8045 20.7721 14.5795 20.7721 13.125C20.7721 10.9052 24.1405 9.68024 24.753 9.45058C24.9062 9.37422 25.0589 9.37422 25.2122 9.45058C25.901 9.6802 29.1931 10.9052 29.1931 13.125C29.1931 14.5796 29.1931 15.8809 31.3365 19.4789L31.4898 19.7848C33.7865 23.7657 39.2215 33.1816 39.2215 43.5162C39.2215 55.0755 33.786 63.0371 25.0592 64.262H24.9829H24.9823ZM24.9823 11.0578C23.8342 11.5171 22.2264 12.4355 22.2264 13.1249C22.2264 15.0387 22.0731 16.5696 19.9297 20.321L19.7764 20.627C17.5566 24.531 12.2744 33.6408 12.2744 43.5928C12.2744 54.4633 17.0205 61.5827 24.9823 62.8075C32.9435 61.5062 37.6901 54.387 37.6901 43.5162C37.6901 33.5642 32.4079 24.4546 30.1881 20.5504L30.0349 20.2444C27.8914 16.4932 27.7381 14.9621 27.7381 13.0483C27.7381 12.3595 26.2072 11.441 24.9822 11.0581L24.9823 11.0578Z" fill="#D3585C"/>
<path d="M24.9823 64.262H24.9059C16.1789 63.037 10.7437 55.0758 10.7437 43.5162C10.7437 33.1813 16.1792 23.7656 18.4753 19.7848L18.6286 19.4789C20.7721 15.8045 20.7721 14.5795 20.7721 13.125C20.7721 10.9052 24.1405 9.68024 24.753 9.45058C24.9062 9.37422 25.0589 9.37422 25.2122 9.45058C25.901 9.6802 29.1931 10.9052 29.1931 13.125C29.1931 14.5796 29.1931 15.8809 31.3365 19.4789L31.4898 19.7848C33.7865 23.7657 39.2215 33.1816 39.2215 43.5162C39.2215 55.0755 33.786 63.0371 25.0592 64.262H24.9829H24.9823ZM24.9823 11.0578C23.8342 11.5171 22.2264 12.4355 22.2264 13.1249C22.2264 15.0387 22.0731 16.5696 19.9297 20.321L19.7764 20.627C17.5566 24.531 12.2744 33.6408 12.2744 43.5928C12.2744 54.4633 17.0205 61.5827 24.9823 62.8075C32.9435 61.5062 37.6901 54.387 37.6901 43.5162C37.6901 33.5642 32.4079 24.4546 30.1881 20.5504L30.0349 20.2444C27.8914 16.4932 27.7381 14.9621 27.7381 13.0483C27.7381 12.3595 26.2072 11.441 24.9822 11.0581L24.9823 11.0578Z" fill="url(#paint5_linear_2_1227)"/>
<path d="M48.4073 35.0955L40.5988 25.8324L35.6231 29.3541L34.781 28.0527L40.3692 24.1487C40.6752 23.9191 41.135 23.9954 41.3646 24.3019L49.556 34.1007L48.4073 35.0955Z" fill="#D3585C"/>
<path d="M48.4073 35.0955L40.5988 25.8324L35.6231 29.3541L34.781 28.0527L40.3692 24.1487C40.6752 23.9191 41.135 23.9954 41.3646 24.3019L49.556 34.1007L48.4073 35.0955Z" fill="url(#paint6_linear_2_1227)"/>
<path d="M42.2065 68.9317L40.6756 68.702L43.5847 47.1907L37.9197 41.8322L38.9914 40.6841L44.9625 46.2723C45.1158 46.4256 45.2685 46.6552 45.1921 46.9611L42.2065 68.9317Z" fill="#D3585C"/>
<path d="M42.2065 68.9317L40.6756 68.702L43.5847 47.1907L37.9197 41.8322L38.9914 40.6841L44.9625 46.2723C45.1158 46.4256 45.2685 46.6552 45.1921 46.9611L42.2065 68.9317Z" fill="url(#paint7_linear_2_1227)"/>
<path d="M31.7189 21.1628L30.4939 20.2444L36.6183 12.2831C36.7715 9.91014 37.4604 0.800225 41.2117 0.0344238L41.5177 1.56534C39.5274 1.94822 38.3025 8.2253 38.1492 12.5891C38.1492 12.7423 38.0729 12.8951 37.996 13.0483L31.7189 21.1628Z" fill="#D3585C"/>
<path d="M31.7189 21.1628L30.4939 20.2444L36.6183 12.2831C36.7715 9.91014 37.4604 0.800225 41.2117 0.0344238L41.5177 1.56534C39.5274 1.94822 38.3025 8.2253 38.1492 12.5891C38.1492 12.7423 38.0729 12.8951 37.996 13.0483L31.7189 21.1628Z" fill="url(#paint8_linear_2_1227)"/>
<path d="M45.2686 21.3159C42.3594 21.3159 38.7613 20.8567 36.4653 18.7133C32.8673 15.3448 27.8147 12.8954 27.7383 12.8186L28.4271 11.4409C28.6568 11.5173 33.7094 14.0436 37.537 17.5653C40.7523 20.5508 48.4075 19.6323 49.4029 19.4027L49.4792 19.8619L49.7852 20.8573C49.8621 20.9331 47.795 21.316 45.2687 21.316L45.2686 21.3159Z" fill="#D3585C"/>
<path d="M45.2686 21.3159C42.3594 21.3159 38.7613 20.8567 36.4653 18.7133C32.8673 15.3448 27.8147 12.8954 27.7383 12.8186L28.4271 11.4409C28.6568 11.5173 33.7094 14.0436 37.537 17.5653C40.7523 20.5508 48.4075 19.6323 49.4029 19.4027L49.4792 19.8619L49.7852 20.8573C49.8621 20.9331 47.795 21.316 45.2687 21.316L45.2686 21.3159Z" fill="url(#paint9_linear_2_1227)"/>
</g>
<defs>
<linearGradient id="paint0_linear_2_1227" x1="7.79643" y1="24.0146" x2="7.79643" y2="35.0954" gradientUnits="userSpaceOnUse">
<stop stop-color="#BF4347"/>
<stop offset="1" stop-color="#D3585C" stop-opacity="0"/>
</linearGradient>
<linearGradient id="paint1_linear_2_1227" x1="8.40844" y1="40.7605" x2="8.40844" y2="68.9317" gradientUnits="userSpaceOnUse">
<stop stop-color="#BF4347"/>
<stop offset="1" stop-color="#D3585C" stop-opacity="0"/>
</linearGradient>
<linearGradient id="paint2_linear_2_1227" x1="13.8825" y1="0.0344238" x2="13.8825" y2="21.1628" gradientUnits="userSpaceOnUse">
<stop stop-color="#BF4347"/>
<stop offset="1" stop-color="#D3585C" stop-opacity="0"/>
</linearGradient>
<linearGradient id="paint3_linear_2_1227" x1="11.1642" y1="11.4399" x2="11.1642" y2="21.3161" gradientUnits="userSpaceOnUse">
<stop stop-color="#BF4347"/>
<stop offset="1" stop-color="#D3585C" stop-opacity="0"/>
</linearGradient>
<linearGradient id="paint4_linear_2_1227" x1="24.9437" y1="10.2156" x2="24.9437" y2="63.4964" gradientUnits="userSpaceOnUse">
<stop stop-color="#BF4347"/>
<stop offset="1" stop-color="#D3585C" stop-opacity="0"/>
</linearGradient>
<linearGradient id="paint5_linear_2_1227" x1="24.9826" y1="9.39331" x2="24.9826" y2="64.262" gradientUnits="userSpaceOnUse">
<stop stop-color="#BF4347"/>
<stop offset="1" stop-color="#D3585C" stop-opacity="0"/>
</linearGradient>
<linearGradient id="paint6_linear_2_1227" x1="42.1685" y1="24.0151" x2="42.1685" y2="35.0955" gradientUnits="userSpaceOnUse">
<stop stop-color="#BF4347"/>
<stop offset="1" stop-color="#D3585C" stop-opacity="0"/>
</linearGradient>
<linearGradient id="paint7_linear_2_1227" x1="41.5661" y1="40.6841" x2="41.5661" y2="68.9316" gradientUnits="userSpaceOnUse">
<stop stop-color="#BF4347"/>
<stop offset="1" stop-color="#D3585C" stop-opacity="0"/>
</linearGradient>
<linearGradient id="paint8_linear_2_1227" x1="36.0058" y1="0.0344238" x2="36.0058" y2="21.1628" gradientUnits="userSpaceOnUse">
<stop stop-color="#BF4347"/>
<stop offset="1" stop-color="#D3585C" stop-opacity="0"/>
</linearGradient>
<linearGradient id="paint9_linear_2_1227" x1="38.7628" y1="11.4409" x2="38.7628" y2="21.316" gradientUnits="userSpaceOnUse">
<stop stop-color="#BF4347"/>
<stop offset="1" stop-color="#D3585C" stop-opacity="0"/>
</linearGradient>
<clipPath id="clip0_2_1227">
<rect width="49.8276" height="69" fill="white"/>
</clipPath>
</defs>
</svg>
