<svg width="60" height="69" viewBox="0 0 60 69" fill="none" xmlns="http://www.w3.org/2000/svg">
<g clip-path="url(#clip0_2_1215)">
<path d="M56.9171 11.0662L42.6777 1.60477C41.5312 0.840419 39.9065 1.1272 39.1416 2.27373C38.3773 3.42024 38.6641 5.04494 39.8106 5.80982L41.3399 6.86095L27.7695 27.3129C18.9771 24.5417 9.42172 27.3129 4.45157 34.7674C-1.66436 44.0372 1.58436 57.0347 11.7147 63.7251C21.8449 70.5107 35.1293 68.5031 41.2453 59.2332C46.2147 51.7788 45.0683 41.936 39.1429 34.768L52.6173 14.4112L54.0506 15.367C55.1971 16.1313 56.8218 15.8446 57.5867 14.698C58.3517 13.5515 58.0649 11.8314 56.9178 11.0664L56.9171 11.0662ZM43.9203 47.3824C42.8691 57.7988 34.1727 66.0174 23.4683 66.0174C12.765 66.0174 4.06844 57.8939 3.01635 47.4776H43.9187L43.9203 47.3824Z" fill="#D3585C"/>
<path d="M56.9171 11.0662L42.6777 1.60477C41.5312 0.840419 39.9065 1.1272 39.1416 2.27373C38.3773 3.42024 38.6641 5.04494 39.8106 5.80982L41.3399 6.86095L27.7695 27.3129C18.9771 24.5417 9.42172 27.3129 4.45157 34.7674C-1.66436 44.0372 1.58436 57.0347 11.7147 63.7251C21.8449 70.5107 35.1293 68.5031 41.2453 59.2332C46.2147 51.7788 45.0683 41.936 39.1429 34.768L52.6173 14.4112L54.0506 15.367C55.1971 16.1313 56.8218 15.8446 57.5867 14.698C58.3517 13.5515 58.0649 11.8314 56.9178 11.0664L56.9171 11.0662ZM43.9203 47.3824C42.8691 57.7988 34.1727 66.0174 23.4683 66.0174C12.765 66.0174 4.06844 57.8939 3.01635 47.4776H43.9187L43.9203 47.3824Z" fill="url(#paint0_linear_2_1215)"/>
<path d="M24.6157 68.98C19.8377 68.98 15.1543 67.5467 10.9498 64.7749C0.246419 57.7032 -3.0983 43.942 3.39991 34.1937C7.12691 28.5553 13.721 25.1152 20.8891 25.1152C22.9915 25.1152 25.0943 25.402 27.1964 25.9756L39.6204 7.2438L39.0469 6.86162C38.1865 6.28806 37.6136 5.42833 37.4222 4.47254C37.2308 3.51675 37.4222 2.46574 37.9958 1.70133C38.6647 0.650194 39.8112 0.0766602 41.1497 0.0766602C41.9141 0.0766602 42.583 0.268048 43.2521 0.745619L57.4915 10.207C59.2115 11.3535 59.6896 13.6471 58.5426 15.3679C57.8736 16.4191 56.7272 16.9926 55.3886 16.9926C54.6243 16.9926 53.9554 16.8012 53.2863 16.3236L52.9041 16.0369L40.4801 34.7686C46.4053 42.4138 47.1697 52.4483 42.1048 59.902C38.4732 65.5392 31.8791 68.9794 24.6156 68.9794L24.6157 68.98ZM4.3557 48.6248C5.88499 57.9902 13.9125 64.8715 23.4699 64.8715C33.0267 64.8715 41.0543 57.9905 42.5841 48.6248H4.3557ZM2.54028 46.2357H42.965C42.4874 42.5087 40.8627 38.7813 38.187 35.5324L37.6134 34.8634L52.3303 12.6913L54.7194 14.2206C55.293 14.6028 56.2487 14.412 56.6309 13.8384C57.013 13.1694 56.9176 12.3091 56.2487 11.927L42.0093 2.46557C41.4357 2.0834 40.48 2.27419 40.0978 2.84775C39.9064 3.13453 39.8111 3.51671 39.9064 3.89888C40.0018 4.28106 40.1932 4.56784 40.48 4.75923L43.0605 6.47928L28.3435 28.7467L27.4832 28.4599C25.3809 27.7909 23.1827 27.5041 21.0804 27.5041C14.6775 27.5041 8.84773 30.4667 5.50332 35.5316C3.30515 38.6856 2.34936 42.508 2.54074 46.2354L2.54028 46.2357Z" fill="#D3585C"/>
<path d="M24.6157 68.98C19.8377 68.98 15.1543 67.5467 10.9498 64.7749C0.246419 57.7032 -3.0983 43.942 3.39991 34.1937C7.12691 28.5553 13.721 25.1152 20.8891 25.1152C22.9915 25.1152 25.0943 25.402 27.1964 25.9756L39.6204 7.2438L39.0469 6.86162C38.1865 6.28806 37.6136 5.42833 37.4222 4.47254C37.2308 3.51675 37.4222 2.46574 37.9958 1.70133C38.6647 0.650194 39.8112 0.0766602 41.1497 0.0766602C41.9141 0.0766602 42.583 0.268048 43.2521 0.745619L57.4915 10.207C59.2115 11.3535 59.6896 13.6471 58.5426 15.3679C57.8736 16.4191 56.7272 16.9926 55.3886 16.9926C54.6243 16.9926 53.9554 16.8012 53.2863 16.3236L52.9041 16.0369L40.4801 34.7686C46.4053 42.4138 47.1697 52.4483 42.1048 59.902C38.4732 65.5392 31.8791 68.9794 24.6156 68.9794L24.6157 68.98ZM4.3557 48.6248C5.88499 57.9902 13.9125 64.8715 23.4699 64.8715C33.0267 64.8715 41.0543 57.9905 42.5841 48.6248H4.3557ZM2.54028 46.2357H42.965C42.4874 42.5087 40.8627 38.7813 38.187 35.5324L37.6134 34.8634L52.3303 12.6913L54.7194 14.2206C55.293 14.6028 56.2487 14.412 56.6309 13.8384C57.013 13.1694 56.9176 12.3091 56.2487 11.927L42.0093 2.46557C41.4357 2.0834 40.48 2.27419 40.0978 2.84775C39.9064 3.13453 39.8111 3.51671 39.9064 3.89888C40.0018 4.28106 40.1932 4.56784 40.48 4.75923L43.0605 6.47928L28.3435 28.7467L27.4832 28.4599C25.3809 27.7909 23.1827 27.5041 21.0804 27.5041C14.6775 27.5041 8.84773 30.4667 5.50332 35.5316C3.30515 38.6856 2.34936 42.508 2.54074 46.2354L2.54028 46.2357Z" fill="url(#paint1_linear_2_1215)"/>
</g>
<defs>
<linearGradient id="paint0_linear_2_1215" x1="29.6885" y1="1.17822" x2="29.6885" y2="67.745" gradientUnits="userSpaceOnUse">
<stop stop-color="#BF4347"/>
<stop offset="1" stop-color="#D3585C" stop-opacity="0"/>
</linearGradient>
<linearGradient id="paint1_linear_2_1215" x1="29.6273" y1="0.0766602" x2="29.6273" y2="68.98" gradientUnits="userSpaceOnUse">
<stop stop-color="#BF4347"/>
<stop offset="1" stop-color="#D3585C" stop-opacity="0"/>
</linearGradient>
<clipPath id="clip0_2_1215">
<rect width="59.2087" height="69" fill="white"/>
</clipPath>
</defs>
</svg>
