<svg width="73" height="66" viewBox="0 0 73 66" fill="none" xmlns="http://www.w3.org/2000/svg">
<g opacity="0.9" clip-path="url(#clip0_2_1219)">
<g clip-path="url(#clip1_2_1219)">
<path d="M34.4615 12.3107C46.7812 12.3107 56.6892 22.3047 56.6892 34.5384C56.6892 46.858 46.6952 56.766 34.4615 56.766C22.2278 56.766 12.2338 46.858 12.2338 34.5384C12.2338 22.2187 22.1418 12.3107 34.4615 12.3107ZM55.9138 47.9784L47.8152 56.077L58.8429 59.0061L55.9138 47.9784ZM13.0092 21.0984L21.1078 12.9997L10.0802 10.0707L13.0092 21.0984ZM64.0123 31.6951L59.1012 28.852L59.1018 34.5384V40.2247L64.0129 37.3816L68.9234 34.5385L64.0123 31.6951ZM0 34.5382L9.82215 40.2245L9.82155 34.5382V28.8519L4.91048 31.695L0 34.5382ZM47.9015 13.0859L56.0002 21.1845L58.9292 10.1568L47.9015 13.0859ZM13.0092 47.9782L10.0802 59.0059L21.1078 56.0768L13.0092 47.9782ZM40.1477 9.8982L37.3046 4.98712L34.4615 0.0766602L28.7752 9.89881L34.4615 9.89821L40.1477 9.8982ZM28.7751 59.1782L31.6182 64.0893L34.4612 68.9997L40.1475 59.1776L34.4612 59.1782L28.7751 59.1782Z" fill="#D3585C"/>
<path d="M34.4615 12.3107C46.7812 12.3107 56.6892 22.3047 56.6892 34.5384C56.6892 46.858 46.6952 56.766 34.4615 56.766C22.2278 56.766 12.2338 46.858 12.2338 34.5384C12.2338 22.2187 22.1418 12.3107 34.4615 12.3107ZM55.9138 47.9784L47.8152 56.077L58.8429 59.0061L55.9138 47.9784ZM13.0092 21.0984L21.1078 12.9997L10.0802 10.0707L13.0092 21.0984ZM64.0123 31.6951L59.1012 28.852L59.1018 34.5384V40.2247L64.0129 37.3816L68.9234 34.5385L64.0123 31.6951ZM0 34.5382L9.82215 40.2245L9.82155 34.5382V28.8519L4.91048 31.695L0 34.5382ZM47.9015 13.0859L56.0002 21.1845L58.9292 10.1568L47.9015 13.0859ZM13.0092 47.9782L10.0802 59.0059L21.1078 56.0768L13.0092 47.9782ZM40.1477 9.8982L37.3046 4.98712L34.4615 0.0766602L28.7752 9.89881L34.4615 9.89821L40.1477 9.8982ZM28.7751 59.1782L31.6182 64.0893L34.4612 68.9997L40.1475 59.1776L34.4612 59.1782L28.7751 59.1782Z" fill="url(#paint0_linear_2_1219)"/>
</g>
</g>
<defs>
<linearGradient id="paint0_linear_2_1219" x1="34.4617" y1="0.0766602" x2="34.4617" y2="68.9997" gradientUnits="userSpaceOnUse">
<stop stop-color="#BF4347"/>
<stop offset="1" stop-color="#D3585C" stop-opacity="0"/>
</linearGradient>
<clipPath id="clip0_2_1219">
<rect width="73" height="66" fill="white"/>
</clipPath>
<clipPath id="clip1_2_1219">
<rect width="69" height="69" fill="white"/>
</clipPath>
</defs>
</svg>
