<svg width="37" height="37" viewBox="0 0 37 37" fill="none" xmlns="http://www.w3.org/2000/svg">
<path d="M9.25 0C7.97812 0 6.9375 1.04062 6.9375 2.3125V34.6875C6.9375 35.9594 7.97812 37 9.25 37H32.375C33.6469 37 34.6875 35.9594 34.6875 34.6875V9.25L25.4375 0H9.25Z" fill="#E2E5E7"/>
<path d="M27.75 9.25H34.6875L25.4375 0V6.9375C25.4375 8.20938 26.4781 9.25 27.75 9.25Z" fill="#B0B7BD"/>
<path d="M34.6875 16.1875L27.75 9.25H34.6875V16.1875Z" fill="#CAD1D8"/>
<path d="M30.0625 30.0625C30.0625 30.6984 29.5422 31.2188 28.9062 31.2188H3.46875C2.83281 31.2188 2.3125 30.6984 2.3125 30.0625V18.5C2.3125 17.8641 2.83281 17.3438 3.46875 17.3438H28.9062C29.5422 17.3438 30.0625 17.8641 30.0625 18.5V30.0625Z" fill="#F15642"/>
<path d="M7.35254 21.9073C7.35254 21.602 7.59304 21.269 7.98038 21.269H10.116C11.3185 21.269 12.4007 22.0738 12.4007 23.6162C12.4007 25.0777 11.3185 25.8917 10.116 25.8917H8.57238V27.1127C8.57238 27.5197 8.31338 27.7498 7.98038 27.7498C7.67513 27.7498 7.35254 27.5197 7.35254 27.1127V21.9073ZM8.57238 22.4334V24.7366H10.116C10.7357 24.7366 11.226 24.1897 11.226 23.6162C11.226 22.9699 10.7357 22.4334 10.116 22.4334H8.57238Z" fill="white"/>
<path d="M14.2115 27.7496C13.9062 27.7496 13.5732 27.5831 13.5732 27.1772V21.9256C13.5732 21.5937 13.9062 21.3521 14.2115 21.3521H16.3286C20.5535 21.3521 20.461 27.7496 16.4118 27.7496H14.2115ZM14.7942 22.4806V26.6222H16.3286C18.8249 26.6222 18.9359 22.4806 16.3286 22.4806H14.7942Z" fill="white"/>
<path d="M21.9594 22.5547V24.0243H24.317C24.65 24.0243 24.983 24.3573 24.983 24.6799C24.983 24.9852 24.65 25.2349 24.317 25.2349H21.9594V27.1763C21.9594 27.5 21.7293 27.7486 21.4056 27.7486C20.9986 27.7486 20.75 27.5 20.75 27.1763V21.9246C20.75 21.5927 20.9998 21.3511 21.4056 21.3511H24.6512C25.0582 21.3511 25.2987 21.5927 25.2987 21.9246C25.2987 22.2206 25.0582 22.5536 24.6512 22.5536H21.9594V22.5547Z" fill="white"/>
<path d="M28.9062 31.2188H6.9375V32.375H28.9062C29.5422 32.375 30.0625 31.8547 30.0625 31.2188V30.0625C30.0625 30.6984 29.5422 31.2188 28.9062 31.2188Z" fill="#CAD1D8"/>
</svg>
