<svg width="21" height="21" viewBox="0 0 21 21" fill="none" xmlns="http://www.w3.org/2000/svg">
<g clip-path="url(#clip0_92_9886)">
<path d="M20.1516 15.4393L16.0645 13.3325C15.4957 13.0376 14.7794 13.185 14.3791 13.6907L12.8832 15.6078C11.4295 14.8284 10.313 14.07 9.02791 12.7848C7.65861 11.4155 6.92118 10.2778 6.16275 8.86632L8.05874 7.39165C8.56439 6.99133 8.73297 6.27508 8.41686 5.70622L6.31013 1.64023C5.93099 0.923978 5.02502 0.692237 4.37194 1.13458L1.78069 2.86217C1.16982 3.26249 0.832701 3.95771 0.874873 4.67396C0.917049 5.41139 1.02242 6.33821 1.19082 6.99144C1.94925 9.89877 3.76104 12.9114 6.31018 15.4605C8.8594 18.0097 11.872 19.8214 14.7792 20.5799C15.4323 20.7484 16.3593 20.8326 17.1177 20.8958C17.8552 20.938 18.5502 20.5799 18.9505 19.9688L20.636 17.3354C21.0997 16.6824 20.8468 15.7975 20.1516 15.4393L20.1516 15.4393Z" fill="#515151"/>
<path d="M11.0294 3.3886C12.799 3.87311 14.4003 4.80011 15.7064 6.10621C17.0125 7.41231 17.9395 9.01354 18.424 10.7832C18.5082 11.0991 18.8031 11.3098 19.1192 11.3098C19.1824 11.3098 19.2456 11.3098 19.3088 11.2888C19.6879 11.1835 19.9196 10.7832 19.8144 10.404C19.2667 8.40264 18.2133 6.56975 16.7385 5.09503C15.2638 3.62036 13.4309 2.54581 11.4295 2.01913C11.0504 1.91376 10.6501 2.14551 10.5447 2.52478C10.4183 2.90407 10.6501 3.28336 11.0294 3.38858L11.0294 3.3886Z" fill="#515151"/>
<path d="M12.1881 5.43235C11.8299 5.26379 11.4086 5.41134 11.2401 5.76946C11.0715 6.12759 11.2191 6.54892 11.5772 6.71745C12.3356 7.07558 13.0309 7.58125 13.6207 8.17114C14.2316 8.78201 14.7163 9.45624 15.0744 10.2147C15.2008 10.4674 15.4535 10.615 15.7275 10.615C15.8328 10.615 15.9382 10.594 16.0434 10.5518C16.4015 10.3832 16.5491 9.96191 16.3805 9.6038C15.938 8.69798 15.3482 7.87621 14.6319 7.15995C13.9157 6.46473 13.0941 5.87485 12.1881 5.43236L12.1881 5.43235Z" fill="#515151"/>
</g>
<defs>
<clipPath id="clip0_92_9886">
<rect width="21" height="21" fill="white"/>
</clipPath>
</defs>
</svg>
