<svg width="70" height="60" viewBox="0 0 70 60" fill="none" xmlns="http://www.w3.org/2000/svg">
<path d="M66.1673 26.3629H64.6932C63.5872 22.3923 61.4497 18.7964 58.4274 15.8001L63.5137 8.00902C64.0299 7.25964 63.5872 6.21089 62.6293 6.06132C59.8281 5.6119 54.0784 5.46192 47.5181 9.05771C47.4446 9.13244 47.297 9.13244 47.2235 9.20769C45.8228 8.75827 44.3487 8.45831 42.8746 8.15889C40.3679 3.3637 35.4293 0.0673828 29.68 0.0673828C21.4978 0.0673828 14.8637 6.80959 14.8637 15.1256C14.8637 16.2491 15.0112 17.2979 15.2323 18.3467C13.6107 20.4444 12.3575 22.842 11.5467 25.3137C10.8094 25.3137 9.99846 25.3137 9.18762 25.2389C9.40872 24.6395 9.62981 23.9654 9.85091 23.1413C10.2931 21.4183 9.85091 19.9948 8.81896 19.0961C7.86053 18.272 6.38643 18.1972 5.2069 18.7966C4.02737 19.396 3.36407 20.6695 3.43765 22.1677C3.51118 23.6659 4.10095 24.8647 5.2069 25.7636C5.57557 26.063 6.01776 26.2883 6.45995 26.513C6.01775 27.0376 5.64908 27.3371 5.13338 27.3371H5.05985C3.8068 27.3371 2.40619 25.5389 1.89046 23.966C1.74289 23.4413 1.22716 23.1419 0.710936 23.3666C0.194695 23.5165 -0.0999326 24.0407 0.121167 24.5654C0.858506 26.8876 2.84841 29.2852 5.13338 29.2852C6.09181 29.2852 7.27079 28.7605 8.30277 27.1129C9.2612 27.2629 10.2192 27.3376 11.03 27.3376C10.7354 28.8358 10.5138 30.334 10.5138 31.8329C10.5138 39.6239 14.7891 46.5914 21.3496 50.9366L20.6122 57.6041C20.4647 58.8776 21.4231 59.9264 22.6762 59.9264H28.6468C29.6788 59.9264 30.5632 59.177 30.7108 58.1283L31.0794 55.0565C33.291 55.5812 35.6495 55.8807 38.082 55.8807C40.5146 55.8807 42.8731 55.5812 45.0846 55.0565L45.4533 58.1283C45.6009 59.1771 46.4853 59.9264 47.5173 59.9264H53.4879C54.7409 59.9264 55.6994 58.8029 55.5518 57.6041L54.742 51.0108C59.0174 48.1638 62.3344 44.1933 64.1037 39.6986H66.3152C68.0105 39.6986 69.4111 38.275 69.4111 36.5521V29.5851C69.2636 27.7864 67.8626 26.3629 66.1673 26.3629ZM7.93414 22.767C7.71304 23.5911 7.49194 24.2652 7.27084 24.8647C6.90218 24.7147 6.5335 24.5652 6.31242 24.2653C5.64912 23.7406 5.35399 23.0665 5.28046 22.1676C5.20694 21.2687 5.64913 20.8194 6.0178 20.5941C6.2389 20.5194 6.46 20.4441 6.6811 20.4441C6.97573 20.4441 7.27087 20.5188 7.5655 20.7436C8.0077 21.1188 8.15524 21.7929 7.93414 22.767ZM29.7532 27.1122C23.3403 27.1122 18.18 21.8681 18.1065 15.35V15.2C18.1065 8.68245 23.3404 3.36325 29.7532 3.36325C33.4388 3.36325 36.7558 5.16138 38.8937 7.8585C40.4419 9.88138 41.3998 12.4284 41.3998 15.2002C41.3998 21.7929 36.1665 27.1122 29.7532 27.1122ZM55.7001 24.7899C54.5206 24.7899 53.6361 23.8158 53.6361 22.6922C53.6361 21.4934 54.5946 20.5946 55.7001 20.5946C56.8796 20.5946 57.7641 21.5686 57.7641 22.6922C57.8376 23.8158 56.8797 24.7899 55.7001 24.7899Z" fill="#D3585C"/>
<path d="M66.1673 26.3629H64.6932C63.5872 22.3923 61.4497 18.7964 58.4274 15.8001L63.5137 8.00902C64.0299 7.25964 63.5872 6.21089 62.6293 6.06132C59.8281 5.6119 54.0784 5.46192 47.5181 9.05771C47.4446 9.13244 47.297 9.13244 47.2235 9.20769C45.8228 8.75827 44.3487 8.45831 42.8746 8.15889C40.3679 3.3637 35.4293 0.0673828 29.68 0.0673828C21.4978 0.0673828 14.8637 6.80959 14.8637 15.1256C14.8637 16.2491 15.0112 17.2979 15.2323 18.3467C13.6107 20.4444 12.3575 22.842 11.5467 25.3137C10.8094 25.3137 9.99846 25.3137 9.18762 25.2389C9.40872 24.6395 9.62981 23.9654 9.85091 23.1413C10.2931 21.4183 9.85091 19.9948 8.81896 19.0961C7.86053 18.272 6.38643 18.1972 5.2069 18.7966C4.02737 19.396 3.36407 20.6695 3.43765 22.1677C3.51118 23.6659 4.10095 24.8647 5.2069 25.7636C5.57557 26.063 6.01776 26.2883 6.45995 26.513C6.01775 27.0376 5.64908 27.3371 5.13338 27.3371H5.05985C3.8068 27.3371 2.40619 25.5389 1.89046 23.966C1.74289 23.4413 1.22716 23.1419 0.710936 23.3666C0.194695 23.5165 -0.0999326 24.0407 0.121167 24.5654C0.858506 26.8876 2.84841 29.2852 5.13338 29.2852C6.09181 29.2852 7.27079 28.7605 8.30277 27.1129C9.2612 27.2629 10.2192 27.3376 11.03 27.3376C10.7354 28.8358 10.5138 30.334 10.5138 31.8329C10.5138 39.6239 14.7891 46.5914 21.3496 50.9366L20.6122 57.6041C20.4647 58.8776 21.4231 59.9264 22.6762 59.9264H28.6468C29.6788 59.9264 30.5632 59.177 30.7108 58.1283L31.0794 55.0565C33.291 55.5812 35.6495 55.8807 38.082 55.8807C40.5146 55.8807 42.8731 55.5812 45.0846 55.0565L45.4533 58.1283C45.6009 59.1771 46.4853 59.9264 47.5173 59.9264H53.4879C54.7409 59.9264 55.6994 58.8029 55.5518 57.6041L54.742 51.0108C59.0174 48.1638 62.3344 44.1933 64.1037 39.6986H66.3152C68.0105 39.6986 69.4111 38.275 69.4111 36.5521V29.5851C69.2636 27.7864 67.8626 26.3629 66.1673 26.3629ZM7.93414 22.767C7.71304 23.5911 7.49194 24.2652 7.27084 24.8647C6.90218 24.7147 6.5335 24.5652 6.31242 24.2653C5.64912 23.7406 5.35399 23.0665 5.28046 22.1676C5.20694 21.2687 5.64913 20.8194 6.0178 20.5941C6.2389 20.5194 6.46 20.4441 6.6811 20.4441C6.97573 20.4441 7.27087 20.5188 7.5655 20.7436C8.0077 21.1188 8.15524 21.7929 7.93414 22.767ZM29.7532 27.1122C23.3403 27.1122 18.18 21.8681 18.1065 15.35V15.2C18.1065 8.68245 23.3404 3.36325 29.7532 3.36325C33.4388 3.36325 36.7558 5.16138 38.8937 7.8585C40.4419 9.88138 41.3998 12.4284 41.3998 15.2002C41.3998 21.7929 36.1665 27.1122 29.7532 27.1122ZM55.7001 24.7899C54.5206 24.7899 53.6361 23.8158 53.6361 22.6922C53.6361 21.4934 54.5946 20.5946 55.7001 20.5946C56.8796 20.5946 57.7641 21.5686 57.7641 22.6922C57.8376 23.8158 56.8797 24.7899 55.7001 24.7899Z" fill="url(#paint0_linear_201_1296)"/>
<path d="M34.7664 9.20706C34.3242 8.83237 33.808 8.53294 33.2182 8.30823C32.6284 8.08352 31.9651 8.00879 31.1542 8.00879H26.0679V14.8263H24.5938V16.924H26.0679V18.2722H24.5938V20.2945H26.0679V23.0663H28.2794V20.2945H32.6283V18.1969H28.2794V16.8487H30.9331C31.6704 16.8487 32.3337 16.7739 32.9234 16.5492C33.5867 16.3245 34.103 16.0998 34.5451 15.7251C34.9873 15.3504 35.356 14.901 35.6506 14.3016C35.9452 13.7769 36.0928 13.1028 36.0928 12.3539C36.0928 11.6797 35.9452 11.0804 35.7241 10.5557C35.5771 10.0311 35.2084 9.58167 34.7662 9.20698L34.7664 9.20706ZM33.0706 14.1517C32.5544 14.6011 31.8911 14.8258 31.0066 14.8258H28.353V10.1059H31.0066C31.891 10.1059 32.5549 10.3306 33.0706 10.7053C33.5868 11.08 33.8079 11.6794 33.8079 12.5035C33.8079 13.1776 33.5868 13.7022 33.0706 14.1516V14.1517Z" fill="#D3585C"/>
<path d="M34.7664 9.20706C34.3242 8.83237 33.808 8.53294 33.2182 8.30823C32.6284 8.08352 31.9651 8.00879 31.1542 8.00879H26.0679V14.8263H24.5938V16.924H26.0679V18.2722H24.5938V20.2945H26.0679V23.0663H28.2794V20.2945H32.6283V18.1969H28.2794V16.8487H30.9331C31.6704 16.8487 32.3337 16.7739 32.9234 16.5492C33.5867 16.3245 34.103 16.0998 34.5451 15.7251C34.9873 15.3504 35.356 14.901 35.6506 14.3016C35.9452 13.7769 36.0928 13.1028 36.0928 12.3539C36.0928 11.6797 35.9452 11.0804 35.7241 10.5557C35.5771 10.0311 35.2084 9.58167 34.7662 9.20698L34.7664 9.20706ZM33.0706 14.1517C32.5544 14.6011 31.8911 14.8258 31.0066 14.8258H28.353V10.1059H31.0066C31.891 10.1059 32.5549 10.3306 33.0706 10.7053C33.5868 11.08 33.8079 11.6794 33.8079 12.5035C33.8079 13.1776 33.5868 13.7022 33.0706 14.1516V14.1517Z" fill="url(#paint1_linear_201_1296)"/>
<defs>
<linearGradient id="paint0_linear_201_1296" x1="34.729" y1="0.0673828" x2="34.729" y2="59.9264" gradientUnits="userSpaceOnUse">
<stop stop-color="#BF4347"/>
<stop offset="1" stop-color="#D3585C" stop-opacity="0"/>
</linearGradient>
<linearGradient id="paint1_linear_201_1296" x1="30.3433" y1="8.00879" x2="30.3433" y2="23.0663" gradientUnits="userSpaceOnUse">
<stop stop-color="#BF4347"/>
<stop offset="1" stop-color="#D3585C" stop-opacity="0"/>
</linearGradient>
</defs>
</svg>
