<svg width="18" height="15" viewBox="0 0 18 15" fill="none" xmlns="http://www.w3.org/2000/svg">
<g clip-path="url(#clip0_162_626)">
<path d="M9.13439 6.86836V6.86866L9.14389 6.86806C10.4368 6.78603 11.422 5.65803 11.3399 4.38396L11.3398 4.38362C11.2988 3.76945 11.0324 3.1951 10.5611 2.76502L10.5612 2.76499L10.5584 2.76262C10.0867 2.35243 9.47139 2.14713 8.85556 2.18816C7.56332 2.27027 6.57763 3.37833 6.6597 4.67223L6.65973 4.67272C6.74194 5.90443 7.78766 6.86835 8.99984 6.86836C8.99985 6.86836 8.99986 6.86836 8.99987 6.86836H9.13439ZM9.83924 3.58123L9.83918 3.5813L9.84307 3.58467C10.1011 3.80834 10.2547 4.11615 10.2718 4.45849C10.3064 5.16536 9.77227 5.7668 9.08664 5.81924C8.38121 5.85265 7.77941 5.31925 7.72772 4.61325C7.67599 3.88977 8.20742 3.29188 8.90816 3.25624H8.99984C9.31041 3.25624 9.59993 3.35893 9.83924 3.58123Z" fill="#6ABD6E"/>
<path d="M9.13439 6.86836V6.86866L9.14389 6.86806C10.4368 6.78603 11.422 5.65803 11.3399 4.38396L11.3398 4.38362C11.2988 3.76945 11.0324 3.1951 10.5611 2.76502L10.5612 2.76499L10.5584 2.76262C10.0867 2.35243 9.47139 2.14713 8.85556 2.18816C7.56332 2.27027 6.57763 3.37833 6.6597 4.67223L6.65973 4.67272C6.74194 5.90443 7.78766 6.86835 8.99984 6.86836C8.99985 6.86836 8.99986 6.86836 8.99987 6.86836H9.13439ZM9.83924 3.58123L9.83918 3.5813L9.84307 3.58467C10.1011 3.80834 10.2547 4.11615 10.2718 4.45849C10.3064 5.16536 9.77227 5.7668 9.08664 5.81924C8.38121 5.85265 7.77941 5.31925 7.72772 4.61325C7.67599 3.88977 8.20742 3.29188 8.90816 3.25624H8.99984C9.31041 3.25624 9.59993 3.35893 9.83924 3.58123Z" fill="url(#paint0_linear_162_626)"/>
<path d="M9.13439 6.86836V6.86866L9.14389 6.86806C10.4368 6.78603 11.422 5.65803 11.3399 4.38396L11.3398 4.38362C11.2988 3.76945 11.0324 3.1951 10.5611 2.76502L10.5612 2.76499L10.5584 2.76262C10.0867 2.35243 9.47139 2.14713 8.85556 2.18816C7.56332 2.27027 6.57763 3.37833 6.6597 4.67223L6.65973 4.67272C6.74194 5.90443 7.78766 6.86835 8.99984 6.86836C8.99985 6.86836 8.99986 6.86836 8.99987 6.86836H9.13439ZM9.83924 3.58123L9.83918 3.5813L9.84307 3.58467C10.1011 3.80834 10.2547 4.11615 10.2718 4.45849C10.3064 5.16536 9.77227 5.7668 9.08664 5.81924C8.38121 5.85265 7.77941 5.31925 7.72772 4.61325C7.67599 3.88977 8.20742 3.29188 8.90816 3.25624H8.99984C9.31041 3.25624 9.59993 3.35893 9.83924 3.58123Z" stroke="#6ABD6E" stroke-width="0.3"/>
<path d="M0.246626 14.9664L0.204482 15.15H0.392822H17.5888H17.7767L17.7351 14.9668L16.0251 7.43513L15.9986 7.31834H15.8788H12.969C12.9716 7.31427 12.9741 7.31035 12.9764 7.30661C12.9818 7.29791 12.9883 7.28682 12.994 7.27507L12.9943 7.27436C12.9957 7.27146 12.9994 7.2639 13.0031 7.25306L13.0048 7.24967L13.026 7.2285C13.0504 7.2041 13.0686 7.1749 13.0804 7.15124C13.0861 7.13997 13.095 7.12091 13.1012 7.09754C13.274 6.78616 13.409 6.45604 13.506 6.1074C13.6256 5.70824 13.6848 5.27141 13.6848 4.83612C13.6848 2.2555 11.5811 0.151758 9.00043 0.151758C6.41981 0.151758 4.31607 2.2555 4.31607 4.83612C4.31607 4.8393 4.31607 4.8425 4.31606 4.84574C4.31603 4.92986 4.316 5.03464 4.33612 5.12617C4.3571 5.51987 4.43618 5.91214 4.5539 6.26576C4.67129 6.63733 4.82885 6.99392 5.0473 7.31399L5.04951 7.31844L2.12201 7.31832L2.00254 7.31831L1.97581 7.43475L0.246626 14.9664ZM5.39297 4.9327C5.38849 4.89717 5.38527 4.87024 5.3846 4.84539V4.8361C5.3846 2.8439 7.00826 1.22027 9.00043 1.22027C10.9926 1.22027 12.6163 2.84393 12.6163 4.8361C12.6163 5.17116 12.5789 5.50228 12.4878 5.81208L12.4878 5.81206L12.4868 5.81578C12.4155 6.08303 12.309 6.33466 12.1833 6.57102L12.1606 6.59377C12.1344 6.61995 12.1205 6.64714 12.1147 6.65878L12.1118 6.66168L12.1034 6.67424C12.0705 6.72353 11.9623 6.88531 11.8042 7.12153C11.1131 8.15448 9.46954 10.6108 9.01119 11.3088C8.73629 10.9105 8.10382 9.96605 7.48262 9.03846C7.01074 8.33383 6.54536 7.63891 6.24813 7.2004L6.23344 7.17091L6.22993 7.16388L6.22571 7.15725C6.12354 6.99676 6.04124 6.87697 5.99202 6.80532C5.97608 6.78213 5.96362 6.76398 5.95506 6.75114L5.94681 6.73873L5.93627 6.72819L5.92965 6.72158C5.78465 6.48396 5.65962 6.23094 5.56997 5.94422L5.56999 5.94421L5.5691 5.94153C5.47786 5.66795 5.42256 5.3749 5.40388 5.06189C5.40345 5.01581 5.39785 4.97139 5.39342 4.93631L5.39297 4.9327ZM5.75033 8.38691C6.21549 9.08038 6.82139 9.99157 7.31933 10.7408C7.36617 10.8113 7.41205 10.8803 7.45677 10.9476C7.65738 11.2495 7.83461 11.5162 7.96967 11.719C8.05224 11.843 8.11916 11.9433 8.16608 12.0133C8.18951 12.0482 8.20811 12.0758 8.22124 12.0951L8.23733 12.1185L8.24341 12.127L8.24366 12.1274C8.41101 12.3854 8.71066 12.5178 9.00061 12.5178C9.29642 12.5178 9.57645 12.3807 9.74112 12.1232L9.77619 12.0706C9.80854 12.0274 9.91941 11.8636 10.0743 11.6331C10.242 11.3837 10.4678 11.0461 10.7199 10.6691L10.8021 10.5462C11.273 9.84209 11.8205 9.0233 12.2503 8.38692H15.1634L16.4596 14.1007L1.55999 14.1006L2.83781 8.38679L5.75033 8.38691Z" fill="#6ABD6E"/>
<path d="M0.246626 14.9664L0.204482 15.15H0.392822H17.5888H17.7767L17.7351 14.9668L16.0251 7.43513L15.9986 7.31834H15.8788H12.969C12.9716 7.31427 12.9741 7.31035 12.9764 7.30661C12.9818 7.29791 12.9883 7.28682 12.994 7.27507L12.9943 7.27436C12.9957 7.27146 12.9994 7.2639 13.0031 7.25306L13.0048 7.24967L13.026 7.2285C13.0504 7.2041 13.0686 7.1749 13.0804 7.15124C13.0861 7.13997 13.095 7.12091 13.1012 7.09754C13.274 6.78616 13.409 6.45604 13.506 6.1074C13.6256 5.70824 13.6848 5.27141 13.6848 4.83612C13.6848 2.2555 11.5811 0.151758 9.00043 0.151758C6.41981 0.151758 4.31607 2.2555 4.31607 4.83612C4.31607 4.8393 4.31607 4.8425 4.31606 4.84574C4.31603 4.92986 4.316 5.03464 4.33612 5.12617C4.3571 5.51987 4.43618 5.91214 4.5539 6.26576C4.67129 6.63733 4.82885 6.99392 5.0473 7.31399L5.04951 7.31844L2.12201 7.31832L2.00254 7.31831L1.97581 7.43475L0.246626 14.9664ZM5.39297 4.9327C5.38849 4.89717 5.38527 4.87024 5.3846 4.84539V4.8361C5.3846 2.8439 7.00826 1.22027 9.00043 1.22027C10.9926 1.22027 12.6163 2.84393 12.6163 4.8361C12.6163 5.17116 12.5789 5.50228 12.4878 5.81208L12.4878 5.81206L12.4868 5.81578C12.4155 6.08303 12.309 6.33466 12.1833 6.57102L12.1606 6.59377C12.1344 6.61995 12.1205 6.64714 12.1147 6.65878L12.1118 6.66168L12.1034 6.67424C12.0705 6.72353 11.9623 6.88531 11.8042 7.12153C11.1131 8.15448 9.46954 10.6108 9.01119 11.3088C8.73629 10.9105 8.10382 9.96605 7.48262 9.03846C7.01074 8.33383 6.54536 7.63891 6.24813 7.2004L6.23344 7.17091L6.22993 7.16388L6.22571 7.15725C6.12354 6.99676 6.04124 6.87697 5.99202 6.80532C5.97608 6.78213 5.96362 6.76398 5.95506 6.75114L5.94681 6.73873L5.93627 6.72819L5.92965 6.72158C5.78465 6.48396 5.65962 6.23094 5.56997 5.94422L5.56999 5.94421L5.5691 5.94153C5.47786 5.66795 5.42256 5.3749 5.40388 5.06189C5.40345 5.01581 5.39785 4.97139 5.39342 4.93631L5.39297 4.9327ZM5.75033 8.38691C6.21549 9.08038 6.82139 9.99157 7.31933 10.7408C7.36617 10.8113 7.41205 10.8803 7.45677 10.9476C7.65738 11.2495 7.83461 11.5162 7.96967 11.719C8.05224 11.843 8.11916 11.9433 8.16608 12.0133C8.18951 12.0482 8.20811 12.0758 8.22124 12.0951L8.23733 12.1185L8.24341 12.127L8.24366 12.1274C8.41101 12.3854 8.71066 12.5178 9.00061 12.5178C9.29642 12.5178 9.57645 12.3807 9.74112 12.1232L9.77619 12.0706C9.80854 12.0274 9.91941 11.8636 10.0743 11.6331C10.242 11.3837 10.4678 11.0461 10.7199 10.6691L10.8021 10.5462C11.273 9.84209 11.8205 9.0233 12.2503 8.38692H15.1634L16.4596 14.1007L1.55999 14.1006L2.83781 8.38679L5.75033 8.38691Z" fill="url(#paint1_linear_162_626)"/>
<path d="M0.246626 14.9664L0.204482 15.15H0.392822H17.5888H17.7767L17.7351 14.9668L16.0251 7.43513L15.9986 7.31834H15.8788H12.969C12.9716 7.31427 12.9741 7.31035 12.9764 7.30661C12.9818 7.29791 12.9883 7.28682 12.994 7.27507L12.9943 7.27436C12.9957 7.27146 12.9994 7.2639 13.0031 7.25306L13.0048 7.24967L13.026 7.2285C13.0504 7.2041 13.0686 7.1749 13.0804 7.15124C13.0861 7.13997 13.095 7.12091 13.1012 7.09754C13.274 6.78616 13.409 6.45604 13.506 6.1074C13.6256 5.70824 13.6848 5.27141 13.6848 4.83612C13.6848 2.2555 11.5811 0.151758 9.00043 0.151758C6.41981 0.151758 4.31607 2.2555 4.31607 4.83612C4.31607 4.8393 4.31607 4.8425 4.31606 4.84574C4.31603 4.92986 4.316 5.03464 4.33612 5.12617C4.3571 5.51987 4.43618 5.91214 4.5539 6.26576C4.67129 6.63733 4.82885 6.99392 5.0473 7.31399L5.04951 7.31844L2.12201 7.31832L2.00254 7.31831L1.97581 7.43475L0.246626 14.9664ZM5.39297 4.9327C5.38849 4.89717 5.38527 4.87024 5.3846 4.84539V4.8361C5.3846 2.8439 7.00826 1.22027 9.00043 1.22027C10.9926 1.22027 12.6163 2.84393 12.6163 4.8361C12.6163 5.17116 12.5789 5.50228 12.4878 5.81208L12.4878 5.81206L12.4868 5.81578C12.4155 6.08303 12.309 6.33466 12.1833 6.57102L12.1606 6.59377C12.1344 6.61995 12.1205 6.64714 12.1147 6.65878L12.1118 6.66168L12.1034 6.67424C12.0705 6.72353 11.9623 6.88531 11.8042 7.12153C11.1131 8.15448 9.46954 10.6108 9.01119 11.3088C8.73629 10.9105 8.10382 9.96605 7.48262 9.03846C7.01074 8.33383 6.54536 7.63891 6.24813 7.2004L6.23344 7.17091L6.22993 7.16388L6.22571 7.15725C6.12354 6.99676 6.04124 6.87697 5.99202 6.80532C5.97608 6.78213 5.96362 6.76398 5.95506 6.75114L5.94681 6.73873L5.93627 6.72819L5.92965 6.72158C5.78465 6.48396 5.65962 6.23094 5.56997 5.94422L5.56999 5.94421L5.5691 5.94153C5.47786 5.66795 5.42256 5.3749 5.40388 5.06189C5.40345 5.01581 5.39785 4.97139 5.39342 4.93631L5.39297 4.9327ZM5.75033 8.38691C6.21549 9.08038 6.82139 9.99157 7.31933 10.7408C7.36617 10.8113 7.41205 10.8803 7.45677 10.9476C7.65738 11.2495 7.83461 11.5162 7.96967 11.719C8.05224 11.843 8.11916 11.9433 8.16608 12.0133C8.18951 12.0482 8.20811 12.0758 8.22124 12.0951L8.23733 12.1185L8.24341 12.127L8.24366 12.1274C8.41101 12.3854 8.71066 12.5178 9.00061 12.5178C9.29642 12.5178 9.57645 12.3807 9.74112 12.1232L9.77619 12.0706C9.80854 12.0274 9.91941 11.8636 10.0743 11.6331C10.242 11.3837 10.4678 11.0461 10.7199 10.6691L10.8021 10.5462C11.273 9.84209 11.8205 9.0233 12.2503 8.38692H15.1634L16.4596 14.1007L1.55999 14.1006L2.83781 8.38679L5.75033 8.38691Z" stroke="#6ABD6E" stroke-width="0.3"/>
<path d="M0.246626 14.9664L0.204482 15.15H0.392822H17.5888H17.7767L17.7351 14.9668L16.0251 7.43513L15.9986 7.31834H15.8788H12.969C12.9716 7.31427 12.9741 7.31035 12.9764 7.30661C12.9818 7.29791 12.9883 7.28682 12.994 7.27507L12.9943 7.27436C12.9957 7.27146 12.9994 7.2639 13.0031 7.25306L13.0048 7.24967L13.026 7.2285C13.0504 7.2041 13.0686 7.1749 13.0804 7.15124C13.0861 7.13997 13.095 7.12091 13.1012 7.09754C13.274 6.78616 13.409 6.45604 13.506 6.1074C13.6256 5.70824 13.6848 5.27141 13.6848 4.83612C13.6848 2.2555 11.5811 0.151758 9.00043 0.151758C6.41981 0.151758 4.31607 2.2555 4.31607 4.83612C4.31607 4.8393 4.31607 4.8425 4.31606 4.84574C4.31603 4.92986 4.316 5.03464 4.33612 5.12617C4.3571 5.51987 4.43618 5.91214 4.5539 6.26576C4.67129 6.63733 4.82885 6.99392 5.0473 7.31399L5.04951 7.31844L2.12201 7.31832L2.00254 7.31831L1.97581 7.43475L0.246626 14.9664ZM5.39297 4.9327C5.38849 4.89717 5.38527 4.87024 5.3846 4.84539V4.8361C5.3846 2.8439 7.00826 1.22027 9.00043 1.22027C10.9926 1.22027 12.6163 2.84393 12.6163 4.8361C12.6163 5.17116 12.5789 5.50228 12.4878 5.81208L12.4878 5.81206L12.4868 5.81578C12.4155 6.08303 12.309 6.33466 12.1833 6.57102L12.1606 6.59377C12.1344 6.61995 12.1205 6.64714 12.1147 6.65878L12.1118 6.66168L12.1034 6.67424C12.0705 6.72353 11.9623 6.88531 11.8042 7.12153C11.1131 8.15448 9.46954 10.6108 9.01119 11.3088C8.73629 10.9105 8.10382 9.96605 7.48262 9.03846C7.01074 8.33383 6.54536 7.63891 6.24813 7.2004L6.23344 7.17091L6.22993 7.16388L6.22571 7.15725C6.12354 6.99676 6.04124 6.87697 5.99202 6.80532C5.97608 6.78213 5.96362 6.76398 5.95506 6.75114L5.94681 6.73873L5.93627 6.72819L5.92965 6.72158C5.78465 6.48396 5.65962 6.23094 5.56997 5.94422L5.56999 5.94421L5.5691 5.94153C5.47786 5.66795 5.42256 5.3749 5.40388 5.06189C5.40345 5.01581 5.39785 4.97139 5.39342 4.93631L5.39297 4.9327ZM5.75033 8.38691C6.21549 9.08038 6.82139 9.99157 7.31933 10.7408C7.36617 10.8113 7.41205 10.8803 7.45677 10.9476C7.65738 11.2495 7.83461 11.5162 7.96967 11.719C8.05224 11.843 8.11916 11.9433 8.16608 12.0133C8.18951 12.0482 8.20811 12.0758 8.22124 12.0951L8.23733 12.1185L8.24341 12.127L8.24366 12.1274C8.41101 12.3854 8.71066 12.5178 9.00061 12.5178C9.29642 12.5178 9.57645 12.3807 9.74112 12.1232L9.77619 12.0706C9.80854 12.0274 9.91941 11.8636 10.0743 11.6331C10.242 11.3837 10.4678 11.0461 10.7199 10.6691L10.8021 10.5462C11.273 9.84209 11.8205 9.0233 12.2503 8.38692H15.1634L16.4596 14.1007L1.55999 14.1006L2.83781 8.38679L5.75033 8.38691Z" stroke="url(#paint2_linear_162_626)" stroke-opacity="0.2" stroke-width="0.3"/>
</g>
<defs>
<linearGradient id="paint0_linear_162_626" x1="8.99978" y1="2.33301" x2="8.99978" y2="6.71836" gradientUnits="userSpaceOnUse">
<stop stop-color="#286F2B"/>
<stop offset="1" stop-color="#286F2B" stop-opacity="0"/>
</linearGradient>
<linearGradient id="paint1_linear_162_626" x1="8.99083" y1="0.301758" x2="8.99083" y2="15" gradientUnits="userSpaceOnUse">
<stop stop-color="#286F2B"/>
<stop offset="1" stop-color="#286F2B" stop-opacity="0"/>
</linearGradient>
<linearGradient id="paint2_linear_162_626" x1="8.99083" y1="0.301758" x2="8.99083" y2="15" gradientUnits="userSpaceOnUse">
<stop stop-color="#286F2B"/>
<stop offset="1" stop-color="#286F2B" stop-opacity="0"/>
</linearGradient>
<clipPath id="clip0_162_626">
<rect width="18" height="15" fill="white"/>
</clipPath>
</defs>
</svg>
