<svg
        width="73"
        height="74"
        viewBox="0 0 73 74"
        fill="none"
        xmlns="http://www.w3.org/2000/svg">
        <g opacity="0.9" clip-path="url(#clip0_2_1068)">
          <path
            d="M60.9333 17.0714C60.9333 17.0714 50.6009 2.69851 33.1138 0.728256C26.2446 -0.0454406 20.3498 2.82962 19.9865 6.84794C19.9181 7.70537 20.0867 8.56506 20.4742 9.33017C20.7735 9.93182 21.1605 10.4847 21.6211 10.9705C21.6415 10.9682 21.6641 10.9642 21.6839 10.9619C30.84 9.95362 42.9001 10.7606 51.8164 14.5001C51.8164 14.5001 38.7469 12.323 26.5636 13.2974C26.1867 13.3301 16.1226 14.1548 9.58105 17.7951L10.613 21.4503C13.176 19.7991 18.3077 17.8588 21.6073 16.9303C21.2791 17.5446 21.0545 18.2093 20.9425 18.8986C19.2626 27.7656 26.6467 31.38 34.5263 28.4194C44.6017 24.6341 50.8107 21.0448 60.9321 17.0714H60.9333Z"
            fill="#D3585C"
          />
          <path
            d="M60.9333 17.0714C60.9333 17.0714 50.6009 2.69851 33.1138 0.728256C26.2446 -0.0454406 20.3498 2.82962 19.9865 6.84794C19.9181 7.70537 20.0867 8.56506 20.4742 9.33017C20.7735 9.93182 21.1605 10.4847 21.6211 10.9705C21.6415 10.9682 21.6641 10.9642 21.6839 10.9619C30.84 9.95362 42.9001 10.7606 51.8164 14.5001C51.8164 14.5001 38.7469 12.323 26.5636 13.2974C26.1867 13.3301 16.1226 14.1548 9.58105 17.7951L10.613 21.4503C13.176 19.7991 18.3077 17.8588 21.6073 16.9303C21.2791 17.5446 21.0545 18.2093 20.9425 18.8986C19.2626 27.7656 26.6467 31.38 34.5263 28.4194C44.6017 24.6341 50.8107 21.0448 60.9321 17.0714H60.9333Z"
            fill="url(#paint0_linear_2_1068)"
          />
          <path
            d="M3.17696 28.3166C3.17696 28.3166 -3.93599 44.5745 3.12434 60.9103C5.89774 67.3276 11.3016 71.0654 14.9164 69.3751C15.683 69.0069 16.3331 68.4288 16.793 67.7056C17.1574 67.1424 17.4363 66.5264 17.6208 65.8789C17.6089 65.8623 17.5942 65.8439 17.5823 65.8279C12.1423 58.294 6.80186 47.3029 5.53856 37.6051C5.53856 37.6051 10.2136 50.1678 17.1371 60.3748C17.3532 60.6891 23.0897 69.112 29.4705 73.0345L32.0776 70.3016C29.3856 68.877 25.1621 65.3423 22.7191 62.9099C23.4076 62.8915 24.0882 62.7561 24.7326 62.5101C33.1481 59.5513 32.5438 51.2614 26.0747 45.8234C17.803 38.8709 11.6325 35.2147 3.17689 28.3159L3.17696 28.3166Z"
            fill="#D3585C"
          />
          <path
            d="M3.17696 28.3166C3.17696 28.3166 -3.93599 44.5745 3.12434 60.9103C5.89774 67.3276 11.3016 71.0654 14.9164 69.3751C15.683 69.0069 16.3331 68.4288 16.793 67.7056C17.1574 67.1424 17.4363 66.5264 17.6208 65.8789C17.6089 65.8623 17.5942 65.8439 17.5823 65.8279C12.1423 58.294 6.80186 47.3029 5.53856 37.6051C5.53856 37.6051 10.2136 50.1678 17.1371 60.3748C17.3532 60.6891 23.0897 69.112 29.4705 73.0345L32.0776 70.3016C29.3856 68.877 25.1621 65.3423 22.7191 62.9099C23.4076 62.8915 24.0882 62.7561 24.7326 62.5101C33.1481 59.5513 32.5438 51.2614 26.0747 45.8234C17.803 38.8709 11.6325 35.2147 3.17689 28.3159L3.17696 28.3166Z"
            fill="url(#paint1_linear_2_1068)"
          />
          <path
            d="M41.6623 73.3981C41.6623 73.3981 59.1083 71.5135 69.5339 57.1475C73.6296 51.5038 74.1207 44.8909 70.8697 42.563H70.8692C70.1716 42.0744 69.3522 41.7928 68.5048 41.7503C67.8411 41.7125 67.1758 41.775 66.5302 41.9367C66.5223 41.9556 66.5138 41.9774 66.5059 41.9964C62.7893 50.5387 56.0694 60.7225 48.4168 66.6806C48.4168 66.6806 56.8119 56.2951 62.0703 45.1135C62.2304 44.7665 66.558 35.5187 66.7193 27.9554L63.0808 27.0332C63.2098 30.1085 62.3017 35.584 61.4451 38.945L61.4446 38.9456C61.0847 38.3508 60.6287 37.8209 60.0958 37.3781C53.3601 31.4701 46.5804 36.1455 45.17 44.5433C43.3663 55.2811 43.3278 62.5265 41.6621 73.3989L41.6623 73.3981Z"
            fill="#D3585C"
          />
          <path
            d="M41.6623 73.3981C41.6623 73.3981 59.1083 71.5135 69.5339 57.1475C73.6296 51.5038 74.1207 44.8909 70.8697 42.563H70.8692C70.1716 42.0744 69.3522 41.7928 68.5048 41.7503C67.8411 41.7125 67.1758 41.775 66.5302 41.9367C66.5223 41.9556 66.5138 41.9774 66.5059 41.9964C62.7893 50.5387 56.0694 60.7225 48.4168 66.6806C48.4168 66.6806 56.8119 56.2951 62.0703 45.1135C62.2304 44.7665 66.558 35.5187 66.7193 27.9554L63.0808 27.0332C63.2098 30.1085 62.3017 35.584 61.4451 38.945L61.4446 38.9456C61.0847 38.3508 60.6287 37.8209 60.0958 37.3781C53.3601 31.4701 46.5804 36.1455 45.17 44.5433C43.3663 55.2811 43.3278 62.5265 41.6621 73.3989L41.6623 73.3981Z"
            fill="url(#paint2_linear_2_1068)"
          />
        </g>
        <defs>
          <linearGradient
            id="paint0_linear_2_1068"
            x1="35.2572"
            y1="0.602051"
            x2="35.2572"
            y2="29.4348"
            gradientUnits="userSpaceOnUse">
            <stop stop-color="#BF4347" />
            <stop offset="1" stop-color="#D3585C" stop-opacity="0" />
          </linearGradient>
          <linearGradient
            id="paint1_linear_2_1068"
            x1="16.0388"
            y1="28.3159"
            x2="16.0388"
            y2="73.0345"
            gradientUnits="userSpaceOnUse">
            <stop stop-color="#BF4347" />
            <stop offset="1" stop-color="#D3585C" stop-opacity="0" />
          </linearGradient>
          <linearGradient
            id="paint2_linear_2_1068"
            x1="57.3307"
            y1="27.0332"
            x2="57.3307"
            y2="73.3989"
            gradientUnits="userSpaceOnUse">
            <stop stop-color="#BF4347" />
            <stop offset="1" stop-color="#D3585C" stop-opacity="0" />
          </linearGradient>
          <clipPath id="clip0_2_1068">
            <rect width="73" height="74" fill="white" />
          </clipPath>
        </defs>
      </svg>