<svg width="73" height="57" viewBox="0 0 73 57" fill="none" xmlns="http://www.w3.org/2000/svg">
<path d="M17.8525 22.6812H54.4522V53.8976H64.4573V16.2844L36.1523 0.0792236L7.84741 16.2844V53.8976H17.8525V22.6812Z" fill="#D3585C"/>
<path d="M17.8525 22.6812H54.4522V53.8976H64.4573V16.2844L36.1523 0.0792236L7.84741 16.2844V53.8976H17.8525V22.6812Z" fill="url(#paint0_linear_8_1542)"/>
<path d="M0.0656738 54.324H72.3245V56.9678H0.0656738V54.324Z" fill="#D3585C"/>
<path d="M0.0656738 54.324H72.3245V56.9678H0.0656738V54.324Z" fill="url(#paint1_linear_8_1542)"/>
<path d="M27.8576 45.1127H20.8452C19.9045 45.1127 19.0491 45.8801 19.0491 46.9041V52.1068C19.0491 53.045 19.8186 53.8982 20.8452 53.8982H27.8576C28.7982 53.8982 29.6536 53.1307 29.6536 52.1068V46.9041C29.5677 45.9658 28.7983 45.1127 27.8576 45.1127Z" fill="#D3585C"/>
<path d="M27.8576 45.1127H20.8452C19.9045 45.1127 19.0491 45.8801 19.0491 46.9041V52.1068C19.0491 53.045 19.8186 53.8982 20.8452 53.8982H27.8576C28.7982 53.8982 29.6536 53.1307 29.6536 52.1068V46.9041C29.5677 45.9658 28.7983 45.1127 27.8576 45.1127Z" fill="url(#paint2_linear_8_1542)"/>
<path d="M39.5729 45.1127H32.5605C31.6198 45.1127 30.7644 45.8801 30.7644 46.9041V52.1068C30.7644 53.045 31.5339 53.8982 32.5605 53.8982L39.5729 53.8976C40.5136 53.8976 41.369 53.1301 41.369 52.1062V46.9035C41.369 45.9659 40.5995 45.1127 39.5729 45.1127V45.1127Z" fill="#D3585C"/>
<path d="M39.5729 45.1127H32.5605C31.6198 45.1127 30.7644 45.8801 30.7644 46.9041V52.1068C30.7644 53.045 31.5339 53.8982 32.5605 53.8982L39.5729 53.8976C40.5136 53.8976 41.369 53.1301 41.369 52.1062V46.9035C41.369 45.9659 40.5995 45.1127 39.5729 45.1127V45.1127Z" fill="url(#paint3_linear_8_1542)"/>
<path d="M44.4472 45.1127C43.5065 45.1127 42.6511 45.8801 42.6511 46.9041V52.1068C42.6511 53.045 43.4206 53.8982 44.4472 53.8982H51.4596C52.4003 53.8982 53.2557 53.1307 53.2557 52.1068V46.9041C53.2557 45.9658 52.4862 45.1127 51.4596 45.1127H44.4472Z" fill="#D3585C"/>
<path d="M44.4472 45.1127C43.5065 45.1127 42.6511 45.8801 42.6511 46.9041V52.1068C42.6511 53.045 43.4206 53.8982 44.4472 53.8982H51.4596C52.4003 53.8982 53.2557 53.1307 53.2557 52.1068V46.9041C53.2557 45.9658 52.4862 45.1127 51.4596 45.1127H44.4472Z" fill="url(#paint4_linear_8_1542)"/>
<path d="M29.5677 36.9247C29.5677 35.9865 28.7982 35.1333 27.7716 35.1333H20.7592C19.8185 35.1333 18.9631 35.9008 18.9631 36.9247L18.9643 42.1274C18.9643 43.0657 19.7338 43.9188 20.7604 43.9188H27.7728C28.7135 43.9188 29.5689 43.1514 29.5689 42.1274L29.5677 36.9247Z" fill="#D3585C"/>
<path d="M29.5677 36.9247C29.5677 35.9865 28.7982 35.1333 27.7716 35.1333H20.7592C19.8185 35.1333 18.9631 35.9008 18.9631 36.9247L18.9643 42.1274C18.9643 43.0657 19.7338 43.9188 20.7604 43.9188H27.7728C28.7135 43.9188 29.5689 43.1514 29.5689 42.1274L29.5677 36.9247Z" fill="url(#paint5_linear_8_1542)"/>
<path d="M41.3687 36.9247C41.3687 35.9865 40.5993 35.1333 39.5727 35.1333H32.5603C31.6196 35.1333 30.7642 35.9008 30.7642 36.9247L30.7648 42.1274C30.7648 43.0657 31.5342 43.9188 32.5608 43.9188L39.5726 43.9182C40.5133 43.9182 41.3687 43.1508 41.3687 42.1268L41.3687 36.9247Z" fill="#D3585C"/>
<path d="M41.3687 36.9247C41.3687 35.9865 40.5993 35.1333 39.5727 35.1333H32.5603C31.6196 35.1333 30.7642 35.9008 30.7642 36.9247L30.7648 42.1274C30.7648 43.0657 31.5342 43.9188 32.5608 43.9188L39.5726 43.9182C40.5133 43.9182 41.3687 43.1508 41.3687 42.1268L41.3687 36.9247Z" fill="url(#paint6_linear_8_1542)"/>
<defs>
<linearGradient id="paint0_linear_8_1542" x1="36.1523" y1="0.0792236" x2="36.1523" y2="53.8976" gradientUnits="userSpaceOnUse">
<stop stop-color="#BF4347"/>
<stop offset="1" stop-color="#D3585C" stop-opacity="0"/>
</linearGradient>
<linearGradient id="paint1_linear_8_1542" x1="36.1951" y1="54.324" x2="36.1951" y2="56.9678" gradientUnits="userSpaceOnUse">
<stop stop-color="#BF4347"/>
<stop offset="1" stop-color="#D3585C" stop-opacity="0"/>
</linearGradient>
<linearGradient id="paint2_linear_8_1542" x1="24.3514" y1="45.1127" x2="24.3514" y2="53.8982" gradientUnits="userSpaceOnUse">
<stop stop-color="#BF4347"/>
<stop offset="1" stop-color="#D3585C" stop-opacity="0"/>
</linearGradient>
<linearGradient id="paint3_linear_8_1542" x1="36.0667" y1="45.1127" x2="36.0667" y2="53.8982" gradientUnits="userSpaceOnUse">
<stop stop-color="#BF4347"/>
<stop offset="1" stop-color="#D3585C" stop-opacity="0"/>
</linearGradient>
<linearGradient id="paint4_linear_8_1542" x1="47.9534" y1="45.1127" x2="47.9534" y2="53.8982" gradientUnits="userSpaceOnUse">
<stop stop-color="#BF4347"/>
<stop offset="1" stop-color="#D3585C" stop-opacity="0"/>
</linearGradient>
<linearGradient id="paint5_linear_8_1542" x1="24.266" y1="35.1333" x2="24.266" y2="43.9188" gradientUnits="userSpaceOnUse">
<stop stop-color="#BF4347"/>
<stop offset="1" stop-color="#D3585C" stop-opacity="0"/>
</linearGradient>
<linearGradient id="paint6_linear_8_1542" x1="36.0664" y1="35.1333" x2="36.0664" y2="43.9188" gradientUnits="userSpaceOnUse">
<stop stop-color="#BF4347"/>
<stop offset="1" stop-color="#D3585C" stop-opacity="0"/>
</linearGradient>
</defs>
</svg>
