<svg width="30" height="27" viewBox="0 0 30 27" fill="none" xmlns="http://www.w3.org/2000/svg">
<path fill-rule="evenodd" clip-rule="evenodd" d="M6.67324 4.58328H30L27.8666 16.2333H9.30536L9.89941 18.8636H26.3933C26.7929 18.8636 27.1153 19.1869 27.1153 19.5856C27.1153 19.9843 26.792 20.3076 26.3933 20.3076H9.32437V20.3056C8.99442 20.3056 8.69683 20.0786 8.62144 19.744L4.75337 2.61999L0.523861 1.41548C0.140471 1.30572 -0.0817163 0.907251 0.028046 0.523861C0.136701 0.14047 0.536276 -0.0817163 0.919666 0.028046L5.55936 1.34899C5.83876 1.42815 6.03233 1.66275 6.07535 1.93174L6.67428 4.58287L6.67324 4.58328ZM22.4138 22.3129C23.5831 22.3129 24.5301 23.2609 24.5301 24.4301C24.5301 25.5994 23.5822 26.5473 22.4138 26.5473C21.2446 26.5473 20.2966 25.5994 20.2966 24.4301C20.2966 23.2609 21.2446 22.3129 22.4138 22.3129ZM13.2024 22.3129C14.3717 22.3129 15.3187 23.2609 15.3187 24.4301C15.3187 25.5994 14.3708 26.5473 13.2024 26.5473C12.0332 26.5473 11.0852 25.5994 11.0852 24.4301C11.0852 23.2609 12.0332 22.3129 13.2024 22.3129ZM11.9321 9.13305C11.5334 9.13305 11.2101 8.80975 11.2101 8.41105C11.2101 8.01147 11.5334 7.68904 11.9321 7.68904H23.6843C24.0839 7.68904 24.4063 8.01234 24.4063 8.41105C24.4063 8.80975 24.083 9.13305 23.6843 9.13305H11.9321ZM11.9321 13.1299C11.5334 13.1299 11.2101 12.8066 11.2101 12.4079C11.2101 12.0092 11.5334 11.6859 11.9321 11.6859H23.6843C24.0839 11.6859 24.4063 12.0092 24.4063 12.4079C24.4063 12.8075 24.083 13.1299 23.6843 13.1299H11.9321Z" fill="white"/>
</svg>
