<svg width="18" height="15" viewBox="0 0 18 15" fill="none" xmlns="http://www.w3.org/2000/svg">
<path d="M2.88562 7.10205H8.18361V8.14016H2.88562V7.10205Z" fill="#D3585C"/>
<path d="M2.88562 7.10205H8.18361V8.14016H2.88562V7.10205Z" fill="url(#paint0_linear_75_1704)"/>
<path d="M2.88562 4.59326H8.18361V6.49646H2.88562V4.59326Z" fill="#D3585C"/>
<path d="M2.88562 4.59326H8.18361V6.49646H2.88562V4.59326Z" fill="url(#paint1_linear_75_1704)"/>
<path d="M2.88562 2.94971H8.18361V3.98782H2.88562V2.94971Z" fill="#D3585C"/>
<path d="M2.88562 2.94971H8.18361V3.98782H2.88562V2.94971Z" fill="url(#paint2_linear_75_1704)"/>
<path d="M0 1.31601V14.6283H2.28291V1.31601L1.14147 0L0 1.31601Z" fill="#D3585C"/>
<path d="M0 1.31601V14.6283H2.28291V1.31601L1.14147 0L0 1.31601Z" fill="url(#paint3_linear_75_1704)"/>
<path d="M2.88562 11.644H8.18361V12.7254H2.88562V11.644Z" fill="#D3585C"/>
<path d="M2.88562 11.644H8.18361V12.7254H2.88562V11.644Z" fill="url(#paint4_linear_75_1704)"/>
<path d="M2.88562 8.74561H8.18361V11.0381H2.88562V8.74561Z" fill="#D3585C"/>
<path d="M2.88562 8.74561H8.18361V11.0381H2.88562V8.74561Z" fill="url(#paint5_linear_75_1704)"/>
<path d="M11.7159 11.644H17.0139V12.7254H11.7159V11.644Z" fill="#D3585C"/>
<path d="M11.7159 11.644H17.0139V12.7254H11.7159V11.644Z" fill="url(#paint6_linear_75_1704)"/>
<path d="M11.7159 2.94971H17.0139V3.98782H11.7159V2.94971Z" fill="#D3585C"/>
<path d="M11.7159 2.94971H17.0139V3.98782H11.7159V2.94971Z" fill="url(#paint7_linear_75_1704)"/>
<path d="M11.1128 1.31585L9.94984 0L8.78687 1.31585V14.6282H11.1128V1.31585Z" fill="#D3585C"/>
<path d="M11.1128 1.31585L9.94984 0L8.78687 1.31585V14.6282H11.1128V1.31585Z" fill="url(#paint8_linear_75_1704)"/>
<path d="M11.7159 4.59326H17.0139V6.49646H11.7159V4.59326Z" fill="#D3585C"/>
<path d="M11.7159 4.59326H17.0139V6.49646H11.7159V4.59326Z" fill="url(#paint9_linear_75_1704)"/>
<path d="M11.7159 8.74561H17.0139V11.0381H11.7159V8.74561Z" fill="#D3585C"/>
<path d="M11.7159 8.74561H17.0139V11.0381H11.7159V8.74561Z" fill="url(#paint10_linear_75_1704)"/>
<path d="M11.7159 7.10205H17.0139V8.14016H11.7159V7.10205Z" fill="#D3585C"/>
<path d="M11.7159 7.10205H17.0139V8.14016H11.7159V7.10205Z" fill="url(#paint11_linear_75_1704)"/>
<defs>
<linearGradient id="paint0_linear_75_1704" x1="5.53462" y1="7.10205" x2="5.53462" y2="8.14016" gradientUnits="userSpaceOnUse">
<stop stop-color="#B13A3E"/>
<stop offset="1" stop-color="#D3585C" stop-opacity="0"/>
</linearGradient>
<linearGradient id="paint1_linear_75_1704" x1="5.53462" y1="4.59326" x2="5.53462" y2="6.49646" gradientUnits="userSpaceOnUse">
<stop stop-color="#B13A3E"/>
<stop offset="1" stop-color="#D3585C" stop-opacity="0"/>
</linearGradient>
<linearGradient id="paint2_linear_75_1704" x1="5.53462" y1="2.94971" x2="5.53462" y2="3.98782" gradientUnits="userSpaceOnUse">
<stop stop-color="#B13A3E"/>
<stop offset="1" stop-color="#D3585C" stop-opacity="0"/>
</linearGradient>
<linearGradient id="paint3_linear_75_1704" x1="1.14145" y1="0" x2="1.14145" y2="14.6283" gradientUnits="userSpaceOnUse">
<stop stop-color="#B13A3E"/>
<stop offset="1" stop-color="#D3585C" stop-opacity="0"/>
</linearGradient>
<linearGradient id="paint4_linear_75_1704" x1="5.53462" y1="11.644" x2="5.53462" y2="12.7254" gradientUnits="userSpaceOnUse">
<stop stop-color="#B13A3E"/>
<stop offset="1" stop-color="#D3585C" stop-opacity="0"/>
</linearGradient>
<linearGradient id="paint5_linear_75_1704" x1="5.53462" y1="8.74561" x2="5.53462" y2="11.0381" gradientUnits="userSpaceOnUse">
<stop stop-color="#B13A3E"/>
<stop offset="1" stop-color="#D3585C" stop-opacity="0"/>
</linearGradient>
<linearGradient id="paint6_linear_75_1704" x1="14.3649" y1="11.644" x2="14.3649" y2="12.7254" gradientUnits="userSpaceOnUse">
<stop stop-color="#B13A3E"/>
<stop offset="1" stop-color="#D3585C" stop-opacity="0"/>
</linearGradient>
<linearGradient id="paint7_linear_75_1704" x1="14.3649" y1="2.94971" x2="14.3649" y2="3.98782" gradientUnits="userSpaceOnUse">
<stop stop-color="#B13A3E"/>
<stop offset="1" stop-color="#D3585C" stop-opacity="0"/>
</linearGradient>
<linearGradient id="paint8_linear_75_1704" x1="9.94984" y1="0" x2="9.94984" y2="14.6282" gradientUnits="userSpaceOnUse">
<stop stop-color="#B13A3E"/>
<stop offset="1" stop-color="#D3585C" stop-opacity="0"/>
</linearGradient>
<linearGradient id="paint9_linear_75_1704" x1="14.3649" y1="4.59326" x2="14.3649" y2="6.49646" gradientUnits="userSpaceOnUse">
<stop stop-color="#B13A3E"/>
<stop offset="1" stop-color="#D3585C" stop-opacity="0"/>
</linearGradient>
<linearGradient id="paint10_linear_75_1704" x1="14.3649" y1="8.74561" x2="14.3649" y2="11.0381" gradientUnits="userSpaceOnUse">
<stop stop-color="#B13A3E"/>
<stop offset="1" stop-color="#D3585C" stop-opacity="0"/>
</linearGradient>
<linearGradient id="paint11_linear_75_1704" x1="14.3649" y1="7.10205" x2="14.3649" y2="8.14016" gradientUnits="userSpaceOnUse">
<stop stop-color="#B13A3E"/>
<stop offset="1" stop-color="#D3585C" stop-opacity="0"/>
</linearGradient>
</defs>
</svg>
